<?xml version="1.0" standalone="no"?>
<!DOCTYPE svg PUBLIC "-//W3C//DTD SVG 20010904//EN"
 "http://www.w3.org/TR/2001/REC-SVG-20010904/DTD/svg10.dtd">
<svg version="1.0" xmlns="http://www.w3.org/2000/svg"
 width="428.000000pt" height="428.000000pt" viewBox="0 0 428.000000 428.000000"
 preserveAspectRatio="xMidYMid meet">
<metadata>
Created by potrace 1.14, written by Peter Selinger 2001-2017
</metadata>
<g transform="translate(0.000000,428.000000) scale(0.100000,-0.100000)"
fill="#000000" stroke="none">
<path d="M1180 4249 c-60 -12 -266 -84 -360 -126 -93 -42 -151 -114 -167 -208
-5 -27 -9 -841 -8 -1808 l0 -1758 -35 -20 c-82 -46 -112 -153 -68 -239 34 -66
76 -90 156 -90 83 0 122 23 155 90 45 90 11 201 -75 246 l-28 15 0 1634 0
1635 42 -21 c38 -20 130 -54 308 -117 l75 -27 985 -3 c686 -2 1002 0 1042 8
65 12 381 123 415 146 12 8 24 14 27 14 2 0 4 -766 4 -1702 0 -937 1 -1713 1
-1725 1 -21 6 -23 51 -23 l50 0 1 73 c4 428 -1 3656 -7 3680 -16 77 -73 151
-145 187 -23 12 -120 50 -213 84 l-171 61 -995 2 c-548 0 -1015 -3 -1040 -8z
m2010 -104 c53 -12 331 -113 365 -132 40 -22 70 -58 82 -98 23 -73 -4 -167
-59 -206 -33 -24 -304 -123 -388 -143 -43 -10 -269 -12 -1015 -11 -933 2 -962
2 -1020 22 -191 64 -304 108 -333 130 -94 71 -91 234 6 301 34 23 310 123 378
137 62 12 1931 13 1984 0z"/>
</g>
</svg>
