<svg width="1047" height="439" viewBox="0 0 1047 439" fill="none" xmlns="http://www.w3.org/2000/svg">
<path d="M1028.52 14.5629H998.761C997.506 14.5629 996.259 14.328 995.085 13.8672L990.179 11.9429C986.601 10.5426 986.601 5.48342 990.179 4.07407L995.256 2.08653C996.313 1.67095 997.442 1.45413 998.581 1.45413H1028.53C1029.69 1.45413 1030.82 1.67095 1031.9 2.09557L1037.14 4.14635C1040.65 5.51956 1040.65 10.4975 1037.14 11.8707L1031.9 13.9214C1030.82 14.3461 1029.69 14.5629 1028.53 14.5629H1028.52Z" stroke="#FF6308" stroke-miterlimit="10"/>
<path d="M1028.52 76.7187H998.762C997.506 76.7187 996.259 76.4838 995.085 76.023L990.179 74.0987C986.601 72.6984 986.601 67.6392 990.179 66.2299L995.256 64.2423C996.313 63.8267 997.443 63.6099 998.581 63.6099H1028.53C1029.69 63.6099 1030.82 63.8267 1031.9 64.2514L1037.14 66.3021C1040.65 67.6753 1040.65 72.6532 1037.14 74.0265L1031.9 76.0772C1030.82 76.5018 1029.69 76.7187 1028.53 76.7187H1028.52Z" stroke="#FF6308" stroke-miterlimit="10"/>
<path d="M987.487 8.00385V70.2862" stroke="#FF6308" stroke-miterlimit="10"/>
<path d="M1042.67 39.4883H987.487" stroke="#FF6308" stroke-miterlimit="10"/>
<path d="M1042.67 42.8674C1044.54 42.8674 1046.05 41.3547 1046.05 39.4886C1046.05 37.6225 1044.54 36.1098 1042.67 36.1098C1040.8 36.1098 1039.29 37.6225 1039.29 39.4886C1039.29 41.3547 1040.8 42.8674 1042.67 42.8674Z" fill="#FF6308"/>
<path d="M798.628 2.52044C799.197 2.53851 799.739 2.77341 800.155 3.16188C801.067 4.02014 802.513 5.71858 802.007 7.47124C801.275 9.97373 773.739 74.867 773.739 74.867C773.739 74.867 772.925 77.3063 769.176 76.7823C768.661 76.71 768.201 76.4661 767.83 76.0866C766.936 75.1651 765.382 73.277 765.996 71.7954C766.845 69.7626 794.201 4.54413 794.201 4.54413C794.201 4.54413 794.617 2.39396 798.619 2.52044H798.628Z" stroke="#FF6308" stroke-miterlimit="10"/>
<path d="M796.966 2.73684C796.396 2.75491 795.854 2.9898 795.439 3.37828C794.526 4.23654 793.081 5.93498 793.587 7.68763C794.319 10.1901 821.855 75.0834 821.855 75.0834C821.855 75.0834 822.668 77.5227 826.417 76.9987C826.932 76.9264 827.393 76.6825 827.763 76.303C828.658 75.3815 830.212 73.4934 829.597 72.0117C828.748 69.979 801.392 4.76052 801.392 4.76052C801.392 4.76052 800.977 2.61036 796.975 2.73684H796.966Z" stroke="#FF6308" stroke-miterlimit="10"/>
<path d="M797.915 10.3258C800.365 10.3258 802.351 8.33981 802.351 5.88997C802.351 3.44013 800.365 1.45413 797.915 1.45413C795.466 1.45413 793.48 3.44013 793.48 5.88997C793.48 8.33981 795.466 10.3258 797.915 10.3258Z" fill="#FF6308"/>
<path d="M899.686 4.08342C899.153 3.8937 898.566 3.8937 898.024 4.08342C896.849 4.48996 894.853 5.42954 894.654 7.10991C894.365 9.52207 894.654 74.9935 894.654 74.9935C894.654 74.9935 894.464 77.3786 898.123 78.273C898.62 78.3995 899.153 78.3543 899.632 78.1646C900.806 77.6948 902.974 76.6378 902.974 75.1471V7.40805C902.974 7.40805 903.426 5.4205 899.686 4.08342Z" stroke="#FF6308" stroke-miterlimit="10"/>
<path d="M894.555 43.175H844.749" stroke="#FF6308" stroke-miterlimit="10"/>
<path d="M844.749 78.9145V3.37885" stroke="#FF6308" stroke-miterlimit="10"/>
<path d="M844.749 6.75766C846.615 6.75766 848.128 5.2449 848.128 3.37883C848.128 1.51276 846.615 0 844.749 0C842.883 0 841.37 1.51276 841.37 3.37883C841.37 5.2449 842.883 6.75766 844.749 6.75766Z" fill="#FF6308"/>
<path d="M692.095 13.1264C689.177 6.06162 682.283 1.45413 674.64 1.45413H669.355C661.712 1.45413 654.819 6.06162 651.901 13.1264L644.43 31.2221C642.523 35.8386 642.523 41.0243 644.43 45.6408L651.901 63.7365C654.819 70.8013 661.712 75.4088 669.355 75.4088H674.64C682.283 75.4088 689.177 70.8013 692.095 63.7365" stroke="#FF6308" stroke-miterlimit="10"/>
<path d="M692.096 16.7941C693.962 16.7941 695.475 15.2814 695.475 13.4153C695.475 11.5492 693.962 10.0365 692.096 10.0365C690.23 10.0365 688.717 11.5492 688.717 13.4153C688.717 15.2814 690.23 16.7941 692.096 16.7941Z" fill="#FF6308"/>
<path d="M754.222 23.7259V53.1686C754.222 56.7191 752.677 60.0979 749.985 62.4107L738.078 72.6827C733.823 76.3596 727.508 76.3596 723.253 72.6827L711.346 62.4107C708.653 60.0889 707.109 56.7191 707.109 53.1686V23.7259C707.109 20.1754 708.653 16.7966 711.346 14.4838L723.253 4.21185C727.508 0.534894 733.823 0.534894 738.078 4.21185L749.985 14.4838C752.677 16.8056 754.222 20.1754 754.222 23.7259Z" stroke="#FF6308" stroke-miterlimit="10"/>
<path d="M707.117 38.4522H754.222" stroke="#FF6308" stroke-miterlimit="10"/>
<path d="M730.965 43.3449C733.781 43.3449 736.064 41.0618 736.064 38.2455C736.064 35.4292 733.781 33.1461 730.965 33.1461C728.148 33.1461 725.865 35.4292 725.865 38.2455C725.865 41.0618 728.148 43.3449 730.965 43.3449Z" fill="#FF6308"/>
<path d="M972.474 81.7939C974.34 81.7939 975.853 80.2812 975.853 78.4151C975.853 76.549 974.34 75.0363 972.474 75.0363C970.608 75.0363 969.095 76.549 969.095 78.4151C969.095 80.2812 970.608 81.7939 972.474 81.7939Z" fill="#FF6308"/>
<path d="M956.014 46.368H931.088C928.694 46.368 926.399 47.3166 924.701 49.015L917.094 56.6129C913.805 59.8923 913.805 65.2225 917.094 68.502L924.701 76.0998C926.399 77.7892 928.694 78.7469 931.088 78.7469H956.014C958.408 78.7469 960.702 77.7983 962.401 76.0998L970.008 68.502C973.296 65.2225 973.296 59.8923 970.008 56.6129L962.401 49.015C960.702 47.3256 958.408 46.368 956.014 46.368Z" stroke="#FF6308" stroke-miterlimit="10"/>
<path d="M914.636 3.64465V62.6566" stroke="#FF6308" stroke-miterlimit="10"/>
<path d="M972.474 3.64459V79.7223" stroke="#FF6308" stroke-miterlimit="10"/>
<path d="M110.828 374.505H81.069C79.8133 374.505 78.5666 374.27 77.3921 373.809L72.4865 371.885C68.9089 370.484 68.9089 365.425 72.4865 364.016L77.5637 362.028C78.6207 361.613 79.75 361.396 80.8884 361.396H110.837C111.993 361.396 113.132 361.613 114.207 362.037L119.447 364.088C122.961 365.461 122.961 370.439 119.447 371.812L114.207 373.863C113.132 374.288 111.993 374.505 110.837 374.505H110.828Z" stroke="#FF6308" stroke-miterlimit="10"/>
<path d="M110.828 436.66H81.069C79.8133 436.66 78.5666 436.425 77.3921 435.965L72.4865 434.04C68.9089 432.64 68.9089 427.581 72.4865 426.172L77.5637 424.184C78.6207 423.768 79.75 423.552 80.8884 423.552H110.837C111.993 423.552 113.132 423.768 114.207 424.193L119.447 426.244C122.961 427.617 122.961 432.595 119.447 433.968L114.207 436.019C113.132 436.444 111.993 436.66 110.837 436.66H110.828Z" stroke="#FF6308" stroke-miterlimit="10"/>
<path d="M69.7946 367.946V430.228" stroke="#FF6308" stroke-miterlimit="10"/>
<path d="M124.976 399.43H69.7946" stroke="#FF6308" stroke-miterlimit="10"/>
<path d="M124.977 402.809C126.843 402.809 128.355 401.296 128.355 399.43C128.355 397.564 126.843 396.051 124.977 396.051C123.111 396.051 121.598 397.564 121.598 399.43C121.598 401.296 123.111 402.809 124.977 402.809Z" fill="#FF6308"/>
<path d="M253.195 374.504H223.436C222.181 374.504 220.934 374.27 219.759 373.809L214.854 371.884C211.276 370.484 211.276 365.425 214.854 364.016L219.931 362.028C220.988 361.612 222.117 361.396 223.256 361.396H253.204C254.361 361.396 255.499 361.612 256.574 362.037L261.814 364.088C265.328 365.461 265.328 370.439 261.814 371.812L256.574 373.863C255.499 374.288 254.361 374.504 253.204 374.504H253.195Z" stroke="#FF6308" stroke-miterlimit="10"/>
<path d="M253.195 436.66H223.436C222.181 436.66 220.934 436.425 219.76 435.965L214.854 434.04C211.276 432.64 211.276 427.581 214.854 426.171L219.931 424.184C220.988 423.768 222.117 423.551 223.256 423.551H253.204C254.361 423.551 255.499 423.768 256.574 424.193L261.814 426.244C265.328 427.617 265.328 432.595 261.814 433.968L256.574 436.019C255.499 436.443 254.361 436.66 253.204 436.66H253.195Z" stroke="#FF6308" stroke-miterlimit="10"/>
<path d="M212.162 367.945V430.228" stroke="#FF6308" stroke-miterlimit="10"/>
<path d="M267.343 399.43H212.162" stroke="#FF6308" stroke-miterlimit="10"/>
<path d="M267.344 402.809C269.21 402.809 270.723 401.296 270.723 399.43C270.723 397.564 269.21 396.051 267.344 396.051C265.478 396.051 263.965 397.564 263.965 399.43C263.965 401.296 265.478 402.809 267.344 402.809Z" fill="#FF6308"/>
<path d="M323.742 362.904H298.816C296.422 362.904 294.128 363.853 292.429 365.552L284.822 373.149C281.534 376.429 281.534 381.759 284.822 385.039L292.429 392.636C294.128 394.326 296.422 395.283 298.816 395.283H323.742C326.136 395.283 328.431 394.335 330.129 392.636L337.736 385.039C341.024 381.759 341.024 376.429 337.736 373.149L330.129 365.552C328.431 363.862 326.136 362.904 323.742 362.904Z" stroke="#FF6308" stroke-miterlimit="10"/>
<path d="M296.115 437.78V363.32" stroke="#FF6308" stroke-miterlimit="10"/>
<path d="M296.115 366.699C297.981 366.699 299.494 365.186 299.494 363.32C299.494 361.454 297.981 359.941 296.115 359.941C294.249 359.941 292.736 361.454 292.736 363.32C292.736 365.186 294.249 366.699 296.115 366.699Z" fill="#FF6308"/>
<path d="M189.037 373.05H154.842C153.65 373.05 152.457 372.851 151.328 372.453L146.377 370.728C142.366 369.328 142.366 363.654 146.377 362.254L151.491 360.474C152.511 360.122 153.586 359.941 154.662 359.941H189.037C190.13 359.941 191.223 360.122 192.262 360.483L197.574 362.335C201.513 363.708 201.513 369.282 197.574 370.656L192.262 372.508C191.223 372.869 190.139 373.05 189.037 373.05Z" stroke="#FF6308" stroke-miterlimit="10"/>
<path d="M143.369 366.5V434.79" stroke="#FF6308" stroke-miterlimit="10"/>
<path d="M143.369 438.169C145.235 438.169 146.748 436.656 146.748 434.79C146.748 432.924 145.235 431.411 143.369 431.411C141.503 431.411 139.99 432.924 139.99 434.79C139.99 436.656 141.503 438.169 143.369 438.169Z" fill="#FF6308"/>
<path d="M200.529 366.5V434.79" stroke="#FF6308" stroke-miterlimit="10"/>
<path d="M46.6683 375.959H12.4736C11.281 375.959 10.0885 375.76 8.95922 375.362L4.00842 373.637C-0.00280588 372.237 -0.00280588 366.563 4.00842 365.163L9.12183 363.383C10.1427 363.031 11.2178 362.85 12.2929 362.85H46.6683C47.7615 362.85 48.8546 363.031 49.8936 363.392L55.2057 365.244C59.1447 366.617 59.1447 372.191 55.2057 373.565L49.8936 375.417C48.8546 375.778 47.7705 375.959 46.6683 375.959Z" stroke="#FF6308" stroke-miterlimit="10"/>
<path d="M29.5758 362.958V437.699" stroke="#FF6308" stroke-miterlimit="10"/>
<path d="M29.5755 379.337C31.4416 379.337 32.9543 377.824 32.9543 375.958C32.9543 374.092 31.4416 372.58 29.5755 372.58C27.7094 372.58 26.1967 374.092 26.1967 375.958C26.1967 377.824 27.7094 379.337 29.5755 379.337Z" fill="#FF6308"/>
<path d="M393.223 434.817H368.297C365.903 434.817 363.608 433.869 361.91 432.17L354.303 424.572C351.014 421.293 351.014 415.963 354.303 412.683L361.91 405.085C363.608 403.396 365.903 402.438 368.297 402.438H393.223C395.617 402.438 397.911 403.387 399.61 405.085L407.217 412.683C410.505 415.963 410.505 421.293 407.217 424.572L399.61 432.17C397.911 433.86 395.617 434.817 393.223 434.817Z" stroke="#FF6308" stroke-miterlimit="10"/>
<path d="M365.595 359.941V434.401" stroke="#FF6308" stroke-miterlimit="10"/>
<path d="M365.596 437.78C367.462 437.78 368.975 436.267 368.975 434.401C368.975 432.535 367.462 431.022 365.596 431.022C363.73 431.022 362.217 432.535 362.217 434.401C362.217 436.267 363.73 437.78 365.596 437.78Z" fill="#FF6308"/>
<path d="M711.996 174.663H738.711" stroke="#FF6308" stroke-miterlimit="10"/>
<path d="M739.778 178.042C741.644 178.042 743.156 176.529 743.156 174.663C743.156 172.797 741.644 171.284 739.778 171.284C737.912 171.284 736.399 172.797 736.399 174.663C736.399 176.529 737.912 178.042 739.778 178.042Z" fill="#FF6308"/>
<path d="M710.416 178.042C712.282 178.042 713.795 176.529 713.795 174.663C713.795 172.797 712.282 171.284 710.416 171.284C708.55 171.284 707.037 172.797 707.037 174.663C707.037 176.529 708.55 178.042 710.416 178.042Z" fill="#FF6308"/>
<path d="M726.181 123.646C726.75 123.664 727.292 123.899 727.707 124.287C728.62 125.146 730.065 126.844 729.559 128.597C728.828 131.099 701.291 195.992 701.291 195.992C701.291 195.992 700.478 198.432 696.729 197.908C696.214 197.835 695.753 197.591 695.383 197.212C694.488 196.291 692.934 194.402 693.549 192.921C694.398 190.888 721.754 125.67 721.754 125.67C721.754 125.67 722.169 123.519 726.172 123.646H726.181Z" stroke="#FF6308" stroke-miterlimit="10"/>
<path d="M725.476 131.461C727.925 131.461 729.911 129.475 729.911 127.025C729.911 124.575 727.925 122.589 725.476 122.589C723.026 122.589 721.04 124.575 721.04 127.025C721.04 129.475 723.026 131.461 725.476 131.461Z" fill="#FF6308"/>
<path d="M659.615 122.589H646.091C643.525 122.589 641.131 123.89 639.74 126.049L633.551 135.626C632.052 137.947 632.052 140.929 633.551 143.241L639.74 152.818C641.131 154.977 643.525 156.278 646.091 156.278H659.615C662.181 156.278 664.575 154.977 665.966 152.818L672.155 143.241C673.655 140.92 673.655 137.938 672.155 135.626L665.966 126.049C664.575 123.89 662.181 122.589 659.615 122.589Z" stroke="#FF6308" stroke-miterlimit="10"/>
<path d="M632.43 139.429V169.278" stroke="#FF6308" stroke-miterlimit="10"/>
<path d="M673.265 139.429V169.278" stroke="#FF6308" stroke-miterlimit="10"/>
<path d="M665.316 165.068H640.39C637.996 165.068 635.701 166.017 634.003 167.715L626.396 175.313C623.107 178.592 623.107 183.922 626.396 187.202L634.003 194.8C635.701 196.489 637.996 197.447 640.39 197.447H665.316C667.71 197.447 670.004 196.498 671.703 194.8L679.31 187.202C682.598 183.922 682.598 178.592 679.31 175.313L671.703 167.715C670.004 166.026 667.71 165.068 665.316 165.068Z" stroke="#FF6308" stroke-miterlimit="10"/>
<path d="M623.929 181.249V197.429" stroke="#FF6308" stroke-miterlimit="10"/>
<path d="M681.767 181.249V197.429" stroke="#FF6308" stroke-miterlimit="10"/>
<path d="M673.265 138.886H632.43" stroke="#FF6308" stroke-miterlimit="10"/>
<path d="M571.27 135.698H601.029C602.284 135.698 603.531 135.463 604.705 135.002L609.611 133.078C613.189 131.678 613.189 126.618 609.611 125.209L604.534 123.221C603.477 122.806 602.348 122.589 601.209 122.589H571.261C570.104 122.589 568.966 122.806 567.891 123.231L562.651 125.281C559.137 126.655 559.137 131.632 562.651 133.006L567.891 135.056C568.966 135.481 570.104 135.698 571.261 135.698H571.27Z" stroke="#FF6308" stroke-miterlimit="10"/>
<path d="M571.27 197.853H601.029C602.284 197.853 603.531 197.619 604.705 197.158L609.611 195.233C613.189 193.833 613.189 188.774 609.611 187.365L604.534 185.377C603.477 184.961 602.348 184.745 601.209 184.745H571.261C570.104 184.745 568.966 184.961 567.891 185.386L562.651 187.437C559.137 188.81 559.137 193.788 562.651 195.161L567.891 197.212C568.966 197.637 570.104 197.853 571.261 197.853H571.27Z" stroke="#FF6308" stroke-miterlimit="10"/>
<path d="M612.293 129.139V191.421" stroke="#FF6308" stroke-miterlimit="10"/>
<path d="M557.122 160.624H612.294" stroke="#FF6308" stroke-miterlimit="10"/>
<path d="M557.122 164.003C558.988 164.003 560.501 162.49 560.501 160.624C560.501 158.758 558.988 157.245 557.122 157.245C555.256 157.245 553.743 158.758 553.743 160.624C553.743 162.49 555.256 164.003 557.122 164.003Z" fill="#FF6308"/>
<path d="M884.364 141.252L838.018 195.376" stroke="#FF6308" stroke-miterlimit="10"/>
<path d="M885.096 143.817C886.962 143.817 888.474 142.304 888.474 140.438C888.474 138.572 886.962 137.059 885.096 137.059C883.23 137.059 881.717 138.572 881.717 140.438C881.717 142.304 883.23 143.817 885.096 143.817Z" fill="#FF6308"/>
<path d="M833.61 122.731C834.143 122.542 834.73 122.542 835.272 122.731C836.447 123.138 838.443 124.077 838.642 125.758C838.931 128.17 838.642 193.641 838.642 193.641C838.642 193.641 838.832 196.027 835.173 196.921C834.676 197.047 834.143 197.002 833.664 196.813C832.49 196.343 830.322 195.286 830.322 193.795V126.056C830.322 126.056 829.87 124.068 833.61 122.731Z" stroke="#FF6308" stroke-miterlimit="10"/>
<path d="M787.563 123.655C788.132 123.673 788.674 123.908 789.089 124.297C790.002 125.155 791.447 126.854 790.941 128.606C790.21 131.109 762.673 196.002 762.673 196.002C762.673 196.002 761.86 198.441 758.111 197.917C757.596 197.845 757.135 197.601 756.765 197.222C755.87 196.3 754.316 194.412 754.931 192.93C755.78 190.898 783.136 125.679 783.136 125.679C783.136 125.679 783.551 123.529 787.554 123.655H787.563Z" stroke="#FF6308" stroke-miterlimit="10"/>
<path d="M785.9 123.872C785.331 123.89 784.789 124.125 784.373 124.513C783.461 125.371 782.015 127.07 782.521 128.823C783.253 131.325 810.79 196.218 810.79 196.218C810.79 196.218 811.603 198.658 815.352 198.134C815.867 198.061 816.328 197.817 816.698 197.438C817.592 196.516 819.146 194.628 818.532 193.147C817.683 191.114 790.327 125.895 790.327 125.895C790.327 125.895 789.911 123.745 785.909 123.872H785.9Z" stroke="#FF6308" stroke-miterlimit="10"/>
<path d="M786.85 131.461C789.3 131.461 791.286 129.475 791.286 127.025C791.286 124.575 789.3 122.589 786.85 122.589C784.4 122.589 782.414 124.575 782.414 127.025C782.414 129.475 784.4 131.461 786.85 131.461Z" fill="#FF6308"/>
<path d="M479.983 134.261C477.064 127.197 470.171 122.589 462.528 122.589H457.243C449.6 122.589 442.707 127.197 439.789 134.261L432.318 152.357C430.411 156.974 430.411 162.159 432.318 166.776L439.789 184.871C442.707 191.936 449.6 196.544 457.243 196.544H462.528C470.171 196.544 477.064 191.936 479.983 184.871" stroke="#FF6308" stroke-miterlimit="10"/>
<path d="M479.984 137.929C481.85 137.929 483.362 136.416 483.362 134.55C483.362 132.684 481.85 131.171 479.984 131.171C478.118 131.171 476.605 132.684 476.605 134.55C476.605 136.416 478.118 137.929 479.984 137.929Z" fill="#FF6308"/>
<path d="M542.109 144.861V174.304C542.109 177.854 540.564 181.233 537.872 183.546L525.965 193.818C521.71 197.495 515.395 197.495 511.14 193.818L499.232 183.546C496.54 181.224 494.995 177.854 494.995 174.304V144.861C494.995 141.31 496.54 137.932 499.232 135.619L511.14 125.347C515.395 121.67 521.71 121.67 525.965 125.347L537.872 135.619C540.564 137.941 542.109 141.31 542.109 144.861Z" stroke="#FF6308" stroke-miterlimit="10"/>
<path d="M495.004 159.587H542.109" stroke="#FF6308" stroke-miterlimit="10"/>
<path d="M518.556 162.966C520.422 162.966 521.935 161.453 521.935 159.587C521.935 157.721 520.422 156.208 518.556 156.208C516.69 156.208 515.177 157.721 515.177 159.587C515.177 161.453 516.69 162.966 518.556 162.966Z" fill="#FF6308"/>
<path d="M168.306 242.18C168.839 241.99 169.426 241.99 169.968 242.18C171.142 242.586 173.139 243.526 173.338 245.206C173.627 247.618 173.338 313.09 173.338 313.09C173.338 313.09 173.527 315.475 169.869 316.369C169.372 316.496 168.839 316.451 168.36 316.261C167.185 315.791 165.017 314.734 165.017 313.243V245.504C165.017 245.504 164.565 243.517 168.306 242.18Z" stroke="#FF6308" stroke-miterlimit="10"/>
<path d="M172.516 243.734L193.331 268.262" stroke="#FF6308" stroke-miterlimit="10"/>
<path d="M219.656 242.053C219.123 241.864 218.535 241.864 217.993 242.053C216.819 242.46 214.822 243.399 214.624 245.08C214.334 247.492 214.624 312.963 214.624 312.963C214.624 312.963 214.434 315.348 218.093 316.243C218.59 316.369 219.123 316.324 219.601 316.134C220.776 315.665 222.944 314.608 222.944 313.117V245.378C222.944 245.378 223.396 243.39 219.656 242.053Z" stroke="#FF6308" stroke-miterlimit="10"/>
<path d="M215.447 243.608L194.632 268.136" stroke="#FF6308" stroke-miterlimit="10"/>
<path d="M193.736 271.216C195.602 271.216 197.115 269.703 197.115 267.837C197.115 265.971 195.602 264.458 193.736 264.458C191.87 264.458 190.357 265.971 190.357 267.837C190.357 269.703 191.87 271.216 193.736 271.216Z" fill="#FF6308"/>
<path d="M270.122 316.183H249.894C247.455 316.183 245.133 315.117 243.543 313.274L236.487 305.098C233.967 302.171 233.967 297.834 236.487 294.907L243.543 286.731C245.133 284.879 247.455 283.822 249.894 283.822H270.122C272.561 283.822 274.883 284.888 276.473 286.731L283.529 294.907C286.049 297.834 286.049 302.171 283.529 305.098L276.473 313.274C274.883 315.126 272.561 316.183 270.122 316.183Z" stroke="#FF6308" stroke-miterlimit="10"/>
<path d="M248.702 241.306V315.767" stroke="#FF6308" stroke-miterlimit="10"/>
<path d="M289.89 316.842V242.381" stroke="#FF6308" stroke-miterlimit="10"/>
<path d="M248.7 319.146C250.566 319.146 252.078 317.633 252.078 315.767C252.078 313.901 250.566 312.388 248.7 312.388C246.833 312.388 245.321 313.901 245.321 315.767C245.321 317.633 246.833 319.146 248.7 319.146Z" fill="#FF6308"/>
<path d="M289.889 245.76C291.756 245.76 293.268 244.247 293.268 242.381C293.268 240.515 291.756 239.003 289.889 239.003C288.023 239.003 286.511 240.515 286.511 242.381C286.511 244.247 288.023 245.76 289.889 245.76Z" fill="#FF6308"/>
<path d="M416.344 293.365H442.924" stroke="#FF6308" stroke-miterlimit="10"/>
<path d="M443.985 296.727C445.842 296.727 447.347 295.221 447.347 293.365C447.347 291.508 445.842 290.003 443.985 290.003C442.128 290.003 440.623 291.508 440.623 293.365C440.623 295.221 442.128 296.727 443.985 296.727Z" fill="#FF6308"/>
<path d="M414.771 296.727C416.628 296.727 418.133 295.222 418.133 293.365C418.133 291.508 416.628 290.003 414.771 290.003C412.915 290.003 411.41 291.508 411.41 293.365C411.41 295.222 412.915 296.727 414.771 296.727Z" fill="#FF6308"/>
<path d="M430.457 242.604C431.023 242.622 431.563 242.856 431.976 243.242C432.884 244.096 434.322 245.786 433.819 247.53C433.091 250.02 405.693 314.588 405.693 314.588C405.693 314.588 404.884 317.015 401.153 316.493C400.641 316.421 400.182 316.179 399.814 315.801C398.924 314.884 397.378 313.006 397.989 311.531C398.834 309.509 426.053 244.618 426.053 244.618C426.053 244.618 426.466 242.478 430.448 242.604H430.457Z" stroke="#FF6308" stroke-miterlimit="10"/>
<path d="M429.756 250.379C432.194 250.379 434.17 248.403 434.17 245.966C434.17 243.528 432.194 241.552 429.756 241.552C427.318 241.552 425.342 243.528 425.342 245.966C425.342 248.403 427.318 250.379 429.756 250.379Z" fill="#FF6308"/>
<path d="M581.959 260.122L535.846 313.975" stroke="#FF6308" stroke-miterlimit="10"/>
<path d="M582.687 262.674C584.544 262.674 586.049 261.169 586.049 259.312C586.049 257.455 584.544 255.95 582.687 255.95C580.83 255.95 579.325 257.455 579.325 259.312C579.325 261.169 580.83 262.674 582.687 262.674Z" fill="#FF6308"/>
<path d="M531.459 241.694C531.99 241.505 532.574 241.505 533.113 241.694C534.282 242.098 536.268 243.033 536.466 244.705C536.754 247.105 536.466 312.248 536.466 312.248C536.466 312.248 536.655 314.621 533.014 315.511C532.52 315.637 531.99 315.592 531.513 315.403C530.345 314.936 528.187 313.884 528.187 312.401V245.002C528.187 245.002 527.738 243.024 531.459 241.694Z" stroke="#FF6308" stroke-miterlimit="10"/>
<path d="M462.211 241.82C462.742 241.631 463.326 241.631 463.865 241.82C465.034 242.224 467.02 243.159 467.218 244.831C467.506 247.231 467.218 312.374 467.218 312.374C467.218 312.374 467.407 314.747 463.766 315.637C463.272 315.763 462.742 315.718 462.265 315.529C461.097 315.062 458.939 314.01 458.939 312.527V245.128C458.939 245.128 458.49 243.15 462.211 241.82Z" stroke="#FF6308" stroke-miterlimit="10"/>
<path d="M466.4 243.366L487.11 267.771" stroke="#FF6308" stroke-miterlimit="10"/>
<path d="M513.305 241.694C512.774 241.505 512.19 241.505 511.651 241.694C510.482 242.098 508.496 243.033 508.298 244.705C508.01 247.105 508.298 312.248 508.298 312.248C508.298 312.248 508.109 314.621 511.749 315.511C512.244 315.637 512.774 315.592 513.251 315.403C514.419 314.936 516.577 313.884 516.577 312.401V245.002C516.577 245.002 517.026 243.024 513.305 241.694Z" stroke="#FF6308" stroke-miterlimit="10"/>
<path d="M509.115 243.24L488.405 267.645" stroke="#FF6308" stroke-miterlimit="10"/>
<path d="M487.515 270.71C489.372 270.71 490.877 269.205 490.877 267.348C490.877 265.491 489.372 263.986 487.515 263.986C485.658 263.986 484.153 265.491 484.153 267.348C484.153 269.205 485.658 270.71 487.515 270.71Z" fill="#FF6308"/>
<path d="M382.912 253.166C380.008 246.137 373.15 241.552 365.545 241.552H360.286C352.682 241.552 345.823 246.137 342.92 253.166L335.486 271.171C333.589 275.764 333.589 280.924 335.486 285.517L342.92 303.522C345.823 310.552 352.682 315.136 360.286 315.136H365.545C373.15 315.136 380.008 310.552 382.912 303.522" stroke="#FF6308" stroke-miterlimit="10"/>
<path d="M382.911 256.815C384.768 256.815 386.273 255.31 386.273 253.453C386.273 251.597 384.768 250.092 382.911 250.092C381.055 250.092 379.55 251.597 379.55 253.453C379.55 255.31 381.055 256.815 382.911 256.815Z" fill="#FF6308"/>
</svg>
