<svg width="1190" height="564" viewBox="0 0 1190 564" fill="none" xmlns="http://www.w3.org/2000/svg">
<path d="M333.021 212.857H290.478C288.995 212.857 287.511 212.603 286.106 212.096L279.947 209.893C274.956 208.105 274.956 200.861 279.947 199.073L286.308 196.801C287.578 196.351 288.916 196.12 290.254 196.12H333.021C334.381 196.12 335.741 196.351 337.033 196.812L343.642 199.177C348.543 200.93 348.543 208.047 343.642 209.8L337.033 212.165C335.741 212.626 334.392 212.857 333.021 212.857Z" stroke="#FF6308" stroke-width="1.04588" stroke-miterlimit="10"/>
<path d="M276.204 204.494V291.686" stroke="#FF6308" stroke-width="1.04588" stroke-miterlimit="10"/>
<path d="M276.204 296C278.526 296 280.408 294.068 280.408 291.686C280.408 289.303 278.526 287.372 276.204 287.372C273.883 287.372 272 289.303 272 291.686C272 294.068 273.883 296 276.204 296Z" fill="#FF6308"/>
<path d="M347.318 204.494V291.686" stroke="#FF6308" stroke-width="1.04588" stroke-miterlimit="10"/>
<path d="M424.137 195.522H393.127C390.148 195.522 387.294 196.733 385.18 198.901L375.717 208.602C371.625 212.789 371.625 219.595 375.717 223.782L385.18 233.483C387.294 235.64 390.148 236.863 393.127 236.863H424.137C427.116 236.863 429.971 235.651 432.084 233.483L441.548 223.782C445.639 219.595 445.639 212.789 441.548 208.602L432.084 198.901C429.971 196.744 427.116 195.522 424.137 195.522Z" stroke="#FF6308" stroke-width="1.04588" stroke-miterlimit="10"/>
<path d="M389.766 291.122V196.052" stroke="#FF6308" stroke-width="1.04588" stroke-miterlimit="10"/>
<path d="M389.766 200.366C392.088 200.366 393.97 198.435 393.97 196.052C393.97 193.67 392.088 191.738 389.766 191.738C387.445 191.738 385.562 193.67 385.562 196.052C385.562 198.435 387.445 200.366 389.766 200.366Z" fill="#FF6308"/>
<path d="M528.561 224.556V262.148C528.561 266.681 526.639 270.995 523.29 273.948L508.476 287.063C503.182 291.758 495.325 291.758 490.031 287.063L475.217 273.948C471.868 270.984 469.946 266.681 469.946 262.148V224.556C469.946 220.023 471.868 215.709 475.217 212.756L490.031 199.641C495.325 194.946 503.182 194.946 508.476 199.641L523.29 212.756C526.639 215.72 528.561 220.023 528.561 224.556Z" stroke="#FF6308" stroke-width="1.04588" stroke-miterlimit="10"/>
<path d="M469.957 243.358H528.561" stroke="#FF6308" stroke-width="1.04588" stroke-miterlimit="10"/>
<path d="M499.258 247.672C501.58 247.672 503.462 245.74 503.462 243.358C503.462 240.975 501.58 239.044 499.258 239.044C496.937 239.044 495.055 240.975 495.055 243.358C495.055 245.74 496.937 247.672 499.258 247.672Z" fill="#FF6308"/>
<path d="M558.003 196.463C558.666 196.221 559.396 196.221 560.071 196.463C561.532 196.982 564.016 198.182 564.263 200.328C564.623 203.407 564.263 287 564.263 287C564.263 287 564.499 290.045 559.947 291.187C559.329 291.349 558.666 291.291 558.07 291.049C556.609 290.449 553.911 289.1 553.911 287.196V200.708C553.911 200.708 553.349 198.171 558.003 196.463Z" stroke="#FF6308" stroke-width="1.04588" stroke-miterlimit="10"/>
<path d="M563.241 198.448L589.137 229.765" stroke="#FF6308" stroke-width="1.04588" stroke-miterlimit="10"/>
<path d="M621.889 196.302C621.226 196.06 620.496 196.06 619.821 196.302C618.36 196.821 615.876 198.021 615.629 200.166C615.269 203.246 615.629 286.839 615.629 286.839C615.629 286.839 615.393 289.884 619.945 291.026C620.563 291.187 621.226 291.13 621.822 290.888C623.283 290.288 625.981 288.938 625.981 287.035V200.547C625.981 200.547 626.543 198.009 621.889 196.302Z" stroke="#FF6308" stroke-width="1.04588" stroke-miterlimit="10"/>
<path d="M616.652 198.286L590.755 229.603" stroke="#FF6308" stroke-width="1.04588" stroke-miterlimit="10"/>
<path d="M589.643 233.536C591.965 233.536 593.847 231.605 593.847 229.222C593.847 226.839 591.965 224.908 589.643 224.908C587.322 224.908 585.439 226.839 585.439 229.222C585.439 231.605 587.322 233.536 589.643 233.536Z" fill="#FF6308"/>
<path d="M702.384 211H665.36C663.798 211 662.247 210.701 660.786 210.112L654.683 207.655C650.232 205.867 650.232 199.408 654.683 197.609L660.999 195.071C662.314 194.54 663.719 194.263 665.136 194.263H702.395C703.834 194.263 705.25 194.54 706.588 195.082L713.107 197.701C717.479 199.454 717.479 205.81 713.107 207.563L706.588 210.181C705.25 210.724 703.834 211 702.395 211H702.384Z" stroke="#FF6308" stroke-width="1.04588" stroke-miterlimit="10"/>
<path d="M702.384 290.359H665.361C663.798 290.359 662.247 290.059 660.786 289.471L654.683 287.014C650.232 285.226 650.232 278.767 654.683 276.967L661 274.43C662.315 273.899 663.72 273.622 665.136 273.622H702.396C703.834 273.622 705.25 273.899 706.588 274.441L713.107 277.06C717.479 278.813 717.479 285.169 713.107 286.922L706.588 289.54C705.25 290.083 703.834 290.359 702.396 290.359H702.384Z" stroke="#FF6308" stroke-width="1.04588" stroke-miterlimit="10"/>
<path d="M651.333 202.626V282.148" stroke="#FF6308" stroke-width="1.04588" stroke-miterlimit="10"/>
<path d="M719.986 242.825H651.333" stroke="#FF6308" stroke-width="1.04588" stroke-miterlimit="10"/>
<path d="M719.985 247.139C722.307 247.139 724.189 245.208 724.189 242.825C724.189 240.443 722.307 238.511 719.985 238.511C717.664 238.511 715.781 240.443 715.781 242.825C715.781 245.208 717.664 247.139 719.985 247.139Z" fill="#FF6308"/>
<path d="M897.015 211.762H859.992C858.429 211.762 856.878 211.462 855.417 210.874L849.314 208.417C844.863 206.629 844.863 200.169 849.314 198.37L855.631 195.832C856.946 195.301 858.351 195.025 859.767 195.025H897.026C898.465 195.025 899.881 195.301 901.219 195.844L907.738 198.462C912.11 200.215 912.11 206.571 907.738 208.324L901.219 210.943C899.881 211.485 898.465 211.762 897.026 211.762H897.015Z" stroke="#FF6308" stroke-width="1.04588" stroke-miterlimit="10"/>
<path d="M897.016 291.122H859.992C858.43 291.122 856.879 290.822 855.417 290.233L849.314 287.776C844.863 285.989 844.863 279.529 849.314 277.73L855.631 275.192C856.946 274.661 858.351 274.385 859.767 274.385H897.027C898.466 274.385 899.882 274.661 901.219 275.203L907.738 277.822C912.111 279.575 912.111 285.931 907.738 287.684L901.219 290.303C899.882 290.845 898.466 291.122 897.027 291.122H897.016Z" stroke="#FF6308" stroke-width="1.04588" stroke-miterlimit="10"/>
<path d="M845.965 203.387V282.908" stroke="#FF6308" stroke-width="1.04588" stroke-miterlimit="10"/>
<path d="M914.617 243.586H845.965" stroke="#FF6308" stroke-width="1.04588" stroke-miterlimit="10"/>
<path d="M914.616 247.901C916.938 247.901 918.82 245.969 918.82 243.587C918.82 241.204 916.938 239.273 914.616 239.273C912.295 239.273 910.413 241.204 910.413 243.587C910.413 245.969 912.295 247.901 914.616 247.901Z" fill="#FF6308"/>
<path d="M806.337 212.096H763.794C762.311 212.096 760.827 211.842 759.422 211.334L753.263 209.131C748.272 207.343 748.272 200.099 753.263 198.312L759.625 196.039C760.895 195.589 762.232 195.359 763.57 195.359H806.337C807.697 195.359 809.057 195.589 810.349 196.051L816.958 198.415C821.859 200.169 821.859 207.286 816.958 209.039L810.349 211.404C809.057 211.865 807.708 212.096 806.337 212.096Z" stroke="#FF6308" stroke-width="1.04588" stroke-miterlimit="10"/>
<path d="M785.071 195.497V290.925" stroke="#FF6308" stroke-width="1.04588" stroke-miterlimit="10"/>
<path d="M785.071 216.409C787.392 216.409 789.275 214.478 789.275 212.095C789.275 209.713 787.392 207.781 785.071 207.781C782.749 207.781 780.867 209.713 780.867 212.095C780.867 214.478 782.749 216.409 785.071 216.409Z" fill="#FF6308"/>
<path d="M982.566 195.891C984.887 195.891 986.769 193.96 986.769 191.577C986.769 189.195 984.887 187.263 982.566 187.263C980.244 187.263 978.362 189.195 978.362 191.577C978.362 193.96 980.244 195.891 982.566 195.891Z" fill="#FF6308"/>
<path d="M1011.4 220.011L953.737 289.116" stroke="#FF6308" stroke-width="1.04588" stroke-miterlimit="10"/>
<path d="M1012.31 223.286C1014.63 223.286 1016.51 221.355 1016.51 218.972C1016.51 216.59 1014.63 214.658 1012.31 214.658C1009.98 214.658 1008.1 216.59 1008.1 218.972C1008.1 221.355 1009.98 223.286 1012.31 223.286Z" fill="#FF6308"/>
<path d="M948.262 196.364C948.926 196.122 949.656 196.122 950.331 196.364C951.792 196.883 954.276 198.083 954.523 200.228C954.883 203.308 954.523 286.901 954.523 286.901C954.523 286.901 954.759 289.946 950.207 291.088C949.589 291.25 948.926 291.192 948.33 290.95C946.869 290.35 944.171 289 944.171 287.097V200.609C944.171 200.609 943.609 198.071 948.262 196.364Z" stroke="#FF6308" stroke-width="1.04588" stroke-miterlimit="10"/>
<path d="M789.198 314.223V380.509" stroke="#FFECDE" stroke-miterlimit="10"/>
<path d="M789.198 383.481C790.84 383.481 792.171 382.15 792.171 380.509C792.171 378.867 790.84 377.536 789.198 377.536C787.556 377.536 786.225 378.867 786.225 380.509C786.225 382.15 787.556 383.481 789.198 383.481Z" fill="#FFECDE"/>
<path d="M818.299 325.518H790.255C789.174 325.518 788.101 325.327 787.092 324.954L782.744 323.348C779.413 322.116 779.413 317.402 782.744 316.17L787.243 314.509C788.157 314.167 789.126 314 790.104 314H818.307C819.3 314 820.278 314.175 821.208 314.517L825.858 316.242C829.133 317.45 829.133 322.084 825.858 323.292L821.208 325.017C820.278 325.359 819.3 325.534 818.307 325.534L818.299 325.518Z" stroke="#FFECDE" stroke-miterlimit="10"/>
<path d="M988.532 316.552H969.749C967.944 316.552 966.211 317.267 964.932 318.547L959.2 324.27C956.72 326.742 956.72 330.757 959.2 333.229L964.932 338.952C966.211 340.224 967.936 340.947 969.749 340.947H988.532C990.336 340.947 992.069 340.232 993.349 338.952L999.08 333.229C1001.56 330.757 1001.56 326.742 999.08 324.27L993.349 318.547C992.069 317.275 990.344 316.552 988.532 316.552Z" stroke="#FFECDE" stroke-miterlimit="10"/>
<path d="M990.105 354.015H968.174C966.068 354.015 964.049 354.85 962.554 356.344L955.861 363.029C952.968 365.914 952.968 370.604 955.861 373.49L962.554 380.175C964.049 381.661 966.068 382.504 968.174 382.504H990.105C992.212 382.504 994.231 381.669 995.725 380.175L1002.42 373.49C1005.31 370.604 1005.31 365.914 1002.42 363.029L995.725 356.344C994.231 354.858 992.212 354.015 990.105 354.015Z" stroke="#FFECDE" stroke-miterlimit="10"/>
<path d="M965.798 382.488V316.973" stroke="#FFECDE" stroke-miterlimit="10"/>
<path d="M965.798 319.946C967.44 319.946 968.771 318.615 968.771 316.973C968.771 315.331 967.44 314 965.798 314C964.156 314 962.825 315.331 962.825 316.973C962.825 318.615 964.156 319.946 965.798 319.946Z" fill="#FFECDE"/>
<path d="M916.039 361.097H939.544" stroke="#FFECDE" stroke-miterlimit="10"/>
<path d="M940.481 364.07C942.123 364.07 943.454 362.739 943.454 361.097C943.454 359.456 942.123 358.125 940.481 358.125C938.84 358.125 937.509 359.456 937.509 361.097C937.509 362.739 938.84 364.07 940.481 364.07Z" fill="#FFECDE"/>
<path d="M914.648 364.07C916.29 364.07 917.621 362.739 917.621 361.097C917.621 359.456 916.29 358.125 914.648 358.125C913.006 358.125 911.675 359.456 911.675 361.097C911.675 362.739 913.006 364.07 914.648 364.07Z" fill="#FFECDE"/>
<path d="M928.519 316.21C929.019 316.225 929.496 316.432 929.862 316.774C930.665 317.529 931.937 319.023 931.491 320.566C930.848 322.767 906.619 379.864 906.619 379.864C906.619 379.864 905.904 382.01 902.605 381.549C902.152 381.486 901.747 381.271 901.421 380.937C900.634 380.126 899.267 378.465 899.807 377.162C900.554 375.373 924.624 317.99 924.624 317.99C924.624 317.99 924.989 316.098 928.511 316.21H928.519Z" stroke="#FFECDE" stroke-miterlimit="10"/>
<path d="M927.899 323.086C930.054 323.086 931.802 321.338 931.802 319.183C931.802 317.027 930.054 315.28 927.899 315.28C925.743 315.28 923.996 317.027 923.996 319.183C923.996 321.338 925.743 323.086 927.899 323.086Z" fill="#FFECDE"/>
<path d="M1153.13 361.097H1176.63" stroke="#FFECDE" stroke-miterlimit="10"/>
<path d="M1177.57 364.07C1179.21 364.07 1180.54 362.739 1180.54 361.097C1180.54 359.456 1179.21 358.125 1177.57 358.125C1175.93 358.125 1174.6 359.456 1174.6 361.097C1174.6 362.739 1175.93 364.07 1177.57 364.07Z" fill="#FFECDE"/>
<path d="M1151.74 364.07C1153.38 364.07 1154.71 362.739 1154.71 361.097C1154.71 359.456 1153.38 358.125 1151.74 358.125C1150.09 358.125 1148.76 359.456 1148.76 361.097C1148.76 362.739 1150.09 364.07 1151.74 364.07Z" fill="#FFECDE"/>
<path d="M1165.61 316.21C1166.11 316.225 1166.58 316.432 1166.95 316.774C1167.75 317.529 1169.02 319.023 1168.58 320.566C1167.94 322.767 1143.71 379.864 1143.71 379.864C1143.71 379.864 1142.99 382.01 1139.69 381.549C1139.24 381.486 1138.84 381.271 1138.51 380.937C1137.72 380.126 1136.36 378.465 1136.9 377.162C1137.64 375.373 1161.71 317.99 1161.71 317.99C1161.71 317.99 1162.08 316.098 1165.6 316.21H1165.61Z" stroke="#FFECDE" stroke-miterlimit="10"/>
<path d="M1164.99 323.086C1167.14 323.086 1168.89 321.338 1168.89 319.183C1168.89 317.027 1167.14 315.28 1164.99 315.28C1162.83 315.28 1161.08 317.027 1161.08 319.183C1161.08 321.338 1162.83 323.086 1164.99 323.086Z" fill="#FFECDE"/>
<path d="M1062.39 332.98L1021.61 380.602" stroke="#FFECDE" stroke-miterlimit="10"/>
<path d="M1063.03 335.238C1064.68 335.238 1066.01 333.906 1066.01 332.265C1066.01 330.623 1064.68 329.292 1063.03 329.292C1061.39 329.292 1060.06 330.623 1060.06 332.265C1060.06 333.906 1061.39 335.238 1063.03 335.238Z" fill="#FFECDE"/>
<path d="M1017.73 316.685C1018.2 316.518 1018.72 316.518 1019.2 316.685C1020.23 317.042 1021.99 317.869 1022.16 319.347C1022.42 321.47 1022.16 379.075 1022.16 379.075C1022.16 379.075 1022.33 381.174 1019.11 381.961C1018.67 382.072 1018.2 382.032 1017.78 381.865C1016.75 381.452 1014.84 380.522 1014.84 379.21V319.61C1014.84 319.61 1014.44 317.861 1017.73 316.685Z" stroke="#FFECDE" stroke-miterlimit="10"/>
<path d="M874.963 316.608H853.032C850.926 316.608 848.907 317.443 847.413 318.937L840.72 325.622C837.826 328.508 837.826 333.197 840.72 336.083L847.413 342.768C848.907 344.254 850.926 345.097 853.032 345.097H874.963C877.07 345.097 879.089 344.262 880.583 342.768L887.276 336.083C890.17 333.197 890.17 328.508 887.276 325.622L880.583 318.937C879.089 317.451 877.07 316.608 874.963 316.608Z" stroke="#FFECDE" stroke-miterlimit="10"/>
<path d="M850.656 382.488V316.974" stroke="#FFECDE" stroke-miterlimit="10"/>
<path d="M850.656 319.947C852.298 319.947 853.629 318.616 853.629 316.974C853.629 315.332 852.298 314.001 850.656 314.001C849.014 314.001 847.683 315.332 847.683 316.974C847.683 318.616 849.014 319.947 850.656 319.947Z" fill="#FFECDE"/>
<path d="M1116.42 326.814H1086.34C1085.29 326.814 1084.24 326.639 1083.25 326.289L1078.89 324.771C1075.36 323.539 1075.36 318.547 1078.89 317.315L1083.39 315.749C1084.29 315.439 1085.23 315.28 1086.18 315.28H1116.42C1117.39 315.28 1118.35 315.439 1119.26 315.757L1123.94 317.386C1127.4 318.594 1127.4 323.499 1123.94 324.707L1119.26 326.337C1118.35 326.655 1117.39 326.814 1116.42 326.814Z" stroke="#FFECDE" stroke-miterlimit="10"/>
<path d="M1101.39 315.375V381.137" stroke="#FFECDE" stroke-miterlimit="10"/>
<path d="M1101.38 329.787C1103.03 329.787 1104.36 328.456 1104.36 326.814C1104.36 325.172 1103.03 323.841 1101.38 323.841C1099.74 323.841 1098.41 325.172 1098.41 326.814C1098.41 328.456 1099.74 329.787 1101.38 329.787Z" fill="#FFECDE"/>
<path d="M1227.19 351.591H1205.26C1203.16 351.591 1201.14 352.426 1199.64 353.92L1192.95 360.605C1190.06 363.491 1190.06 368.18 1192.95 371.066L1199.64 377.751C1201.14 379.237 1203.16 380.08 1205.26 380.08H1227.19C1229.3 380.08 1231.32 379.245 1232.81 377.751L1239.51 371.066C1242.4 368.18 1242.4 363.491 1239.51 360.605L1232.81 353.92C1231.32 352.434 1229.3 351.591 1227.19 351.591Z" stroke="#FFECDE" stroke-miterlimit="10"/>
<path d="M416.596 319.111H397.812C396.008 319.111 394.275 319.827 392.995 321.106L387.264 326.83C384.784 329.302 384.784 333.316 387.264 335.788L392.995 341.511C394.275 342.783 396 343.506 397.812 343.506H416.596C418.4 343.506 420.133 342.791 421.413 341.511L427.144 335.788C429.624 333.316 429.624 329.302 427.144 326.83L421.413 321.106C420.133 319.835 418.408 319.111 416.596 319.111Z" stroke="#FFECDE" stroke-miterlimit="10"/>
<path d="M418.169 356.574H396.238C394.132 356.574 392.113 357.409 390.618 358.903L383.925 365.588C381.032 368.474 381.032 373.164 383.925 376.049L390.618 382.734C392.113 384.221 394.132 385.063 396.238 385.063H418.169C420.276 385.063 422.295 384.228 423.789 382.734L430.482 376.049C433.375 373.164 433.375 368.474 430.482 365.588L423.789 358.903C422.295 357.417 420.276 356.574 418.169 356.574Z" stroke="#FFECDE" stroke-miterlimit="10"/>
<path d="M393.862 385.048V319.533" stroke="#FFECDE" stroke-miterlimit="10"/>
<path d="M393.862 322.506C395.504 322.506 396.835 321.175 396.835 319.533C396.835 317.891 395.504 316.56 393.862 316.56C392.22 316.56 390.889 317.891 390.889 319.533C390.889 321.175 392.22 322.506 393.862 322.506Z" fill="#FFECDE"/>
<path d="M649.914 362.377H673.419" stroke="#FFECDE" stroke-miterlimit="10"/>
<path d="M674.357 365.35C675.999 365.35 677.33 364.019 677.33 362.377C677.33 360.735 675.999 359.404 674.357 359.404C672.715 359.404 671.384 360.735 671.384 362.377C671.384 364.019 672.715 365.35 674.357 365.35Z" fill="#FFECDE"/>
<path d="M648.523 365.35C650.165 365.35 651.496 364.019 651.496 362.377C651.496 360.735 650.165 359.404 648.523 359.404C646.881 359.404 645.55 360.735 645.55 362.377C645.55 364.019 646.881 365.35 648.523 365.35Z" fill="#FFECDE"/>
<path d="M662.394 317.49C662.895 317.506 663.372 317.712 663.737 318.054C664.54 318.809 665.812 320.304 665.367 321.846C664.723 324.048 640.495 381.144 640.495 381.144C640.495 381.144 639.78 383.291 636.481 382.83C636.028 382.766 635.622 382.551 635.296 382.218C634.509 381.407 633.142 379.745 633.683 378.442C634.43 376.653 658.499 319.27 658.499 319.27C658.499 319.27 658.865 317.379 662.386 317.49H662.394Z" stroke="#FFECDE" stroke-miterlimit="10"/>
<path d="M661.774 324.365C663.93 324.365 665.677 322.618 665.677 320.462C665.677 318.307 663.93 316.559 661.774 316.559C659.618 316.559 657.871 318.307 657.871 320.462C657.871 322.618 659.618 324.365 661.774 324.365Z" fill="#FFECDE"/>
<path d="M478.993 328.093H452.809C451.704 328.093 450.607 327.886 449.574 327.481L445.258 325.788C442.11 324.556 442.11 320.105 445.258 318.864L449.725 317.116C450.655 316.75 451.649 316.559 452.65 316.559H479.001C480.018 316.559 481.02 316.75 481.966 317.124L486.576 318.928C489.668 320.136 489.668 324.516 486.576 325.724L481.966 327.529C481.02 327.902 480.018 328.093 479.001 328.093H478.993Z" stroke="#FFECDE" stroke-miterlimit="10"/>
<path d="M478.993 382.781H452.809C451.704 382.781 450.607 382.575 449.574 382.169L445.258 380.476C442.11 379.244 442.11 374.793 445.258 373.553L449.725 371.804C450.655 371.438 451.649 371.247 452.65 371.247H479.001C480.018 371.247 481.02 371.438 481.966 371.812L486.576 373.616C489.668 374.824 489.668 379.204 486.576 380.412L481.966 382.217C481.02 382.59 480.018 382.781 479.001 382.781H478.993Z" stroke="#FFECDE" stroke-miterlimit="10"/>
<path d="M442.889 322.322V377.122" stroke="#FFECDE" stroke-miterlimit="10"/>
<path d="M491.44 350.024H442.889" stroke="#FFECDE" stroke-miterlimit="10"/>
<path d="M491.441 352.997C493.083 352.997 494.414 351.666 494.414 350.024C494.414 348.383 493.083 347.052 491.441 347.052C489.799 347.052 488.468 348.383 488.468 350.024C488.468 351.666 489.799 352.997 491.441 352.997Z" fill="#FFECDE"/>
<path d="M41.566 334.259L0.78833 381.881" stroke="#FFECDE" stroke-miterlimit="10"/>
<path d="M42.2097 336.516C43.8516 336.516 45.1826 335.185 45.1826 333.543C45.1826 331.902 43.8516 330.571 42.2097 330.571C40.5678 330.571 39.2368 331.902 39.2368 333.543C39.2368 335.185 40.5678 336.516 42.2097 336.516Z" fill="#FFECDE"/>
<path d="M-3.09132 317.964C-2.62234 317.797 -2.10567 317.797 -1.62873 317.964C-0.59538 318.322 1.16132 319.148 1.33619 320.627C1.59056 322.749 1.33619 380.355 1.33619 380.355C1.33619 380.355 1.50312 382.453 -1.71617 383.24C-2.15336 383.351 -2.62234 383.312 -3.04363 383.145C-4.07698 382.731 -5.98471 381.801 -5.98471 380.49V320.889C-5.98471 320.889 -6.38216 319.14 -3.09132 317.964Z" stroke="#FFECDE" stroke-miterlimit="10"/>
<path d="M119.311 330.038L160.963 379.139" stroke="#FFECDE" stroke-miterlimit="10"/>
<path d="M160.963 382.111C162.605 382.111 163.936 380.78 163.936 379.139C163.936 377.497 162.605 376.166 160.963 376.166C159.321 376.166 157.99 377.497 157.99 379.139C157.99 380.78 159.321 382.111 160.963 382.111Z" fill="#FFECDE"/>
<path d="M114.733 317.964C115.202 317.797 115.718 317.797 116.195 317.964C117.229 318.322 118.985 319.148 119.16 320.627C119.415 322.749 119.16 380.355 119.16 380.355C119.16 380.355 119.327 382.453 116.108 383.24C115.671 383.351 115.202 383.312 114.78 383.145C113.747 382.731 111.839 381.801 111.839 380.49V320.889C111.839 320.889 111.442 319.14 114.733 317.964Z" stroke="#FFECDE" stroke-miterlimit="10"/>
<path d="M118.962 371.865L160.964 322.415" stroke="#FFECDE" stroke-miterlimit="10"/>
<path d="M160.963 325.388C162.605 325.388 163.936 324.057 163.936 322.416C163.936 320.774 162.605 319.443 160.963 319.443C159.321 319.443 157.99 320.774 157.99 322.416C157.99 324.057 159.321 325.388 160.963 325.388Z" fill="#FFECDE"/>
<path d="M620.415 318.873C619.946 318.706 619.429 318.706 618.952 318.873C617.919 319.23 616.162 320.057 615.988 321.535C615.733 323.658 615.988 381.263 615.988 381.263C615.988 381.263 615.821 383.362 619.04 384.149C619.477 384.26 619.946 384.22 620.367 384.053C621.401 383.64 623.308 382.71 623.308 381.398V321.798C623.308 321.798 623.706 320.049 620.415 318.873Z" stroke="#FFECDE" stroke-miterlimit="10"/>
<path d="M615.9 353.267H572.078" stroke="#FFECDE" stroke-miterlimit="10"/>
<path d="M572.078 384.713V318.252" stroke="#FFECDE" stroke-miterlimit="10"/>
<path d="M572.078 321.225C573.72 321.225 575.051 319.894 575.051 318.252C575.051 316.611 573.72 315.28 572.078 315.28C570.436 315.28 569.105 316.611 569.105 318.252C569.105 319.894 570.436 321.225 572.078 321.225Z" fill="#FFECDE"/>
<path d="M555.96 318.873C555.491 318.706 554.974 318.706 554.497 318.873C553.464 319.23 551.707 320.057 551.532 321.535C551.278 323.658 551.532 381.263 551.532 381.263C551.532 381.263 551.366 383.362 554.585 384.149C555.022 384.26 555.491 384.22 555.912 384.053C556.946 383.64 558.853 382.71 558.853 381.398V321.798C558.853 321.798 559.251 320.049 555.96 318.873Z" stroke="#FFECDE" stroke-miterlimit="10"/>
<path d="M551.445 353.267H507.623" stroke="#FFECDE" stroke-miterlimit="10"/>
<path d="M507.623 384.713V318.252" stroke="#FFECDE" stroke-miterlimit="10"/>
<path d="M507.623 321.225C509.265 321.225 510.596 319.894 510.596 318.252C510.596 316.611 509.265 315.28 507.623 315.28C505.981 315.28 504.65 316.611 504.65 318.252C504.65 319.894 505.981 321.225 507.623 321.225Z" fill="#FFECDE"/>
<path d="M251.611 328.109C249.044 321.893 242.979 317.839 236.254 317.839H231.604C224.879 317.839 218.814 321.893 216.247 328.109L209.673 344.03C207.996 348.092 207.996 352.655 209.673 356.717L216.247 372.638C218.814 378.854 224.879 382.908 231.604 382.908H236.254C242.979 382.908 249.044 378.854 251.611 372.638" stroke="#FFECDE" stroke-miterlimit="10"/>
<path d="M251.611 331.336C253.252 331.336 254.583 330.005 254.583 328.363C254.583 326.721 253.252 325.39 251.611 325.39C249.969 325.39 248.638 326.721 248.638 328.363C248.638 330.005 249.969 331.336 251.611 331.336Z" fill="#FFECDE"/>
<path d="M308.016 328.109C305.449 321.893 299.384 317.839 292.659 317.839H288.009C281.284 317.839 275.219 321.893 272.652 328.109L266.078 344.03C264.401 348.092 264.401 352.655 266.078 356.717L272.652 372.638C275.219 378.854 281.284 382.908 288.009 382.908H292.659C299.384 382.908 305.449 378.854 308.016 372.638" stroke="#FFECDE" stroke-miterlimit="10"/>
<path d="M308.016 331.336C309.658 331.336 310.989 330.005 310.989 328.363C310.989 326.721 309.658 325.39 308.016 325.39C306.374 325.39 305.043 326.721 305.043 328.363C305.043 330.005 306.374 331.336 308.016 331.336Z" fill="#FFECDE"/>
<path d="M98.6146 328.109C96.0471 321.893 89.9821 317.839 83.2574 317.839H78.6073C71.8826 317.839 65.8176 321.893 63.2501 328.109L56.6764 344.03C54.9992 348.092 54.9992 352.655 56.6764 356.717L63.2501 372.638C65.8176 378.854 71.8826 382.908 78.6073 382.908H83.2574C89.9821 382.908 96.0471 378.854 98.6146 372.638" stroke="#FFECDE" stroke-miterlimit="10"/>
<path d="M98.6147 331.336C100.257 331.336 101.588 330.005 101.588 328.363C101.588 326.721 100.257 325.39 98.6147 325.39C96.9728 325.39 95.6418 326.721 95.6418 328.363C95.6418 330.005 96.9728 331.336 98.6147 331.336Z" fill="#FFECDE"/>
<path d="M361.408 329.372H331.321C330.272 329.372 329.223 329.198 328.229 328.848L323.873 327.33C320.344 326.098 320.344 321.106 323.873 319.874L328.372 318.308C329.27 317.998 330.216 317.839 331.162 317.839H361.408C362.369 317.839 363.331 317.998 364.245 318.316L368.919 319.945C372.385 321.153 372.385 326.058 368.919 327.266L364.245 328.896C363.331 329.213 362.377 329.372 361.408 329.372Z" stroke="#FFECDE" stroke-miterlimit="10"/>
<path d="M346.368 317.934V383.695" stroke="#FFECDE" stroke-miterlimit="10"/>
<path d="M346.368 332.345C348.01 332.345 349.341 331.014 349.341 329.372C349.341 327.73 348.01 326.399 346.368 326.399C344.727 326.399 343.396 327.73 343.396 329.372C343.396 331.014 344.727 332.345 346.368 332.345Z" fill="#FFECDE"/>
<path d="M177.79 322.806L198.179 346.613" stroke="#FFECDE" stroke-miterlimit="10"/>
<path d="M177.146 325.064C178.788 325.064 180.119 323.733 180.119 322.091C180.119 320.449 178.788 319.118 177.146 319.118C175.504 319.118 174.173 320.449 174.173 322.091C174.173 323.733 175.504 325.064 177.146 325.064Z" fill="#FFECDE"/>
<path d="M734.76 316.685C735.229 316.518 735.745 316.518 736.222 316.685C737.256 317.042 739.012 317.869 739.187 319.347C739.442 321.47 739.187 379.075 739.187 379.075C739.187 379.075 739.354 381.174 736.135 381.961C735.698 382.072 735.229 382.032 734.807 381.865C733.774 381.452 731.866 380.522 731.866 379.21V319.61C731.866 319.61 731.469 317.861 734.76 316.685Z" stroke="#FFECDE" stroke-miterlimit="10"/>
<path d="M691.184 379.115L731.961 331.493" stroke="#FFECDE" stroke-miterlimit="10"/>
<path d="M690.54 382.803C692.182 382.803 693.513 381.472 693.513 379.83C693.513 378.189 692.182 376.858 690.54 376.858C688.898 376.858 687.567 378.189 687.567 379.83C687.567 381.472 688.898 382.803 690.54 382.803Z" fill="#FFECDE"/>
<path d="M719.1 317.662H700.317C698.512 317.662 696.78 318.378 695.5 319.658L689.769 325.381C687.289 327.853 687.289 331.867 689.769 334.339L695.5 340.062C696.78 341.334 698.505 342.057 700.317 342.057H719.1C720.904 342.057 722.637 341.342 723.917 340.062L729.648 334.339C732.128 331.867 732.128 327.853 729.648 325.381L723.917 319.658C722.637 318.386 720.912 317.662 719.1 317.662Z" stroke="#FFECDE" stroke-miterlimit="10"/>
<path d="M1044.93 99.3083V165.594" stroke="#FFECDE" stroke-miterlimit="10"/>
<path d="M1044.93 168.567C1046.57 168.567 1047.9 167.236 1047.9 165.594C1047.9 163.952 1046.57 162.621 1044.93 162.621C1043.29 162.621 1041.96 163.952 1041.96 165.594C1041.96 167.236 1043.29 168.567 1044.93 168.567Z" fill="#FFECDE"/>
<path d="M1074.03 110.604H1045.99C1044.91 110.604 1043.83 110.413 1042.82 110.039L1038.48 108.434C1035.15 107.202 1035.15 102.488 1038.48 101.256L1042.97 99.5947C1043.89 99.2529 1044.86 99.0859 1045.84 99.0859H1074.04C1075.03 99.0859 1076.01 99.2608 1076.94 99.6026L1081.59 101.328C1084.87 102.536 1084.87 107.17 1081.59 108.378L1076.94 110.103C1076.01 110.445 1075.03 110.62 1074.04 110.62L1074.03 110.604Z" stroke="#FFECDE" stroke-miterlimit="10"/>
<path d="M1130.39 111.899H1104.2C1103.1 111.899 1102 111.692 1100.97 111.287L1096.65 109.594C1093.5 108.362 1093.5 103.91 1096.65 102.67L1101.12 100.922C1102.05 100.556 1103.04 100.365 1104.04 100.365H1130.39C1131.41 100.365 1132.41 100.556 1133.36 100.93L1137.97 102.734C1141.06 103.942 1141.06 108.322 1137.97 109.53L1133.36 111.335C1132.41 111.708 1131.41 111.899 1130.39 111.899H1130.39Z" stroke="#FFECDE" stroke-miterlimit="10"/>
<path d="M1130.39 166.587H1104.2C1103.1 166.587 1102 166.381 1100.97 165.975L1096.65 164.282C1093.5 163.05 1093.5 158.599 1096.65 157.359L1101.12 155.61C1102.05 155.244 1103.04 155.053 1104.04 155.053H1130.39C1131.41 155.053 1132.41 155.244 1133.36 155.618L1137.97 157.422C1141.06 158.63 1141.06 163.01 1137.97 164.219L1133.36 166.023C1132.41 166.397 1131.41 166.587 1130.39 166.587H1130.39Z" stroke="#FFECDE" stroke-miterlimit="10"/>
<path d="M1094.28 106.128V160.928" stroke="#FFECDE" stroke-miterlimit="10"/>
<path d="M1142.83 133.83H1094.28" stroke="#FFECDE" stroke-miterlimit="10"/>
<path d="M1142.83 136.803C1144.48 136.803 1145.81 135.472 1145.81 133.83C1145.81 132.188 1144.48 130.857 1142.83 130.857C1141.19 130.857 1139.86 132.188 1139.86 133.83C1139.86 135.472 1141.19 136.803 1142.83 136.803Z" fill="#FFECDE"/>
<path d="M949.187 111.899H923.004C921.899 111.899 920.802 111.692 919.768 111.287L915.452 109.594C912.304 108.362 912.304 103.91 915.452 102.67L919.919 100.922C920.849 100.556 921.843 100.365 922.845 100.365H949.195C950.213 100.365 951.214 100.556 952.16 100.93L956.77 102.734C959.862 103.942 959.862 108.322 956.77 109.53L952.16 111.335C951.214 111.708 950.213 111.899 949.195 111.899H949.187Z" stroke="#FFECDE" stroke-miterlimit="10"/>
<path d="M949.187 166.587H923.004C921.899 166.587 920.802 166.381 919.768 165.975L915.452 164.282C912.304 163.05 912.304 158.599 915.452 157.359L919.919 155.61C920.849 155.244 921.843 155.053 922.845 155.053H949.195C950.213 155.053 951.214 155.244 952.16 155.618L956.77 157.422C959.862 158.63 959.862 163.01 956.77 164.219L952.16 166.023C951.214 166.397 950.213 166.587 949.195 166.587H949.187Z" stroke="#FFECDE" stroke-miterlimit="10"/>
<path d="M913.083 106.128V160.928" stroke="#FFECDE" stroke-miterlimit="10"/>
<path d="M961.635 133.83H913.083" stroke="#FFECDE" stroke-miterlimit="10"/>
<path d="M961.635 136.803C963.277 136.803 964.608 135.472 964.608 133.83C964.608 132.188 963.277 130.857 961.635 130.857C959.993 130.857 958.662 132.188 958.662 133.83C958.662 135.472 959.993 136.803 961.635 136.803Z" fill="#FFECDE"/>
<path d="M899.939 102.679C899.47 102.512 898.953 102.512 898.476 102.679C897.443 103.037 895.686 103.863 895.511 105.342C895.257 107.464 895.511 165.07 895.511 165.07C895.511 165.07 895.345 167.168 898.564 167.955C899.001 168.066 899.47 168.027 899.891 167.86C900.925 167.446 902.832 166.516 902.832 165.205V105.604C902.832 105.604 903.23 103.855 899.939 102.679Z" stroke="#FFECDE" stroke-miterlimit="10"/>
<path d="M895.424 137.073H851.602" stroke="#FFECDE" stroke-miterlimit="10"/>
<path d="M851.602 168.519V102.059" stroke="#FFECDE" stroke-miterlimit="10"/>
<path d="M851.602 105.032C853.243 105.032 854.574 103.701 854.574 102.059C854.574 100.417 853.243 99.0859 851.602 99.0859C849.96 99.0859 848.629 100.417 848.629 102.059C848.629 103.701 849.96 105.032 851.602 105.032Z" fill="#FFECDE"/>
<path d="M1011.26 101.693H989.328C987.221 101.693 985.202 102.528 983.708 104.022L977.015 110.707C974.121 113.593 974.121 118.282 977.015 121.168L983.708 127.853C985.202 129.339 987.221 130.182 989.328 130.182H1011.26C1013.36 130.182 1015.38 129.347 1016.88 127.853L1023.57 121.168C1026.46 118.282 1026.46 113.593 1023.57 110.707L1016.88 104.022C1015.38 102.536 1013.36 101.693 1011.26 101.693Z" stroke="#FFECDE" stroke-miterlimit="10"/>
<path d="M986.95 167.573V102.059" stroke="#FFECDE" stroke-miterlimit="10"/>
<path d="M986.951 105.032C988.593 105.032 989.924 103.701 989.924 102.059C989.924 100.417 988.593 99.0859 986.951 99.0859C985.309 99.0859 983.978 100.417 983.978 102.059C983.978 103.701 985.309 105.032 986.951 105.032Z" fill="#FFECDE"/>
<path d="M1196.23 111.899H1166.14C1165.09 111.899 1164.04 111.724 1163.05 111.374L1158.69 109.856C1155.16 108.624 1155.16 103.632 1158.69 102.4L1163.19 100.834C1164.09 100.524 1165.03 100.365 1165.98 100.365H1196.23C1197.19 100.365 1198.15 100.524 1199.06 100.842L1203.74 102.472C1207.2 103.68 1207.2 108.584 1203.74 109.793L1199.06 111.422C1198.15 111.74 1197.2 111.899 1196.23 111.899Z" stroke="#FFECDE" stroke-miterlimit="10"/>
<path d="M1181.19 100.461V166.222" stroke="#FFECDE" stroke-miterlimit="10"/>
<path d="M1181.19 114.872C1182.83 114.872 1184.16 113.541 1184.16 111.899C1184.16 110.257 1182.83 108.926 1181.19 108.926C1179.54 108.926 1178.21 110.257 1178.21 111.899C1178.21 113.541 1179.54 114.872 1181.19 114.872Z" fill="#FFECDE"/>
<path d="M800.667 158.266C802.309 158.266 803.64 156.935 803.64 155.293C803.64 153.652 802.309 152.321 800.667 152.321C799.025 152.321 797.694 153.652 797.694 155.293C797.694 156.935 799.025 158.266 800.667 158.266Z" fill="#FFECDE"/>
<path d="M802.805 137.178C804.447 137.178 805.778 135.847 805.778 134.205C805.778 132.563 804.447 131.232 802.805 131.232C801.163 131.232 799.832 132.563 799.832 134.205C799.832 135.847 801.163 137.178 802.805 137.178Z" fill="#FFECDE"/>
<path d="M838.393 134.206H802.805" stroke="#FFECDE" stroke-miterlimit="10"/>
<path d="M800.667 113.109L811.144 104.071C814.888 100.836 820.444 100.836 824.188 104.071L834.664 113.109C837.033 115.152 838.392 118.117 838.392 121.24V147.146C838.392 150.27 837.033 153.243 834.664 155.278L824.188 164.315C820.444 167.551 814.888 167.551 811.144 164.315L800.667 155.278" stroke="#FFECDE" stroke-miterlimit="10"/>
<path d="M665.014 149.082H688.518" stroke="#FFECDE" stroke-miterlimit="10"/>
<path d="M689.456 152.055C691.098 152.055 692.429 150.724 692.429 149.082C692.429 147.44 691.098 146.109 689.456 146.109C687.814 146.109 686.483 147.44 686.483 149.082C686.483 150.724 687.814 152.055 689.456 152.055Z" fill="#FFECDE"/>
<path d="M663.623 152.055C665.265 152.055 666.596 150.724 666.596 149.082C666.596 147.44 665.265 146.109 663.623 146.109C661.981 146.109 660.65 147.44 660.65 149.082C660.65 150.724 661.981 152.055 663.623 152.055Z" fill="#FFECDE"/>
<path d="M677.493 104.195C677.994 104.211 678.471 104.417 678.837 104.759C679.639 105.514 680.911 107.009 680.466 108.551C679.822 110.752 655.594 167.849 655.594 167.849C655.594 167.849 654.879 169.995 651.58 169.534C651.127 169.471 650.721 169.256 650.395 168.922C649.609 168.112 648.241 166.45 648.782 165.147C649.529 163.358 673.598 105.975 673.598 105.975C673.598 105.975 673.964 104.083 677.485 104.195H677.493Z" stroke="#FFECDE" stroke-miterlimit="10"/>
<path d="M676.873 111.07C679.029 111.07 680.776 109.323 680.776 107.168C680.776 105.012 679.029 103.265 676.873 103.265C674.718 103.265 672.97 105.012 672.97 107.168C672.97 109.323 674.718 111.07 676.873 111.07Z" fill="#FFECDE"/>
<path d="M430.342 114.798H404.159C403.054 114.798 401.957 114.592 400.924 114.186L396.607 112.493C393.46 111.261 393.46 106.81 396.607 105.57L401.075 103.821C402.005 103.455 402.998 103.265 404 103.265H430.35C431.368 103.265 432.369 103.455 433.315 103.829L437.926 105.633C441.018 106.842 441.018 111.221 437.926 112.43L433.315 114.234C432.369 114.608 431.368 114.798 430.35 114.798H430.342Z" stroke="#FFECDE" stroke-miterlimit="10"/>
<path d="M430.342 169.487H404.159C403.054 169.487 401.957 169.28 400.924 168.875L396.607 167.182C393.46 165.949 393.46 161.498 396.607 160.258L401.075 158.509C402.005 158.144 402.998 157.953 404 157.953H430.35C431.368 157.953 432.369 158.144 433.315 158.517L437.926 160.322C441.018 161.53 441.018 165.91 437.926 167.118L433.315 168.922C432.369 169.296 431.368 169.487 430.35 169.487H430.342Z" stroke="#FFECDE" stroke-miterlimit="10"/>
<path d="M394.239 109.028V163.827" stroke="#FFECDE" stroke-miterlimit="10"/>
<path d="M442.79 136.73H394.239" stroke="#FFECDE" stroke-miterlimit="10"/>
<path d="M442.79 139.703C444.432 139.703 445.763 138.372 445.763 136.73C445.763 135.088 444.432 133.757 442.79 133.757C441.148 133.757 439.817 135.088 439.817 136.73C439.817 138.372 441.148 139.703 442.79 139.703Z" fill="#FFECDE"/>
<path d="M558.547 114.46H532.363C531.258 114.46 530.161 114.253 529.128 113.848L524.812 112.154C521.664 110.922 521.664 106.471 524.812 105.231L529.279 103.482C530.209 103.117 531.203 102.926 532.204 102.926H558.555C559.572 102.926 560.574 103.117 561.52 103.49L566.13 105.295C569.222 106.503 569.222 110.883 566.13 112.091L561.52 113.895C560.574 114.269 559.572 114.46 558.555 114.46H558.547Z" stroke="#FFECDE" stroke-miterlimit="10"/>
<path d="M558.547 169.147H532.363C531.258 169.147 530.161 168.94 529.128 168.535L524.812 166.842C521.664 165.61 521.664 161.158 524.812 159.918L529.279 158.17C530.209 157.804 531.203 157.613 532.204 157.613H558.555C559.572 157.613 560.574 157.804 561.52 158.178L566.13 159.982C569.222 161.19 569.222 165.57 566.13 166.778L561.52 168.583C560.574 168.956 559.572 169.147 558.555 169.147H558.547Z" stroke="#FFECDE" stroke-miterlimit="10"/>
<path d="M522.442 108.688V163.488" stroke="#FFECDE" stroke-miterlimit="10"/>
<path d="M570.994 136.39H522.442" stroke="#FFECDE" stroke-miterlimit="10"/>
<path d="M570.994 139.363C572.636 139.363 573.967 138.032 573.967 136.39C573.967 134.748 572.636 133.417 570.994 133.417C569.352 133.417 568.021 134.748 568.021 136.39C568.021 138.032 569.352 139.363 570.994 139.363Z" fill="#FFECDE"/>
<path d="M538.015 97.6953C539.657 97.6953 540.988 96.3643 540.988 94.7224C540.988 93.0805 539.657 91.7495 538.015 91.7495C536.373 91.7495 535.042 93.0805 535.042 94.7224C535.042 96.3643 536.373 97.6953 538.015 97.6953Z" fill="#FFECDE"/>
<path d="M552.855 97.6953C554.497 97.6953 555.828 96.3643 555.828 94.7224C555.828 93.0805 554.497 91.7495 552.855 91.7495C551.213 91.7495 549.882 93.0805 549.882 94.7224C549.882 96.3643 551.213 97.6953 552.855 97.6953Z" fill="#FFECDE"/>
<path d="M347.906 114.798H374.09C375.195 114.798 376.292 114.592 377.325 114.186L381.641 112.493C384.789 111.261 384.789 106.81 381.641 105.57L377.174 103.821C376.244 103.455 375.251 103.265 374.249 103.265H347.899C346.881 103.265 345.88 103.455 344.934 103.829L340.323 105.633C337.231 106.842 337.231 111.221 340.323 112.43L344.934 114.234C345.88 114.608 346.881 114.798 347.899 114.798H347.906Z" stroke="#FFECDE" stroke-miterlimit="10"/>
<path d="M347.906 169.487H374.09C375.195 169.487 376.292 169.28 377.325 168.875L381.641 167.182C384.789 165.949 384.789 161.498 381.641 160.258L377.174 158.509C376.244 158.144 375.251 157.953 374.249 157.953H347.899C346.881 157.953 345.88 158.144 344.934 158.517L340.323 160.322C337.231 161.53 337.231 165.91 340.323 167.118L344.934 168.922C345.88 169.296 346.881 169.487 347.899 169.487H347.906Z" stroke="#FFECDE" stroke-miterlimit="10"/>
<path d="M384.002 109.028V163.827" stroke="#FFECDE" stroke-miterlimit="10"/>
<path d="M335.458 136.73H384.002" stroke="#FFECDE" stroke-miterlimit="10"/>
<path d="M335.458 139.703C337.1 139.703 338.431 138.372 338.431 136.73C338.431 135.088 337.1 133.757 335.458 133.757C333.816 133.757 332.485 135.088 332.485 136.73C332.485 138.372 333.816 139.703 335.458 139.703Z" fill="#FFECDE"/>
<path d="M484.834 104.203C485.335 104.219 485.812 104.426 486.178 104.767C486.981 105.522 488.253 107.017 487.807 108.559C487.164 110.761 462.935 167.858 462.935 167.858C462.935 167.858 462.22 170.004 458.921 169.543C458.468 169.479 458.063 169.265 457.737 168.931C456.95 168.12 455.583 166.459 456.123 165.155C456.87 163.366 480.94 105.984 480.94 105.984C480.94 105.984 481.305 104.092 484.827 104.203H484.834Z" stroke="#FFECDE" stroke-miterlimit="10"/>
<path d="M483.372 104.394C482.871 104.41 482.394 104.616 482.028 104.958C481.225 105.713 479.954 107.208 480.399 108.75C481.043 110.951 505.271 168.048 505.271 168.048C505.271 168.048 505.986 170.194 509.285 169.733C509.738 169.67 510.143 169.455 510.469 169.121C511.256 168.311 512.623 166.649 512.083 165.346C511.336 163.557 487.267 106.174 487.267 106.174C487.267 106.174 486.901 104.282 483.379 104.394H483.372Z" stroke="#FFECDE" stroke-miterlimit="10"/>
<path d="M484.206 111.07C486.362 111.07 488.109 109.323 488.109 107.168C488.109 105.012 486.362 103.265 484.206 103.265C482.051 103.265 480.303 105.012 480.303 107.168C480.303 109.323 482.051 111.07 484.206 111.07Z" fill="#FFECDE"/>
<path d="M635.514 104.299C635.045 104.132 634.529 104.132 634.052 104.299C633.018 104.656 631.262 105.483 631.087 106.961C630.832 109.084 631.087 166.689 631.087 166.689C631.087 166.689 630.92 168.788 634.139 169.575C634.576 169.686 635.045 169.646 635.467 169.479C636.5 169.066 638.408 168.136 638.408 166.824V107.224C638.408 107.224 638.805 105.475 635.514 104.299Z" stroke="#FFECDE" stroke-miterlimit="10"/>
<path d="M630.999 138.693H587.177" stroke="#FFECDE" stroke-miterlimit="10"/>
<path d="M587.177 170.139V103.678" stroke="#FFECDE" stroke-miterlimit="10"/>
<path d="M587.177 106.652C588.819 106.652 590.15 105.321 590.15 103.679C590.15 102.037 588.819 100.706 587.177 100.706C585.535 100.706 584.204 102.037 584.204 103.679C584.204 105.321 585.535 106.652 587.177 106.652Z" fill="#FFECDE"/>
<path d="M749.859 103.39C750.328 103.223 750.844 103.223 751.321 103.39C752.355 103.748 754.111 104.574 754.286 106.053C754.541 108.175 754.286 165.781 754.286 165.781C754.286 165.781 754.453 167.879 751.234 168.666C750.797 168.777 750.328 168.738 749.906 168.571C748.873 168.157 746.965 167.227 746.965 165.916V106.315C746.965 106.315 746.568 104.566 749.859 103.39Z" stroke="#FFECDE" stroke-miterlimit="10"/>
<path d="M706.283 165.821L747.061 118.199" stroke="#FFECDE" stroke-miterlimit="10"/>
<path d="M705.639 169.509C707.281 169.509 708.612 168.178 708.612 166.536C708.612 164.894 707.281 163.563 705.639 163.563C703.997 163.563 702.666 164.894 702.666 166.536C702.666 168.178 703.997 169.509 705.639 169.509Z" fill="#FFECDE"/>
<path d="M734.199 104.368H715.416C713.612 104.368 711.879 105.083 710.599 106.363L704.868 112.086C702.388 114.558 702.388 118.573 704.868 121.045L710.599 126.768C711.879 128.04 713.604 128.763 715.416 128.763H734.199C736.004 128.763 737.737 128.048 739.016 126.768L744.748 121.045C747.228 118.573 747.228 114.558 744.748 112.086L739.016 106.363C737.737 105.091 736.012 104.368 734.199 104.368Z" stroke="#FFECDE" stroke-miterlimit="10"/>
<path d="M112.246 104.537H93.4629C91.6585 104.537 89.9256 105.253 88.6459 106.533L82.9147 112.256C80.4347 114.728 80.4347 118.742 82.9147 121.214L88.6459 126.937C89.9256 128.209 91.6505 128.932 93.4629 128.932H112.246C114.05 128.932 115.783 128.217 117.063 126.937L122.794 121.214C125.274 118.742 125.274 114.728 122.794 112.256L117.063 106.533C115.783 105.261 114.058 104.537 112.246 104.537Z" stroke="#FFECDE" stroke-miterlimit="10"/>
<path d="M113.82 142H91.8886C89.7822 142 87.7631 142.835 86.2688 144.329L79.5758 151.014C76.6824 153.9 76.6824 158.59 79.5758 161.475L86.2688 168.16C87.7631 169.646 89.7822 170.489 91.8886 170.489H113.82C115.926 170.489 117.945 169.654 119.439 168.16L126.132 161.475C129.026 158.59 129.026 153.9 126.132 151.014L119.439 144.329C117.945 142.843 115.926 142 113.82 142Z" stroke="#FFECDE" stroke-miterlimit="10"/>
<path d="M89.5115 170.473V104.958" stroke="#FFECDE" stroke-miterlimit="10"/>
<path d="M89.5117 107.931C91.1536 107.931 92.4846 106.6 92.4846 104.958C92.4846 103.317 91.1536 101.986 89.5117 101.986C87.8698 101.986 86.5388 103.317 86.5388 104.958C86.5388 106.6 87.8698 107.931 89.5117 107.931Z" fill="#FFECDE"/>
<path d="M174.643 114.799H148.46C147.355 114.799 146.258 114.592 145.224 114.187L140.908 112.494C137.76 111.261 137.76 106.81 140.908 105.57L145.375 103.821C146.305 103.456 147.299 103.265 148.301 103.265H174.651C175.669 103.265 176.67 103.456 177.616 103.829L182.226 105.634C185.319 106.842 185.319 111.222 182.226 112.43L177.616 114.234C176.67 114.608 175.669 114.799 174.651 114.799H174.643Z" stroke="#FFECDE" stroke-miterlimit="10"/>
<path d="M174.643 169.487H148.46C147.355 169.487 146.258 169.28 145.224 168.875L140.908 167.182C137.76 165.95 137.76 161.498 140.908 160.258L145.375 158.51C146.305 158.144 147.299 157.953 148.301 157.953H174.651C175.669 157.953 176.67 158.144 177.616 158.517L182.226 160.322C185.319 161.53 185.319 165.91 182.226 167.118L177.616 168.923C176.67 169.296 175.669 169.487 174.651 169.487H174.643Z" stroke="#FFECDE" stroke-miterlimit="10"/>
<path d="M138.54 109.028V163.828" stroke="#FFECDE" stroke-miterlimit="10"/>
<path d="M187.091 136.73H138.54" stroke="#FFECDE" stroke-miterlimit="10"/>
<path d="M187.091 139.703C188.733 139.703 190.064 138.372 190.064 136.73C190.064 135.088 188.733 133.757 187.091 133.757C185.449 133.757 184.118 135.088 184.118 136.73C184.118 138.372 185.449 139.703 187.091 139.703Z" fill="#FFECDE"/>
<path d="M64.1962 113.535C61.6287 107.319 55.5637 103.265 48.8389 103.265H47M28.8316 113.535L22.2579 129.457C20.5807 133.519 20.5807 138.081 22.2579 142.143L28.8316 158.065C31.3991 164.281 37.4641 168.335 44.1888 168.335M64.1962 158.065C61.6287 164.281 55.5637 168.335 48.8389 168.335H47" stroke="#FFECDE" stroke-miterlimit="10"/>
<path d="M64.196 116.762C65.8379 116.762 67.1689 115.431 67.1689 113.79C67.1689 112.148 65.8379 110.817 64.196 110.817C62.5541 110.817 61.2231 112.148 61.2231 113.79C61.2231 115.431 62.5541 116.762 64.196 116.762Z" fill="#FFECDE"/>
<path d="M240.482 114.799H210.396C209.347 114.799 208.297 114.624 207.304 114.274L202.948 112.756C199.418 111.524 199.418 106.532 202.948 105.3L207.447 103.734C208.345 103.424 209.291 103.265 210.237 103.265H240.482C241.444 103.265 242.406 103.424 243.32 103.742L247.994 105.372C251.46 106.58 251.46 111.484 247.994 112.693L243.32 114.322C242.406 114.64 241.452 114.799 240.482 114.799Z" stroke="#FFECDE" stroke-miterlimit="10"/>
<path d="M225.443 103.361V169.122" stroke="#FFECDE" stroke-miterlimit="10"/>
<path d="M225.443 117.772C227.085 117.772 228.416 116.441 228.416 114.799C228.416 113.157 227.085 111.826 225.443 111.826C223.801 111.826 222.47 113.157 222.47 114.799C222.47 116.441 223.801 117.772 225.443 117.772Z" fill="#FFECDE"/>
<path d="M758.556 48.3765H782.061" stroke="#FFECDE" stroke-miterlimit="10"/>
<path d="M782.998 51.3496C784.64 51.3496 785.971 50.0186 785.971 48.3767C785.971 46.7348 784.64 45.4038 782.998 45.4038C781.356 45.4038 780.025 46.7348 780.025 48.3767C780.025 50.0186 781.356 51.3496 782.998 51.3496Z" fill="#FFECDE"/>
<path d="M757.165 51.3496C758.807 51.3496 760.138 50.0186 760.138 48.3767C760.138 46.7348 758.807 45.4038 757.165 45.4038C755.523 45.4038 754.192 46.7348 754.192 48.3767C754.192 50.0186 755.523 51.3496 757.165 51.3496Z" fill="#FFECDE"/>
<path d="M771.036 3.48885C771.536 3.50475 772.013 3.71142 772.379 4.05322C773.182 4.80837 774.454 6.30276 774.009 7.84484C773.365 10.0467 749.137 67.1434 749.137 67.1434C749.137 67.1434 748.421 69.2896 745.122 68.8286C744.669 68.765 744.264 68.5504 743.938 68.2165C743.151 67.4058 741.784 65.7444 742.324 64.4408C743.072 62.6523 767.141 5.2694 767.141 5.2694C767.141 5.2694 767.506 3.37757 771.028 3.48885H771.036Z" stroke="#FFECDE" stroke-miterlimit="10"/>
<path d="M770.416 10.3649C772.571 10.3649 774.318 8.61749 774.318 6.46198C774.318 4.30647 772.571 2.55908 770.416 2.55908C768.26 2.55908 766.513 4.30647 766.513 6.46198C766.513 8.61749 768.26 10.3649 770.416 10.3649Z" fill="#FFECDE"/>
<path d="M973.614 18.9797L932.837 66.6014" stroke="#FFECDE" stroke-miterlimit="10"/>
<path d="M974.258 21.237C975.9 21.237 977.231 19.906 977.231 18.2641C977.231 16.6223 975.9 15.2913 974.258 15.2913C972.616 15.2913 971.285 16.6223 971.285 18.2641C971.285 19.906 972.616 21.237 974.258 21.237Z" fill="#FFECDE"/>
<path d="M928.957 2.68428C929.426 2.51735 929.943 2.51735 930.42 2.68428C931.453 3.04198 933.21 3.86866 933.385 5.34715C933.639 7.4695 933.385 65.075 933.385 65.075C933.385 65.075 933.552 67.1735 930.332 67.9604C929.895 68.0717 929.426 68.032 929.005 67.865C927.972 67.4517 926.064 66.5217 926.064 65.2101V5.60946C926.064 5.60946 925.666 3.86071 928.957 2.68428Z" stroke="#FFECDE" stroke-miterlimit="10"/>
<path d="M847.518 3.59248C847.049 3.42555 846.532 3.42555 846.056 3.59248C845.022 3.95018 843.265 4.77687 843.091 6.25536C842.836 8.37771 843.091 65.9832 843.091 65.9832C843.091 65.9832 842.924 68.0817 846.143 68.8686C846.58 68.9799 847.049 68.9402 847.47 68.7733C848.504 68.3599 850.412 67.4299 850.412 66.1183V6.51767C850.412 6.51767 850.809 4.76891 847.518 3.59248Z" stroke="#FFECDE" stroke-miterlimit="10"/>
<path d="M843.003 37.9878H799.181" stroke="#FFECDE" stroke-miterlimit="10"/>
<path d="M799.181 69.4332V2.97266" stroke="#FFECDE" stroke-miterlimit="10"/>
<path d="M799.181 5.94577C800.823 5.94577 802.154 4.61476 802.154 2.97288C802.154 1.33101 800.823 0 799.181 0C797.539 0 796.208 1.33101 796.208 2.97288C796.208 4.61476 797.539 5.94577 799.181 5.94577Z" fill="#FFECDE"/>
<path d="M668.464 12.829C665.896 6.61301 659.831 2.55908 653.107 2.55908H648.456C641.732 2.55908 635.667 6.61301 633.099 12.829L626.525 28.7506C624.848 32.8125 624.848 37.3751 626.525 41.437L633.099 57.3586C635.667 63.5746 641.732 67.6286 648.456 67.6286H653.107C659.831 67.6286 665.896 63.5746 668.464 57.3586" stroke="#FFECDE" stroke-miterlimit="10"/>
<path d="M668.463 16.0559C670.105 16.0559 671.436 14.7249 671.436 13.083C671.436 11.4411 670.105 10.1101 668.463 10.1101C666.821 10.1101 665.49 11.4411 665.49 13.083C665.49 14.7249 666.821 16.0559 668.463 16.0559Z" fill="#FFECDE"/>
<path d="M721.854 14.0929H691.768C690.719 14.0929 689.669 13.918 688.676 13.5683L684.32 12.05C680.791 10.818 680.791 5.82607 684.32 4.59399L688.819 3.02806C689.717 2.71806 690.663 2.55908 691.609 2.55908H721.854C722.816 2.55908 723.778 2.71806 724.692 3.03602L729.366 4.66553C732.832 5.87376 732.832 10.7782 729.366 11.9864L724.692 13.616C723.778 13.9339 722.824 14.0929 721.854 14.0929Z" stroke="#FFECDE" stroke-miterlimit="10"/>
<path d="M706.815 2.65479V68.4158" stroke="#FFECDE" stroke-miterlimit="10"/>
<path d="M706.815 17.0659C708.457 17.0659 709.788 15.7349 709.788 14.093C709.788 12.4511 708.457 11.1201 706.815 11.1201C705.174 11.1201 703.843 12.4511 703.843 14.093C703.843 15.7349 705.174 17.0659 706.815 17.0659Z" fill="#FFECDE"/>
<path d="M912.839 73.749C914.481 73.749 915.812 72.418 915.812 70.7761C915.812 69.1342 914.481 67.8032 912.839 67.8032C911.197 67.8032 909.866 69.1342 909.866 70.7761C909.866 72.418 911.197 73.749 912.839 73.749Z" fill="#FFECDE"/>
<path d="M898.356 41.4292H876.425C874.319 41.4292 872.3 42.2638 870.806 43.7582L864.113 50.4432C861.219 53.3287 861.219 58.0185 864.113 60.9039L870.806 67.5889C872.3 69.0754 874.319 69.918 876.425 69.918H898.356C900.463 69.918 902.482 69.0833 903.976 67.5889L910.669 60.9039C913.563 58.0185 913.563 53.3287 910.669 50.4432L903.976 43.7582C902.482 42.2718 900.463 41.4292 898.356 41.4292Z" stroke="#FFECDE" stroke-miterlimit="10"/>
<path d="M861.951 3.83838V55.7604" stroke="#FFECDE" stroke-miterlimit="10"/>
<path d="M912.839 3.83862V70.7761" stroke="#FFECDE" stroke-miterlimit="10"/>
<path d="M1034.66 2.68428C1035.13 2.51735 1035.65 2.51735 1036.12 2.68428C1037.16 3.04198 1038.91 3.86866 1039.09 5.34715C1039.34 7.4695 1039.09 65.075 1039.09 65.075C1039.09 65.075 1039.25 67.1735 1036.03 67.9604C1035.6 68.0717 1035.13 68.032 1034.71 67.865C1033.67 67.4517 1031.77 66.5217 1031.77 65.2101V5.60948C1031.77 5.60948 1031.37 3.86071 1034.66 2.68428Z" stroke="#FFECDE" stroke-miterlimit="10"/>
<path d="M991.083 65.1151L1031.86 17.4934" stroke="#FFECDE" stroke-miterlimit="10"/>
<path d="M990.44 68.8032C992.082 68.8032 993.413 67.4722 993.413 65.8303C993.413 64.1884 992.082 62.8574 990.44 62.8574C988.798 62.8574 987.467 64.1884 987.467 65.8303C987.467 67.4722 988.798 68.8032 990.44 68.8032Z" fill="#FFECDE"/>
<path d="M1019 3.66162H1000.22C998.412 3.66162 996.679 4.37703 995.4 5.6568L989.668 11.38C987.188 13.8521 987.188 17.8663 989.668 20.3384L995.4 26.0615C996.679 27.3334 998.404 28.0567 1000.22 28.0567H1019C1020.8 28.0567 1022.54 27.3413 1023.82 26.0615L1029.55 20.3384C1032.03 17.8663 1032.03 13.8521 1029.55 11.38L1023.82 5.6568C1022.54 4.38498 1020.81 3.66162 1019 3.66162Z" stroke="#FFECDE" stroke-miterlimit="10"/>
<path d="M501.333 49.6565H524.838" stroke="#FFECDE" stroke-miterlimit="10"/>
<path d="M525.775 52.6296C527.417 52.6296 528.748 51.2986 528.748 49.6567C528.748 48.0148 527.417 46.6838 525.775 46.6838C524.133 46.6838 522.802 48.0148 522.802 49.6567C522.802 51.2986 524.133 52.6296 525.775 52.6296Z" fill="#FFECDE"/>
<path d="M499.942 52.6296C501.584 52.6296 502.915 51.2986 502.915 49.6567C502.915 48.0148 501.584 46.6838 499.942 46.6838C498.3 46.6838 496.969 48.0148 496.969 49.6567C496.969 51.2986 498.3 52.6296 499.942 52.6296Z" fill="#FFECDE"/>
<path d="M513.813 4.76888C514.314 4.78478 514.791 4.99145 515.156 5.33325C515.959 6.0884 517.231 7.58279 516.786 9.12487C516.142 11.3267 491.914 68.4235 491.914 68.4235C491.914 68.4235 491.198 70.5697 487.9 70.1086C487.447 70.045 487.041 69.8304 486.715 69.4966C485.928 68.6858 484.561 67.0245 485.102 65.7209C485.849 63.9324 509.918 6.54943 509.918 6.54943C509.918 6.54943 510.284 4.6576 513.805 4.76888H513.813Z" stroke="#FFECDE" stroke-miterlimit="10"/>
<path d="M513.193 11.6449C515.348 11.6449 517.096 9.89752 517.096 7.74201C517.096 5.5865 515.348 3.83911 513.193 3.83911C511.037 3.83911 509.29 5.5865 509.29 7.74201C509.29 9.89752 511.037 11.6449 513.193 11.6449Z" fill="#FFECDE"/>
<path d="M340.566 15.3727H314.382C313.278 15.3727 312.181 15.166 311.147 14.7606L306.831 13.0675C303.683 11.8354 303.683 7.38406 306.831 6.14404L311.298 4.39529C312.228 4.02964 313.222 3.83887 314.223 3.83887H340.574C341.591 3.83887 342.593 4.02964 343.539 4.40324L348.149 6.20763C351.241 7.41586 351.241 11.7957 348.149 13.0039L343.539 14.8083C342.593 15.1819 341.591 15.3727 340.574 15.3727H340.566Z" stroke="#FFECDE" stroke-miterlimit="10"/>
<path d="M340.566 70.0612H314.383C313.278 70.0612 312.181 69.8545 311.148 69.4491L306.831 67.756C303.684 66.5239 303.684 62.0725 306.831 60.8325L311.299 59.0838C312.229 58.7181 313.222 58.5273 314.224 58.5273H340.574C341.592 58.5273 342.593 58.7181 343.539 59.0917L348.15 60.8961C351.242 62.1043 351.242 66.4842 348.15 67.6924L343.539 69.4968C342.593 69.8704 341.592 70.0612 340.574 70.0612H340.566Z" stroke="#FFECDE" stroke-miterlimit="10"/>
<path d="M304.463 9.60205V64.4016" stroke="#FFECDE" stroke-miterlimit="10"/>
<path d="M353.014 37.304H304.463" stroke="#FFECDE" stroke-miterlimit="10"/>
<path d="M353.014 40.2771C354.656 40.2771 355.987 38.9461 355.987 37.3042C355.987 35.6623 354.656 34.3313 353.014 34.3313C351.372 34.3313 350.041 35.6623 350.041 37.3042C350.041 38.9461 351.372 40.2771 353.014 40.2771Z" fill="#FFECDE"/>
<path d="M223.245 21.5391L182.467 69.1608" stroke="#FFECDE" stroke-miterlimit="10"/>
<path d="M223.888 23.7961C225.53 23.7961 226.861 22.4651 226.861 20.8232C226.861 19.1813 225.53 17.8503 223.888 17.8503C222.246 17.8503 220.915 19.1813 220.915 20.8232C220.915 22.4651 222.246 23.7961 223.888 23.7961Z" fill="#FFECDE"/>
<path d="M178.587 5.2436C179.056 5.07668 179.573 5.07668 180.05 5.2436C181.083 5.6013 182.84 6.42798 183.015 7.90647C183.269 10.0288 183.015 67.6343 183.015 67.6343C183.015 67.6343 183.182 69.7328 179.963 70.5198C179.525 70.631 179.056 70.5913 178.635 70.4244C177.602 70.011 175.694 69.081 175.694 67.7694V8.16879C175.694 8.16879 175.297 6.42004 178.587 5.2436Z" stroke="#FFECDE" stroke-miterlimit="10"/>
<path d="M430.116 17.3181L471.768 66.4183" stroke="#FFECDE" stroke-miterlimit="10"/>
<path d="M471.768 69.3913C473.41 69.3913 474.741 68.0603 474.741 66.4184C474.741 64.7766 473.41 63.4456 471.768 63.4456C470.126 63.4456 468.795 64.7766 468.795 66.4184C468.795 68.0603 470.126 69.3913 471.768 69.3913Z" fill="#FFECDE"/>
<path d="M425.538 5.2436C426.007 5.07668 426.523 5.07668 427 5.2436C428.034 5.6013 429.79 6.42798 429.965 7.90647C430.22 10.0288 429.965 67.6343 429.965 67.6343C429.965 67.6343 430.132 69.7328 426.913 70.5198C426.476 70.631 426.007 70.5913 425.586 70.4244C424.552 70.011 422.644 69.081 422.644 67.7695V8.16879C422.644 8.16879 422.247 6.42004 425.538 5.2436Z" stroke="#FFECDE" stroke-miterlimit="10"/>
<path d="M429.767 59.145L471.769 9.69507" stroke="#FFECDE" stroke-miterlimit="10"/>
<path d="M471.768 12.6682C473.41 12.6682 474.741 11.3372 474.741 9.69529C474.741 8.05341 473.41 6.72241 471.768 6.72241C470.126 6.72241 468.795 8.05341 468.795 9.69529C468.795 11.3372 470.126 12.6682 471.768 12.6682Z" fill="#FFECDE"/>
<path d="M117.353 4.07539C117.822 3.90846 118.338 3.90846 118.815 4.07539C119.849 4.43309 121.605 5.25977 121.78 6.73826C122.035 8.86061 121.78 66.4661 121.78 66.4661C121.78 66.4661 121.947 68.5646 118.728 69.3515C118.291 69.4628 117.822 69.4231 117.4 69.2562C116.367 68.8428 114.459 67.9128 114.459 66.6012V7.00058C114.459 7.00058 114.062 5.25182 117.353 4.07539Z" stroke="#FFECDE" stroke-miterlimit="10"/>
<path d="M121.057 5.44312L139.371 27.0243" stroke="#FFECDE" stroke-miterlimit="10"/>
<path d="M162.534 3.96431C162.065 3.79738 161.549 3.79738 161.072 3.96431C160.039 4.32201 158.282 5.14869 158.107 6.62718C157.853 8.74953 158.107 66.355 158.107 66.355C158.107 66.355 157.94 68.4535 161.159 69.2405C161.596 69.3517 162.065 69.312 162.487 69.1451C163.52 68.7317 165.428 67.8017 165.428 66.4901V6.88949C165.428 6.88949 165.825 5.14074 162.534 3.96431Z" stroke="#FFECDE" stroke-miterlimit="10"/>
<path d="M158.83 5.33203L140.516 26.9132" stroke="#FFECDE" stroke-miterlimit="10"/>
<path d="M139.729 29.6233C141.371 29.6233 142.702 28.2922 142.702 26.6504C142.702 25.0085 141.371 23.6775 139.729 23.6775C138.087 23.6775 136.756 25.0085 136.756 26.6504C136.756 28.2922 138.087 29.6233 139.729 29.6233Z" fill="#FFECDE"/>
<path d="M409.42 15.3884C406.852 9.17233 400.787 5.11841 394.063 5.11841H389.412C382.688 5.11841 376.623 9.17233 374.055 15.3884L367.482 31.3099C365.804 35.3718 365.804 39.9345 367.482 43.9963L374.055 59.9179C376.623 66.134 382.688 70.1879 389.412 70.1879H394.063C400.787 70.1879 406.852 66.134 409.42 59.9179" stroke="#FFECDE" stroke-miterlimit="10"/>
<path d="M409.42 18.6157C411.062 18.6157 412.393 17.2847 412.393 15.6428C412.393 14.0009 411.062 12.6699 409.42 12.6699C407.778 12.6699 406.447 14.0009 406.447 15.6428C406.447 17.2847 407.778 18.6157 409.42 18.6157Z" fill="#FFECDE"/>
<path d="M101.235 15.3884C98.6673 9.17233 92.6023 5.11841 85.8775 5.11841H81.2274C74.5027 5.11841 68.4377 9.17233 65.8702 15.3884L59.2965 31.3099C57.6193 35.3718 57.6193 39.9345 59.2965 43.9963L65.8702 59.9179C68.4377 66.134 74.5027 70.1879 81.2274 70.1879H85.8775C92.6023 70.1879 98.6673 66.134 101.235 59.9179" stroke="#FFECDE" stroke-miterlimit="10"/>
<path d="M101.235 18.6157C102.876 18.6157 104.207 17.2847 104.207 15.6428C104.207 14.0009 102.876 12.6699 101.235 12.6699C99.5927 12.6699 98.2617 14.0009 98.2617 15.6428C98.2617 17.2847 99.5927 18.6157 101.235 18.6157Z" fill="#FFECDE"/>
<path d="M240.714 4.96826L261.103 28.7751" stroke="#FFECDE" stroke-miterlimit="10"/>
<path d="M240.07 7.22553C241.712 7.22553 243.043 5.89453 243.043 4.25266C243.043 2.61078 241.712 1.27979 240.07 1.27979C238.428 1.27979 237.097 2.61078 237.097 4.25266C237.097 5.89453 238.428 7.22553 240.07 7.22553Z" fill="#FFECDE"/>
<path d="M291.252 73.2495C292.894 73.2495 294.225 71.9185 294.225 70.2766C294.225 68.6347 292.894 67.3037 291.252 67.3037C289.611 67.3037 288.28 68.6347 288.28 70.2766C288.28 71.9185 289.611 73.2495 291.252 73.2495Z" fill="#FFECDE"/>
<path d="M281.961 39.9516H262.041C260.833 39.9516 259.633 39.6734 258.552 39.1409L254.537 37.1695C252.065 35.9534 252.065 32.4241 254.537 31.2079L258.711 29.1571C259.696 28.6722 260.769 28.4258 261.866 28.4258H281.961C283.074 28.4258 284.163 28.6801 285.164 29.173L289.425 31.2715C291.849 32.4638 291.849 35.9295 289.425 37.1219L285.164 39.2203C284.171 39.7132 283.074 39.9675 281.961 39.9675V39.9516Z" stroke="#FFECDE" stroke-miterlimit="10"/>
<path d="M291.253 3.81519V70.2757" stroke="#FFECDE" stroke-miterlimit="10"/>
<path d="M586.178 3.96479C586.647 3.79787 587.164 3.79787 587.641 3.96479C588.674 4.32249 590.431 5.14918 590.605 6.62767C590.86 8.75002 590.605 66.3555 590.605 66.3555C590.605 66.3555 590.772 68.454 587.553 69.241C587.116 69.3523 586.647 69.3125 586.226 69.1456C585.192 68.7322 583.285 67.8022 583.285 66.4906V6.89C583.285 6.89 582.887 5.14123 586.178 3.96479Z" stroke="#FFECDE" stroke-miterlimit="10"/>
<path d="M542.603 66.3954L583.38 18.7737" stroke="#FFECDE" stroke-miterlimit="10"/>
<path d="M541.958 70.0837C543.6 70.0837 544.931 68.7527 544.931 67.1108C544.931 65.4689 543.6 64.1379 541.958 64.1379C540.316 64.1379 538.985 65.4689 538.985 67.1108C538.985 68.7527 540.316 70.0837 541.958 70.0837Z" fill="#FFECDE"/>
<path d="M570.519 4.94214H551.736C549.931 4.94214 548.198 5.65755 546.919 6.93731L541.187 12.6605C538.707 15.1326 538.707 19.1468 541.187 21.6189L546.919 27.3421C548.198 28.6139 549.923 29.3372 551.736 29.3372H570.519C572.323 29.3372 574.056 28.6218 575.336 27.3421L581.067 21.6189C583.547 19.1468 583.547 15.1326 581.067 12.6605L575.336 6.93731C574.056 5.66549 572.331 4.94214 570.519 4.94214Z" stroke="#FFECDE" stroke-miterlimit="10"/>
<path d="M1161.27 17.9315H1131.19C1130.14 17.9315 1129.09 17.7567 1128.09 17.4069L1123.74 15.8887C1120.21 14.6566 1120.21 9.66469 1123.74 8.43261L1128.24 6.86669C1129.14 6.55668 1130.08 6.39771 1131.03 6.39771H1161.27C1162.24 6.39771 1163.2 6.55669 1164.11 6.87464L1168.79 8.50415C1172.25 9.71238 1172.25 14.6168 1168.79 15.8251L1164.11 17.4546C1163.2 17.7725 1162.24 17.9315 1161.27 17.9315Z" stroke="#FFECDE" stroke-miterlimit="10"/>
<path d="M1146.23 6.49365V72.2547" stroke="#FFECDE" stroke-miterlimit="10"/>
<path d="M1146.23 20.9045C1147.88 20.9045 1149.21 19.5735 1149.21 17.9316C1149.21 16.2897 1147.88 14.9587 1146.23 14.9587C1144.59 14.9587 1143.26 16.2897 1143.26 17.9316C1143.26 19.5735 1144.59 20.9045 1146.23 20.9045Z" fill="#FFECDE"/>
<path d="M1223.07 25.9937V51.8991C1223.07 55.023 1221.72 57.9958 1219.35 60.0307L1208.87 69.0686C1205.13 72.3038 1199.57 72.3038 1195.83 69.0686L1185.35 60.0307C1182.98 57.9879 1181.62 55.023 1181.62 51.8991V25.9937C1181.62 22.8698 1182.98 19.8969 1185.35 17.862L1195.83 8.8241C1199.57 5.58891 1205.13 5.58891 1208.87 8.8241L1219.35 17.862C1221.72 19.9048 1223.07 22.8698 1223.07 25.9937Z" stroke="#FFECDE" stroke-miterlimit="10"/>
<path d="M1181.63 38.9509H1223.07" stroke="#FFECDE" stroke-miterlimit="10"/>
<path d="M262.744 417.156H288.928C290.033 417.156 291.13 416.95 292.163 416.544L296.479 414.851C299.627 413.619 299.627 409.168 296.479 407.928L292.012 406.179C291.082 405.813 290.088 405.622 289.087 405.622H262.736C261.719 405.622 260.717 405.813 259.771 406.187L255.161 407.991C252.069 409.199 252.069 413.579 255.161 414.787L259.771 416.592C260.717 416.965 261.719 417.156 262.736 417.156H262.744Z" stroke="#FFECDE" stroke-miterlimit="10"/>
<path d="M262.744 471.844H288.928C290.033 471.844 291.13 471.638 292.163 471.232L296.479 469.539C299.627 468.307 299.627 463.856 296.479 462.616L292.012 460.867C291.082 460.501 290.088 460.311 289.087 460.311H262.736C261.719 460.311 260.717 460.501 259.771 460.875L255.161 462.679C252.069 463.888 252.069 468.267 255.161 469.476L259.771 471.28C260.717 471.654 261.719 471.844 262.736 471.844H262.744Z" stroke="#FFECDE" stroke-miterlimit="10"/>
<path d="M298.84 411.385V466.185" stroke="#FFECDE" stroke-miterlimit="10"/>
<path d="M250.296 439.087H298.84" stroke="#FFECDE" stroke-miterlimit="10"/>
<path d="M250.296 442.061C251.938 442.061 253.269 440.73 253.269 439.088C253.269 437.446 251.938 436.115 250.296 436.115C248.654 436.115 247.323 437.446 247.323 439.088C247.323 440.73 248.654 442.061 250.296 442.061Z" fill="#FFECDE"/>
<path d="M233.47 423.323L192.693 470.944" stroke="#FFECDE" stroke-miterlimit="10"/>
<path d="M234.114 425.58C235.756 425.58 237.087 424.249 237.087 422.607C237.087 420.965 235.756 419.634 234.114 419.634C232.472 419.634 231.141 420.965 231.141 422.607C231.141 424.249 232.472 425.58 234.114 425.58Z" fill="#FFECDE"/>
<path d="M188.813 407.027C189.282 406.86 189.799 406.86 190.276 407.027C191.309 407.385 193.066 408.211 193.241 409.69C193.495 411.812 193.241 469.418 193.241 469.418C193.241 469.418 193.408 471.516 190.188 472.303C189.751 472.414 189.282 472.375 188.861 472.208C187.828 471.794 185.92 470.864 185.92 469.553V409.952C185.92 409.952 185.522 408.203 188.813 407.027Z" stroke="#FFECDE" stroke-miterlimit="10"/>
<path d="M311.985 405.859C312.454 405.692 312.971 405.692 313.447 405.859C314.481 406.217 316.238 407.043 316.412 408.522C316.667 410.644 316.412 468.25 316.412 468.25C316.412 468.25 316.579 470.348 313.36 471.135C312.923 471.246 312.454 471.207 312.033 471.04C310.999 470.626 309.091 469.696 309.091 468.385V408.784C309.091 408.784 308.694 407.035 311.985 405.859Z" stroke="#FFECDE" stroke-miterlimit="10"/>
<path d="M315.689 407.226L334.004 428.807" stroke="#FFECDE" stroke-miterlimit="10"/>
<path d="M357.167 405.748C356.698 405.581 356.181 405.581 355.704 405.748C354.671 406.105 352.914 406.932 352.739 408.411C352.485 410.533 352.739 468.138 352.739 468.138C352.739 468.138 352.572 470.237 355.791 471.024C356.229 471.135 356.698 471.095 357.119 470.928C358.152 470.515 360.06 469.585 360.06 468.273V408.673C360.06 408.673 360.457 406.924 357.167 405.748Z" stroke="#FFECDE" stroke-miterlimit="10"/>
<path d="M353.462 407.115L335.148 428.696" stroke="#FFECDE" stroke-miterlimit="10"/>
<path d="M334.361 431.407C336.003 431.407 337.334 430.076 337.334 428.434C337.334 426.792 336.003 425.461 334.361 425.461C332.719 425.461 331.388 426.792 331.388 428.434C331.388 430.076 332.719 431.407 334.361 431.407Z" fill="#FFECDE"/>
<path d="M161.185 406.95H139.254C137.147 406.95 135.128 407.784 133.634 409.279L126.941 415.964C124.048 418.849 124.048 423.539 126.941 426.425L133.634 433.11C135.128 434.596 137.147 435.439 139.254 435.439H161.185C163.291 435.439 165.31 434.604 166.805 433.11L173.498 426.425C176.391 423.539 176.391 418.849 173.498 415.964L166.805 409.279C165.31 407.792 163.291 406.95 161.185 406.95Z" stroke="#FFECDE" stroke-miterlimit="10"/>
<path d="M136.877 472.83V407.315" stroke="#FFECDE" stroke-miterlimit="10"/>
<path d="M136.877 410.288C138.519 410.288 139.85 408.957 139.85 407.316C139.85 405.674 138.519 404.343 136.877 404.343C135.236 404.343 133.905 405.674 133.905 407.316C133.905 408.957 135.236 410.288 136.877 410.288Z" fill="#FFECDE"/>
<path d="M47 417.156H70.1818C71.1516 417.156 72.1054 416.997 73.0196 416.679L77.6935 415.05C81.1592 413.841 81.1592 408.937 77.6935 407.729L73.0196 406.099C72.1054 405.781 71.1436 405.622 70.1818 405.622H47M32.6472 415.113C29.1179 413.881 29.1179 408.889 32.6472 407.657" stroke="#FFECDE" stroke-miterlimit="10"/>
<path d="M55.1423 405.718V471.479" stroke="#FFECDE" stroke-miterlimit="10"/>
<path d="M55.1426 420.129C56.7844 420.129 58.1154 418.798 58.1154 417.156C58.1154 415.514 56.7844 414.183 55.1426 414.183C53.5007 414.183 52.1697 415.514 52.1697 417.156C52.1697 418.798 53.5007 420.129 55.1426 420.129Z" fill="#FFECDE"/>
<path d="M94.1465 408.031L114.535 431.838" stroke="#FFECDE" stroke-miterlimit="10"/>
<path d="M93.5022 410.288C95.1441 410.288 96.4751 408.957 96.4751 407.316C96.4751 405.674 95.1441 404.343 93.5022 404.343C91.8603 404.343 90.5293 405.674 90.5293 407.316C90.5293 408.957 91.8603 410.288 93.5022 410.288Z" fill="#FFECDE"/>
<path d="M505.859 417.822L547.511 466.922" stroke="#FFECDE" stroke-miterlimit="10"/>
<path d="M547.511 469.895C549.153 469.895 550.484 468.564 550.484 466.922C550.484 465.28 549.153 463.949 547.511 463.949C545.869 463.949 544.538 465.28 544.538 466.922C544.538 468.564 545.869 469.895 547.511 469.895Z" fill="#FFECDE"/>
<path d="M501.28 405.747C501.749 405.58 502.266 405.58 502.743 405.747C503.776 406.105 505.533 406.932 505.708 408.41C505.962 410.532 505.708 468.138 505.708 468.138C505.708 468.138 505.875 470.236 502.656 471.023C502.218 471.135 501.749 471.095 501.328 470.928C500.295 470.515 498.387 469.585 498.387 468.273V408.672C498.387 408.672 497.99 406.924 501.28 405.747Z" stroke="#FFECDE" stroke-miterlimit="10"/>
<path d="M505.51 459.649L547.511 410.199" stroke="#FFECDE" stroke-miterlimit="10"/>
<path d="M547.511 413.172C549.153 413.172 550.484 411.841 550.484 410.199C550.484 408.557 549.153 407.226 547.511 407.226C545.869 407.226 544.538 408.557 544.538 410.199C544.538 411.841 545.869 413.172 547.511 413.172Z" fill="#FFECDE"/>
<path d="M648.824 405.67H626.894C624.787 405.67 622.768 406.505 621.274 407.999L614.581 414.684C611.687 417.569 611.687 422.259 614.581 425.145L621.274 431.83C622.768 433.316 624.787 434.159 626.894 434.159H648.824C650.931 434.159 652.95 433.324 654.444 431.83L661.137 425.145C664.031 422.259 664.031 417.569 661.137 414.684L654.444 407.999C652.95 406.513 650.931 405.67 648.824 405.67Z" stroke="#FFECDE" stroke-miterlimit="10"/>
<path d="M624.516 471.55V406.035" stroke="#FFECDE" stroke-miterlimit="10"/>
<path d="M624.517 409.008C626.158 409.008 627.489 407.677 627.489 406.036C627.489 404.394 626.158 403.063 624.517 403.063C622.875 403.063 621.544 404.394 621.544 406.036C621.544 407.677 622.875 409.008 624.517 409.008Z" fill="#FFECDE"/>
<path d="M485.163 415.892C482.595 409.676 476.53 405.622 469.805 405.622H465.155C458.431 405.622 452.366 409.676 449.798 415.892L443.224 431.813C441.547 435.875 441.547 440.438 443.224 444.5L449.798 460.421C452.366 466.637 458.431 470.691 465.155 470.691H469.805C476.53 470.691 482.595 466.637 485.163 460.421" stroke="#FFECDE" stroke-miterlimit="10"/>
<path d="M485.163 419.119C486.805 419.119 488.136 417.788 488.136 416.146C488.136 414.504 486.805 413.173 485.163 413.173C483.521 413.173 482.19 414.504 482.19 416.146C482.19 417.788 483.521 419.119 485.163 419.119Z" fill="#FFECDE"/>
<path d="M768.43 415.892C765.863 409.676 759.798 405.622 753.073 405.622H748.423C741.698 405.622 735.633 409.676 733.066 415.892L726.492 431.813C724.815 435.875 724.815 440.438 726.492 444.5L733.066 460.421C735.633 466.637 741.698 470.691 748.423 470.691H753.073C759.798 470.691 765.863 466.637 768.43 460.421" stroke="#FFECDE" stroke-miterlimit="10"/>
<path d="M768.43 419.119C770.072 419.119 771.403 417.788 771.403 416.146C771.403 414.504 770.072 413.173 768.43 413.173C766.788 413.173 765.457 414.504 765.457 416.146C765.457 417.788 766.788 419.119 768.43 419.119Z" fill="#FFECDE"/>
<path d="M821.821 417.156H791.734C790.685 417.156 789.636 416.981 788.642 416.631L784.286 415.113C780.757 413.881 780.757 408.889 784.286 407.657L788.785 406.091C789.684 405.781 790.63 405.622 791.576 405.622H821.821C822.783 405.622 823.745 405.781 824.659 406.099L829.333 407.728C832.798 408.937 832.798 413.841 829.333 415.049L824.659 416.679C823.745 416.997 822.791 417.156 821.821 417.156Z" stroke="#FFECDE" stroke-miterlimit="10"/>
<path d="M806.781 405.718V471.479" stroke="#FFECDE" stroke-miterlimit="10"/>
<path d="M806.781 420.129C808.423 420.129 809.754 418.798 809.754 417.156C809.754 415.514 808.423 414.183 806.781 414.183C805.139 414.183 803.808 415.514 803.808 417.156C803.808 418.798 805.139 420.129 806.781 420.129Z" fill="#FFECDE"/>
<path d="M602.175 425.218V451.123C602.175 454.247 600.815 457.22 598.447 459.255L587.97 468.293C584.226 471.528 578.67 471.528 574.926 468.293L564.449 459.255C562.08 457.212 560.721 454.247 560.721 451.123V425.218C560.721 422.094 562.08 419.121 564.449 417.086L574.926 408.048C578.67 404.813 584.226 404.813 587.97 408.048L598.447 417.086C600.815 419.129 602.175 422.094 602.175 425.218Z" stroke="#FFECDE" stroke-miterlimit="10"/>
<path d="M560.729 438.175H602.174" stroke="#FFECDE" stroke-miterlimit="10"/>
<path d="M581.451 441.148C583.093 441.148 584.424 439.817 584.424 438.175C584.424 436.533 583.093 435.202 581.451 435.202C579.81 435.202 578.479 436.533 578.479 438.175C578.479 439.817 579.81 441.148 581.451 441.148Z" fill="#FFECDE"/>
<path d="M714.998 425.218V451.123C714.998 454.247 713.638 457.22 711.27 459.255L700.793 468.293C697.049 471.528 691.493 471.528 687.749 468.293L677.272 459.255C674.903 457.212 673.544 454.247 673.544 451.123V425.218C673.544 422.094 674.903 419.121 677.272 417.086L687.749 408.048C691.493 404.813 697.049 404.813 700.793 408.048L711.27 417.086C713.638 419.129 714.998 422.094 714.998 425.218Z" stroke="#FFECDE" stroke-miterlimit="10"/>
<path d="M673.552 438.175H714.998" stroke="#FFECDE" stroke-miterlimit="10"/>
<path d="M694.275 441.148C695.917 441.148 697.248 439.817 697.248 438.175C697.248 436.533 695.917 435.202 694.275 435.202C692.633 435.202 691.302 436.533 691.302 438.175C691.302 439.817 692.633 441.148 694.275 441.148Z" fill="#FFECDE"/>
<path d="M878.583 470.223H856.653C854.546 470.223 852.527 469.388 851.033 467.894L844.34 461.209C841.446 458.323 841.446 453.633 844.34 450.748L851.033 444.063C852.527 442.576 854.546 441.734 856.653 441.734H878.583C880.69 441.734 882.709 442.569 884.203 444.063L890.896 450.748C893.79 453.633 893.79 458.323 890.896 461.209L884.203 467.894C882.709 469.38 880.69 470.223 878.583 470.223Z" stroke="#FFECDE" stroke-miterlimit="10"/>
<path d="M854.276 404.342V469.857" stroke="#FFECDE" stroke-miterlimit="10"/>
<path d="M854.276 472.83C855.917 472.83 857.248 471.499 857.248 469.857C857.248 468.215 855.917 466.884 854.276 466.884C852.634 466.884 851.303 468.215 851.303 469.857C851.303 471.499 852.634 472.83 854.276 472.83Z" fill="#FFECDE"/>
<path d="M1111.89 405.28C1112.39 405.296 1112.87 405.503 1113.23 405.844C1114.03 406.6 1115.31 408.094 1114.86 409.636C1114.22 411.838 1089.99 468.935 1089.99 468.935C1089.99 468.935 1089.27 471.081 1085.98 470.62C1085.52 470.556 1085.12 470.342 1084.79 470.008C1084 469.197 1082.64 467.536 1083.18 466.232C1083.92 464.443 1107.99 407.061 1107.99 407.061C1107.99 407.061 1108.36 405.169 1111.88 405.28H1111.89Z" stroke="#FFECDE" stroke-miterlimit="10"/>
<path d="M1110.43 405.47C1109.92 405.486 1109.45 405.693 1109.08 406.034C1108.28 406.79 1107.01 408.284 1107.45 409.826C1108.1 412.028 1132.32 469.125 1132.32 469.125C1132.32 469.125 1133.04 471.271 1136.34 470.81C1136.79 470.746 1137.2 470.532 1137.52 470.198C1138.31 469.387 1139.68 467.726 1139.14 466.422C1138.39 464.634 1114.32 407.251 1114.32 407.251C1114.32 407.251 1113.95 405.359 1110.43 405.47H1110.43Z" stroke="#FFECDE" stroke-miterlimit="10"/>
<path d="M1111.26 412.147C1113.42 412.147 1115.16 410.4 1115.16 408.244C1115.16 406.089 1113.42 404.342 1111.26 404.342C1109.1 404.342 1107.36 406.089 1107.36 408.244C1107.36 410.4 1109.1 412.147 1111.26 412.147Z" fill="#FFECDE"/>
<path d="M1196.29 441.05H1152.47" stroke="#FFECDE" stroke-miterlimit="10"/>
<path d="M1152.47 472.495V406.034" stroke="#FFECDE" stroke-miterlimit="10"/>
<path d="M1152.47 409.008C1154.11 409.008 1155.44 407.677 1155.44 406.035C1155.44 404.393 1154.11 403.062 1152.47 403.062C1150.83 403.062 1149.5 404.393 1149.5 406.035C1149.5 407.677 1150.83 409.008 1152.47 409.008Z" fill="#FFECDE"/>
<path d="M1018.16 415.891C1015.59 409.675 1009.52 405.621 1002.8 405.621H998.148C991.423 405.621 985.358 409.675 982.791 415.891L976.217 431.813C974.54 435.875 974.54 440.437 976.217 444.499L982.791 460.421C985.358 466.637 991.423 470.691 998.148 470.691H1002.8C1009.52 470.691 1015.59 466.637 1018.16 460.421" stroke="#FFECDE" stroke-miterlimit="10"/>
<path d="M1018.16 419.118C1019.8 419.118 1021.13 417.787 1021.13 416.145C1021.13 414.503 1019.8 413.172 1018.16 413.172C1016.51 413.172 1015.18 414.503 1015.18 416.145C1015.18 417.787 1016.51 419.118 1018.16 419.118Z" fill="#FFECDE"/>
<path d="M1072.82 425.217V451.122C1072.82 454.246 1071.46 457.219 1069.09 459.254L1058.61 468.292C1054.87 471.527 1049.31 471.527 1045.57 468.292L1035.09 459.254C1032.72 457.211 1031.36 454.246 1031.36 451.122V425.217C1031.36 422.093 1032.72 419.12 1035.09 417.085L1045.57 408.047C1049.31 404.812 1054.87 404.812 1058.61 408.047L1069.09 417.085C1071.46 419.128 1072.82 422.093 1072.82 425.217Z" stroke="#FFECDE" stroke-miterlimit="10"/>
<path d="M1031.37 438.174H1072.82" stroke="#FFECDE" stroke-miterlimit="10"/>
<path d="M1052.1 441.147C1053.74 441.147 1055.07 439.816 1055.07 438.174C1055.07 436.532 1053.74 435.201 1052.1 435.201C1050.45 435.201 1049.12 436.532 1049.12 438.174C1049.12 439.816 1050.45 441.147 1052.1 441.147Z" fill="#FFECDE"/>
<path d="M925.058 503.786H898.874C897.77 503.786 896.673 503.579 895.639 503.174L891.323 501.48C888.175 500.248 888.175 495.797 891.323 494.557L895.79 492.808C896.72 492.443 897.714 492.252 898.715 492.252H925.066C926.083 492.252 927.085 492.443 928.031 492.816L932.641 494.621C935.733 495.829 935.733 500.209 932.641 501.417L928.031 503.221C927.085 503.595 926.083 503.786 925.066 503.786H925.058Z" stroke="#FFECDE" stroke-miterlimit="10"/>
<path d="M925.058 558.474H898.874C897.77 558.474 896.673 558.267 895.639 557.862L891.323 556.169C888.175 554.937 888.175 550.485 891.323 549.245L895.79 547.496C896.72 547.131 897.714 546.94 898.715 546.94H925.066C926.083 546.94 927.085 547.131 928.031 547.504L932.641 549.309C935.733 550.517 935.733 554.897 932.641 556.105L928.031 557.909C927.085 558.283 926.083 558.474 925.066 558.474H925.058Z" stroke="#FFECDE" stroke-miterlimit="10"/>
<path d="M888.954 498.015V552.814" stroke="#FFECDE" stroke-miterlimit="10"/>
<path d="M937.505 525.717H888.954" stroke="#FFECDE" stroke-miterlimit="10"/>
<path d="M937.506 528.69C939.147 528.69 940.478 527.359 940.478 525.717C940.478 524.075 939.147 522.744 937.506 522.744C935.864 522.744 934.533 524.075 934.533 525.717C934.533 527.359 935.864 528.69 937.506 528.69Z" fill="#FFECDE"/>
<path d="M721.921 504.452L763.573 553.552" stroke="#FFECDE" stroke-miterlimit="10"/>
<path d="M763.573 556.525C765.215 556.525 766.546 555.194 766.546 553.552C766.546 551.91 765.215 550.579 763.573 550.579C761.931 550.579 760.6 551.91 760.6 553.552C760.6 555.194 761.931 556.525 763.573 556.525Z" fill="#FFECDE"/>
<path d="M717.343 492.377C717.811 492.21 718.328 492.21 718.805 492.377C719.838 492.735 721.595 493.561 721.77 495.04C722.024 497.162 721.77 554.768 721.77 554.768C721.77 554.768 721.937 556.866 718.718 557.653C718.28 557.764 717.812 557.725 717.39 557.558C716.357 557.144 714.449 556.214 714.449 554.903V495.302C714.449 495.302 714.052 493.553 717.343 492.377Z" stroke="#FFECDE" stroke-miterlimit="10"/>
<path d="M721.572 546.278L763.573 496.828" stroke="#FFECDE" stroke-miterlimit="10"/>
<path d="M763.573 499.802C765.215 499.802 766.546 498.471 766.546 496.829C766.546 495.187 765.215 493.856 763.573 493.856C761.931 493.856 760.6 495.187 760.6 496.829C760.6 498.471 761.931 499.802 763.573 499.802Z" fill="#FFECDE"/>
<path d="M818.236 511.848V537.753C818.236 540.877 816.877 543.85 814.508 545.885L804.032 554.923C800.288 558.158 794.732 558.158 790.988 554.923L780.511 545.885C778.142 543.842 776.783 540.877 776.783 537.753V511.848C776.783 508.724 778.142 505.751 780.511 503.716L790.988 494.678C794.732 491.443 800.288 491.443 804.032 494.678L814.508 503.716C816.877 505.759 818.236 508.724 818.236 511.848Z" stroke="#FFECDE" stroke-miterlimit="10"/>
<path d="M776.791 524.805H818.237" stroke="#FFECDE" stroke-miterlimit="10"/>
<path d="M797.514 527.777C799.156 527.777 800.487 526.446 800.487 524.804C800.487 523.163 799.156 521.832 797.514 521.832C795.872 521.832 794.541 523.163 794.541 524.804C794.541 526.446 795.872 527.777 797.514 527.777Z" fill="#FFECDE"/>
<path d="M840.006 503.977V530.16C840.006 531.265 839.8 532.362 839.394 533.395L837.701 537.712C836.469 540.859 832.018 540.859 830.778 537.712L829.029 533.244C828.663 532.314 828.473 531.321 828.473 530.319V503.969C828.473 502.951 828.663 501.95 829.037 501.004L830.841 496.393C832.05 493.301 836.429 493.301 837.638 496.393L839.442 501.004C839.816 501.95 840.006 502.951 840.006 503.969V503.977Z" stroke="#FFECDE" stroke-miterlimit="10"/>
<path d="M878.718 504.032V530.216C878.718 531.321 878.511 532.418 878.106 533.451L876.412 537.767C875.18 540.915 870.729 540.915 869.489 537.767L867.74 533.3C867.375 532.37 867.184 531.376 867.184 530.375V504.024C867.184 503.007 867.375 502.005 867.748 501.059L869.553 496.449C870.761 493.357 875.141 493.357 876.349 496.449L878.153 501.059C878.527 502.005 878.718 503.007 878.718 504.024V504.032Z" stroke="#FFECDE" stroke-miterlimit="10"/>
<path d="M853.496 493.945V560.405" stroke="#FFECDE" stroke-miterlimit="10"/>
<path d="M840.006 517.084H867.016" stroke="#FFECDE" stroke-miterlimit="10"/>
<path d="M853.495 496.918C855.137 496.918 856.468 495.587 856.468 493.945C856.468 492.303 855.137 490.972 853.495 490.972C851.853 490.972 850.522 492.303 850.522 493.945C850.522 495.587 851.853 496.918 853.495 496.918Z" fill="#FFECDE"/>
<path d="M1171.62 536.79H1195.13" stroke="#FFECDE" stroke-miterlimit="10"/>
<path d="M1170.23 539.763C1171.87 539.763 1173.2 538.432 1173.2 536.79C1173.2 535.148 1171.87 533.817 1170.23 533.817C1168.59 533.817 1167.26 535.148 1167.26 536.79C1167.26 538.432 1168.59 539.763 1170.23 539.763Z" fill="#FFECDE"/>
<path d="M1184.1 491.902C1184.6 491.918 1185.08 492.125 1185.44 492.467C1186.25 493.222 1187.52 494.716 1187.07 496.258C1186.43 498.46 1162.2 555.557 1162.2 555.557C1162.2 555.557 1161.49 557.703 1158.19 557.242C1157.73 557.178 1157.33 556.964 1157 556.63C1156.22 555.819 1154.85 554.158 1155.39 552.854C1156.14 551.066 1180.2 493.683 1180.2 493.683C1180.2 493.683 1180.57 491.791 1184.09 491.902H1184.1Z" stroke="#FFECDE" stroke-miterlimit="10"/>
<path d="M1183.48 498.778C1185.64 498.778 1187.38 497.031 1187.38 494.875C1187.38 492.72 1185.64 490.972 1183.48 490.972C1181.32 490.972 1179.58 492.72 1179.58 494.875C1179.58 497.031 1181.32 498.778 1183.48 498.778Z" fill="#FFECDE"/>
<path d="M1129.61 503.786H1103.42C1102.32 503.786 1101.22 503.579 1100.19 503.174L1095.87 501.481C1092.72 500.249 1092.72 495.797 1095.87 494.557L1100.34 492.808C1101.27 492.443 1102.26 492.252 1103.27 492.252H1129.62C1130.63 492.252 1131.63 492.443 1132.58 492.816L1137.19 494.621C1140.28 495.829 1140.28 500.209 1137.19 501.417L1132.58 503.221C1131.63 503.595 1130.63 503.786 1129.62 503.786H1129.61Z" stroke="#FFECDE" stroke-miterlimit="10"/>
<path d="M1129.61 558.474H1103.42C1102.32 558.474 1101.22 558.267 1100.19 557.862L1095.87 556.169C1092.72 554.937 1092.72 550.485 1095.87 549.245L1100.34 547.497C1101.27 547.131 1102.26 546.94 1103.27 546.94H1129.62C1130.63 546.94 1131.63 547.131 1132.58 547.505L1137.19 549.309C1140.28 550.517 1140.28 554.897 1137.19 556.105L1132.58 557.91C1131.63 558.283 1130.63 558.474 1129.62 558.474H1129.61Z" stroke="#FFECDE" stroke-miterlimit="10"/>
<path d="M1093.5 498.015V552.815" stroke="#FFECDE" stroke-miterlimit="10"/>
<path d="M1142.06 525.717H1093.5" stroke="#FFECDE" stroke-miterlimit="10"/>
<path d="M1142.06 528.69C1143.7 528.69 1145.03 527.359 1145.03 525.717C1145.03 524.075 1143.7 522.744 1142.06 522.744C1140.41 522.744 1139.08 524.075 1139.08 525.717C1139.08 527.359 1140.41 528.69 1142.06 528.69Z" fill="#FFECDE"/>
<path d="M1068.78 493.579H1046.85C1044.75 493.579 1042.73 494.414 1041.23 495.908L1034.54 502.593C1031.65 505.479 1031.65 510.169 1034.54 513.054L1041.23 519.739C1042.73 521.226 1044.75 522.068 1046.85 522.068H1068.78C1070.89 522.068 1072.91 521.234 1074.4 519.739L1081.1 513.054C1083.99 510.169 1083.99 505.479 1081.1 502.593L1074.4 495.908C1072.91 494.422 1070.89 493.579 1068.78 493.579Z" stroke="#FFECDE" stroke-miterlimit="10"/>
<path d="M1044.48 559.459V493.945" stroke="#FFECDE" stroke-miterlimit="10"/>
<path d="M1044.48 496.918C1046.12 496.918 1047.45 495.587 1047.45 493.945C1047.45 492.303 1046.12 490.972 1044.48 490.972C1042.83 490.972 1041.5 492.303 1041.5 493.945C1041.5 495.587 1042.83 496.918 1044.48 496.918Z" fill="#FFECDE"/>
<path d="M426.64 503.786H400.457C399.352 503.786 398.255 503.579 397.222 503.174L392.905 501.481C389.757 500.249 389.757 495.797 392.905 494.557L397.373 492.808C398.303 492.443 399.296 492.252 400.298 492.252H426.648C427.666 492.252 428.667 492.443 429.613 492.816L434.224 494.621C437.316 495.829 437.316 500.209 434.224 501.417L429.613 503.222C428.667 503.595 427.666 503.786 426.648 503.786H426.64Z" stroke="#FFECDE" stroke-miterlimit="10"/>
<path d="M426.641 558.474H400.457C399.352 558.474 398.255 558.267 397.222 557.862L392.905 556.169C389.758 554.937 389.758 550.485 392.905 549.245L397.373 547.497C398.303 547.131 399.296 546.94 400.298 546.94H426.648C427.666 546.94 428.667 547.131 429.613 547.505L434.224 549.309C437.316 550.517 437.316 554.897 434.224 556.105L429.613 557.91C428.667 558.283 427.666 558.474 426.648 558.474H426.641Z" stroke="#FFECDE" stroke-miterlimit="10"/>
<path d="M390.537 498.015V552.815" stroke="#FFECDE" stroke-miterlimit="10"/>
<path d="M439.088 525.717H390.537" stroke="#FFECDE" stroke-miterlimit="10"/>
<path d="M439.088 528.69C440.73 528.69 442.061 527.359 442.061 525.717C442.061 524.075 440.73 522.744 439.088 522.744C437.446 522.744 436.115 524.075 436.115 525.717C436.115 527.359 437.446 528.69 439.088 528.69Z" fill="#FFECDE"/>
<path d="M459.784 505.732L501.437 554.832" stroke="#FFECDE" stroke-miterlimit="10"/>
<path d="M501.437 557.805C503.079 557.805 504.41 556.474 504.41 554.832C504.41 553.19 503.079 551.859 501.437 551.859C499.795 551.859 498.464 553.19 498.464 554.832C498.464 556.474 499.795 557.805 501.437 557.805Z" fill="#FFECDE"/>
<path d="M455.206 493.657C455.675 493.49 456.192 493.49 456.669 493.657C457.702 494.014 459.459 494.841 459.634 496.32C459.888 498.442 459.634 556.047 459.634 556.047C459.634 556.047 459.8 558.146 456.581 558.933C456.144 559.044 455.675 559.004 455.254 558.837C454.22 558.424 452.313 557.494 452.313 556.183V496.582C452.313 496.582 451.915 494.833 455.206 493.657Z" stroke="#FFECDE" stroke-miterlimit="10"/>
<path d="M459.436 547.558L501.437 498.109" stroke="#FFECDE" stroke-miterlimit="10"/>
<path d="M501.437 501.082C503.079 501.082 504.41 499.751 504.41 498.109C504.41 496.467 503.079 495.136 501.437 495.136C499.795 495.136 498.464 496.467 498.464 498.109C498.464 499.751 499.795 501.082 501.437 501.082Z" fill="#FFECDE"/>
<path d="M543.481 493.19C543.982 493.206 544.459 493.413 544.825 493.755C545.628 494.51 546.899 496.004 546.454 497.546C545.81 499.748 521.582 556.845 521.582 556.845C521.582 556.845 520.867 558.991 517.568 558.53C517.115 558.467 516.71 558.252 516.384 557.918C515.597 557.107 514.23 555.446 514.77 554.142C515.517 552.354 539.587 494.971 539.587 494.971C539.587 494.971 539.952 493.079 543.474 493.19H543.481Z" stroke="#FFECDE" stroke-miterlimit="10"/>
<path d="M542.018 493.381C541.517 493.397 541.041 493.604 540.675 493.945C539.872 494.701 538.6 496.195 539.045 497.737C539.689 499.939 563.917 557.036 563.917 557.036C563.917 557.036 564.633 559.182 567.932 558.721C568.385 558.657 568.79 558.443 569.116 558.109C569.903 557.298 571.27 555.637 570.73 554.333C569.982 552.545 545.913 495.162 545.913 495.162C545.913 495.162 545.548 493.27 542.026 493.381H542.018Z" stroke="#FFECDE" stroke-miterlimit="10"/>
<path d="M542.853 500.058C545.009 500.058 546.756 498.31 546.756 496.155C546.756 493.999 545.009 492.252 542.853 492.252C540.698 492.252 538.95 493.999 538.95 496.155C538.95 498.31 540.698 500.058 542.853 500.058Z" fill="#FFECDE"/>
<path d="M316.798 503.801C314.23 497.585 308.165 493.531 301.441 493.531H296.791C290.066 493.531 284.001 497.585 281.433 503.801L274.86 519.723C273.183 523.785 273.183 528.348 274.86 532.409L281.433 548.331C284.001 554.547 290.066 558.601 296.791 558.601H301.441C308.165 558.601 314.23 554.547 316.798 548.331" stroke="#FFECDE" stroke-miterlimit="10"/>
<path d="M316.798 507.029C318.44 507.029 319.771 505.698 319.771 504.056C319.771 502.414 318.44 501.083 316.798 501.083C315.156 501.083 313.825 502.414 313.825 504.056C313.825 505.698 315.156 507.029 316.798 507.029Z" fill="#FFECDE"/>
<path d="M370.189 503.786H340.103C339.053 503.786 338.004 503.611 337.011 503.261L332.655 501.743C329.125 500.511 329.125 495.519 332.655 494.287L337.154 492.721C338.052 492.411 338.998 492.252 339.944 492.252H370.189C371.151 492.252 372.113 492.411 373.027 492.729L377.701 494.358C381.167 495.567 381.167 500.471 377.701 501.679L373.027 503.309C372.113 503.627 371.159 503.786 370.189 503.786Z" stroke="#FFECDE" stroke-miterlimit="10"/>
<path d="M355.149 492.348V558.109" stroke="#FFECDE" stroke-miterlimit="10"/>
<path d="M355.15 506.759C356.792 506.759 358.123 505.428 358.123 503.786C358.123 502.144 356.792 500.813 355.15 500.813C353.508 500.813 352.177 502.144 352.177 503.786C352.177 505.428 353.508 506.759 355.15 506.759Z" fill="#FFECDE"/>
<path d="M622.543 513.127V539.033C622.543 542.157 621.183 545.13 618.815 547.165L608.338 556.202C604.594 559.438 599.038 559.438 595.294 556.202L584.817 547.165C582.449 545.122 581.089 542.157 581.089 539.033V513.127C581.089 510.004 582.449 507.031 584.817 504.996L595.294 495.958C599.038 492.723 604.594 492.723 608.338 495.958L618.815 504.996C621.183 507.039 622.543 510.004 622.543 513.127Z" stroke="#FFECDE" stroke-miterlimit="10"/>
<path d="M581.097 526.085H622.543" stroke="#FFECDE" stroke-miterlimit="10"/>
<path d="M601.82 529.057C603.462 529.057 604.793 527.726 604.793 526.084C604.793 524.443 603.462 523.112 601.82 523.112C600.178 523.112 598.847 524.443 598.847 526.084C598.847 527.726 600.178 529.057 601.82 529.057Z" fill="#FFECDE"/>
<path d="M138.867 495.845C138.398 495.678 137.881 495.678 137.404 495.845C136.371 496.203 134.614 497.029 134.439 498.508C134.185 500.63 134.439 558.236 134.439 558.236C134.439 558.236 134.273 560.334 137.492 561.121C137.929 561.232 138.398 561.193 138.819 561.026C139.853 560.612 141.76 559.682 141.76 558.371V498.77C141.76 498.77 142.158 497.021 138.867 495.845Z" stroke="#FFECDE" stroke-miterlimit="10"/>
<path d="M134.351 530.24H90.5293" stroke="#FFECDE" stroke-miterlimit="10"/>
<path d="M90.5293 561.685V495.225" stroke="#FFECDE" stroke-miterlimit="10"/>
<path d="M90.5295 498.198C92.1714 498.198 93.5024 496.867 93.5024 495.225C93.5024 493.583 92.1714 492.252 90.5295 492.252C88.8876 492.252 87.5566 493.583 87.5566 495.225C87.5566 496.867 88.8876 498.198 90.5295 498.198Z" fill="#FFECDE"/>
<path d="M47 505.065H67.2084C68.1782 505.065 69.132 504.906 70.0462 504.588L74.7201 502.959C78.1858 501.751 78.1858 496.846 74.7201 495.638L70.0462 494.008C69.132 493.69 68.1702 493.531 67.2084 493.531H47M29.6738 503.022C27.9869 502.434 27.1063 500.986 27.032 499.5C26.9508 497.877 27.8314 496.21 29.6738 495.566" stroke="#FFECDE" stroke-miterlimit="10"/>
<path d="M52.1692 493.628V559.389" stroke="#FFECDE" stroke-miterlimit="10"/>
<path d="M52.1694 508.039C53.8113 508.039 55.1423 506.708 55.1423 505.066C55.1423 503.424 53.8113 502.093 52.1694 502.093C50.5276 502.093 49.1965 503.424 49.1965 505.066C49.1965 506.708 50.5276 508.039 52.1694 508.039Z" fill="#FFECDE"/>
<path d="M-3.59766 497.22L16.7912 521.027" stroke="#FFECDE" stroke-miterlimit="10"/>
<path d="M189.736 503.447C188.094 503.447 186.763 504.778 186.763 506.42C186.763 508.062 188.094 509.393 189.736 509.393C191.378 509.393 192.709 508.062 192.709 506.42C192.709 504.778 191.378 503.447 189.736 503.447Z" fill="#FFECDE"/>
<path d="M187.598 524.536C185.956 524.536 184.625 525.867 184.625 527.509C184.625 529.151 185.956 530.482 187.598 530.482C189.24 530.482 190.571 529.151 190.571 527.509C190.571 525.867 189.24 524.536 187.598 524.536Z" fill="#FFECDE"/>
<path d="M152.011 527.508H187.598" stroke="#FFECDE" stroke-miterlimit="10"/>
<path d="M189.736 548.605L179.26 557.643C175.516 560.878 169.96 560.878 166.216 557.643L155.739 548.605C153.37 546.562 152.011 543.597 152.011 540.473V514.568C152.011 511.444 153.37 508.471 155.739 506.436L166.216 497.398C169.96 494.163 175.516 494.163 179.26 497.398L189.736 506.436" stroke="#FFECDE" stroke-miterlimit="10"/>
<path d="M223.245 254.866H246.75" stroke="#FFECDE" stroke-miterlimit="10"/>
<path d="M247.688 257.839C249.33 257.839 250.661 256.508 250.661 254.866C250.661 253.224 249.33 251.893 247.688 251.893C246.046 251.893 244.715 253.224 244.715 254.866C244.715 256.508 246.046 257.839 247.688 257.839Z" fill="#FFECDE"/>
<path d="M221.854 257.839C223.496 257.839 224.827 256.508 224.827 254.866C224.827 253.224 223.496 251.893 221.854 251.893C220.212 251.893 218.881 253.224 218.881 254.866C218.881 256.508 220.212 257.839 221.854 257.839Z" fill="#FFECDE"/>
<path d="M235.725 209.978C236.225 209.994 236.702 210.201 237.068 210.543C237.871 211.298 239.143 212.792 238.697 214.334C238.054 216.536 213.825 273.633 213.825 273.633C213.825 273.633 213.11 275.779 209.811 275.318C209.358 275.255 208.953 275.04 208.627 274.706C207.84 273.895 206.473 272.234 207.013 270.93C207.76 269.142 231.83 211.759 231.83 211.759C231.83 211.759 232.195 209.867 235.717 209.978H235.725Z" stroke="#FFECDE" stroke-miterlimit="10"/>
<path d="M235.105 216.854C237.26 216.854 239.008 215.107 239.008 212.951C239.008 210.796 237.26 209.049 235.105 209.049C232.949 209.049 231.202 210.796 231.202 212.951C231.202 215.107 232.949 216.854 235.105 216.854Z" fill="#FFECDE"/>
<path d="M27.1547 220.582C26.0498 220.582 24.9529 220.376 23.9195 219.97L19.6032 218.277C16.4555 217.045 16.4555 212.594 19.6032 211.354L24.0705 209.605M47 220.582H53.3383H53.3462C54.3637 220.582 55.3653 220.392 56.3112 220.018L60.9215 218.214C64.0136 217.005 64.0136 212.626 60.9215 211.417L56.3112 209.613C55.3653 209.239 54.3637 209.049 53.3462 209.049H47" stroke="#FFECDE" stroke-miterlimit="10"/>
<path d="M23.9195 274.658L19.6032 272.965C16.4555 271.733 16.4555 267.282 19.6032 266.042L24.0705 264.293M47 263.736H53.3462C54.3637 263.736 55.3653 263.927 56.3112 264.301L60.9215 266.105C64.0136 267.313 64.0136 271.693 60.9215 272.901L56.3112 274.706C55.3653 275.079 54.3637 275.27 53.3462 275.27H53.3383H47" stroke="#FFECDE" stroke-miterlimit="10"/>
<path d="M17.2346 214.811V269.611" stroke="#FFECDE" stroke-miterlimit="10"/>
<path d="M65.7864 242.513H47" stroke="#FFECDE" stroke-miterlimit="10"/>
<path d="M65.7861 245.486C67.428 245.486 68.759 244.155 68.759 242.513C68.759 240.871 67.428 239.54 65.7861 239.54C64.1442 239.54 62.8132 240.871 62.8132 242.513C62.8132 244.155 64.1442 245.486 65.7861 245.486Z" fill="#FFECDE"/>
<path d="M4.08965 209.174C3.62067 209.007 3.10397 209.007 2.62704 209.174C1.59368 209.531 -0.163002 210.358 -0.337877 211.837C-0.592241 213.959 -0.337877 271.564 -0.337877 271.564C-0.337877 271.564 -0.504831 273.663 2.71446 274.45C3.15165 274.561 3.62062 274.521 4.04191 274.355C5.07527 273.941 6.983 273.011 6.983 271.7V212.099C6.983 212.099 7.38049 210.35 4.08965 209.174Z" stroke="#FFECDE" stroke-miterlimit="10"/>
<path d="M0.385965 210.541L-17.9282 232.122" stroke="#FFECDE" stroke-miterlimit="10"/>
<path d="M186.542 220.582H156.456C155.407 220.582 154.357 220.407 153.364 220.058L149.008 218.539C145.479 217.307 145.479 212.315 149.008 211.083L153.507 209.517C154.405 209.207 155.351 209.048 156.297 209.048H186.542C187.504 209.048 188.466 209.207 189.38 209.525L194.054 211.155C197.52 212.363 197.52 217.267 194.054 218.476L189.38 220.105C188.466 220.423 187.512 220.582 186.542 220.582Z" stroke="#FFECDE" stroke-miterlimit="10"/>
<path d="M171.503 209.144V274.905" stroke="#FFECDE" stroke-miterlimit="10"/>
<path d="M171.503 223.555C173.145 223.555 174.476 222.224 174.476 220.582C174.476 218.94 173.145 217.609 171.503 217.609C169.861 217.609 168.53 218.94 168.53 220.582C168.53 222.224 169.861 223.555 171.503 223.555Z" fill="#FFECDE"/>
<path d="M82.6133 210.178L103.002 233.985" stroke="#FFECDE" stroke-miterlimit="10"/>
<path d="M81.969 212.435C83.6108 212.435 84.9418 211.104 84.9418 209.462C84.9418 207.82 83.6108 206.489 81.969 206.489C80.3271 206.489 78.9961 207.82 78.9961 209.462C78.9961 211.104 80.3271 212.435 81.969 212.435Z" fill="#FFECDE"/>
<path d="M133.152 278.459C134.794 278.459 136.125 277.128 136.125 275.486C136.125 273.844 134.794 272.513 133.152 272.513C131.51 272.513 130.179 273.844 130.179 275.486C130.179 277.128 131.51 278.459 133.152 278.459Z" fill="#FFECDE"/>
<path d="M123.86 245.161H103.94C102.732 245.161 101.532 244.883 100.451 244.35L96.4364 242.379C93.9643 241.163 93.9643 237.634 96.4364 236.417L100.61 234.367C101.595 233.882 102.668 233.635 103.765 233.635H123.86C124.973 233.635 126.062 233.89 127.063 234.382L131.324 236.481C133.748 237.673 133.748 241.139 131.324 242.331L127.063 244.43C126.07 244.923 124.973 245.177 123.86 245.177V245.161Z" stroke="#FFECDE" stroke-miterlimit="10"/>
<path d="M133.152 209.025V275.486" stroke="#FFECDE" stroke-miterlimit="10"/>
<path d="M1065.41 273.657H1043.48C1041.38 273.657 1039.36 272.823 1037.86 271.328L1031.17 264.643C1028.28 261.758 1028.28 257.068 1031.17 254.183L1037.86 247.498C1039.36 246.011 1041.38 245.169 1043.48 245.169H1065.41C1067.52 245.169 1069.54 246.003 1071.03 247.498L1077.73 254.183C1080.62 257.068 1080.62 261.758 1077.73 264.643L1071.03 271.328C1069.54 272.815 1067.52 273.657 1065.41 273.657Z" stroke="#FFECDE" stroke-miterlimit="10"/>
<path d="M1041.11 207.769V273.283" stroke="#FFECDE" stroke-miterlimit="10"/>
<path d="M1041.11 276.257C1042.75 276.257 1044.08 274.926 1044.08 273.284C1044.08 271.642 1042.75 270.311 1041.11 270.311C1039.46 270.311 1038.13 271.642 1038.13 273.284C1038.13 274.926 1039.46 276.257 1041.11 276.257Z" fill="#FFECDE"/>
<path d="M1067.55 219.589H1041.37C1040.26 219.589 1039.17 219.382 1038.13 218.977L1033.82 217.284C1030.67 216.052 1030.67 211.6 1033.82 210.36L1038.28 208.612C1039.21 208.246 1040.21 208.055 1041.21 208.055H1067.56C1068.58 208.055 1069.58 208.246 1070.52 208.62L1075.13 210.424C1078.23 211.632 1078.23 216.012 1075.13 217.22L1070.52 219.025C1069.58 219.398 1068.58 219.589 1067.56 219.589H1067.55Z" stroke="#FFECDE" stroke-miterlimit="10"/>
<path d="M1155.77 209.049H1143.87C1141.62 209.049 1139.51 210.193 1138.29 212.093L1132.84 220.519C1131.52 222.562 1131.52 225.185 1132.84 227.22L1138.29 235.646C1139.51 237.545 1141.62 238.69 1143.87 238.69H1155.77C1158.03 238.69 1160.14 237.545 1161.36 235.646L1166.81 227.22C1168.13 225.177 1168.13 222.554 1166.81 220.519L1161.36 212.093C1160.14 210.193 1158.03 209.049 1155.77 209.049Z" stroke="#FFECDE" stroke-miterlimit="10"/>
<path d="M1131.86 223.865V250.128" stroke="#FFECDE" stroke-miterlimit="10"/>
<path d="M1167.78 223.865V250.128" stroke="#FFECDE" stroke-miterlimit="10"/>
<path d="M1160.79 246.424H1138.86C1136.75 246.424 1134.73 247.258 1133.24 248.753L1126.55 255.438C1123.65 258.323 1123.65 263.013 1126.55 265.898L1133.24 272.583C1134.73 274.07 1136.75 274.912 1138.86 274.912H1160.79C1162.9 274.912 1164.91 274.078 1166.41 272.583L1173.1 265.898C1176 263.013 1176 258.323 1173.1 255.438L1166.41 248.753C1164.91 247.266 1162.9 246.424 1160.79 246.424Z" stroke="#FFECDE" stroke-miterlimit="10"/>
<path d="M1124.38 260.661V274.897" stroke="#FFECDE" stroke-miterlimit="10"/>
<path d="M1175.26 260.661V274.897" stroke="#FFECDE" stroke-miterlimit="10"/>
<path d="M1167.78 223.388H1131.86" stroke="#FFECDE" stroke-miterlimit="10"/>
<path d="M1093.75 210.178L1114.14 233.985" stroke="#FFECDE" stroke-miterlimit="10"/>
<path d="M1093.11 212.435C1094.75 212.435 1096.08 211.104 1096.08 209.462C1096.08 207.82 1094.75 206.489 1093.11 206.489C1091.46 206.489 1090.13 207.82 1090.13 209.462C1090.13 211.104 1091.46 212.435 1093.11 212.435Z" fill="#FFECDE"/>
<path d="M1189.13 210.178L1209.51 233.985" stroke="#FFECDE" stroke-miterlimit="10"/>
<path d="M1188.48 212.435C1190.12 212.435 1191.45 211.104 1191.45 209.462C1191.45 207.82 1190.12 206.489 1188.48 206.489C1186.84 206.489 1185.51 207.82 1185.51 209.462C1185.51 211.104 1186.84 212.435 1188.48 212.435Z" fill="#FFECDE"/>
</svg>
