<svg width="1069" height="443" viewBox="0 0 1069 443" fill="none" xmlns="http://www.w3.org/2000/svg">
<path d="M701.905 380.95V438.442" stroke="#FF6308" stroke-miterlimit="10"/>
<path d="M701.905 441.021C703.329 441.021 704.483 439.866 704.483 438.442C704.483 437.018 703.329 435.864 701.905 435.864C700.481 435.864 699.326 437.018 699.326 438.442C699.326 439.866 700.481 441.021 701.905 441.021Z" fill="#FF6308"/>
<path d="M727.146 390.747H702.822C701.884 390.747 700.954 390.581 700.078 390.257L696.307 388.865C693.418 387.796 693.418 383.708 696.307 382.639L700.209 381.198C701.002 380.902 701.843 380.757 702.691 380.757H727.152C728.014 380.757 728.862 380.909 729.669 381.205L733.702 382.701C736.543 383.749 736.543 387.768 733.702 388.816L729.669 390.313C728.862 390.609 728.014 390.761 727.152 390.761L727.146 390.747Z" stroke="#FF6308" stroke-miterlimit="10"/>
<path d="M811.919 422.716H832.306" stroke="#FF6308" stroke-miterlimit="10"/>
<path d="M833.12 425.295C834.544 425.295 835.698 424.14 835.698 422.716C835.698 421.292 834.544 420.138 833.12 420.138C831.696 420.138 830.541 421.292 830.541 422.716C830.541 424.14 831.696 425.295 833.12 425.295Z" fill="#FF6308"/>
<path d="M810.713 425.295C812.137 425.295 813.292 424.14 813.292 422.716C813.292 421.292 812.137 420.138 810.713 420.138C809.289 420.138 808.135 421.292 808.135 422.716C808.135 424.14 809.289 425.295 810.713 425.295Z" fill="#FF6308"/>
<path d="M822.744 383.783C823.178 383.797 823.592 383.976 823.909 384.273C824.605 384.928 825.708 386.224 825.322 387.561C824.764 389.471 803.75 438.994 803.75 438.994C803.75 438.994 803.129 440.855 800.268 440.455C799.875 440.4 799.523 440.214 799.241 439.924C798.558 439.221 797.372 437.78 797.841 436.649C798.489 435.098 819.366 385.327 819.366 385.327C819.366 385.327 819.683 383.687 822.737 383.783H822.744Z" stroke="#FF6308" stroke-miterlimit="10"/>
<path d="M822.206 389.747C824.076 389.747 825.591 388.231 825.591 386.361C825.591 384.492 824.076 382.976 822.206 382.976C820.337 382.976 818.821 384.492 818.821 386.361C818.821 388.231 820.337 389.747 822.206 389.747Z" fill="#FF6308"/>
<path d="M771.944 382.976H761.623C759.665 382.976 757.838 383.969 756.776 385.617L752.054 392.925C750.909 394.697 750.909 396.972 752.054 398.737L756.776 406.045C757.838 407.693 759.665 408.686 761.623 408.686H771.944C773.902 408.686 775.729 407.693 776.791 406.045L781.513 398.737C782.658 396.965 782.658 394.69 781.513 392.925L776.791 385.617C775.729 383.969 773.902 382.976 771.944 382.976Z" stroke="#FF6308" stroke-miterlimit="10"/>
<path d="M751.198 395.828V418.607" stroke="#FF6308" stroke-miterlimit="10"/>
<path d="M782.361 395.828V418.607" stroke="#FF6308" stroke-miterlimit="10"/>
<path d="M776.294 415.394H757.272C755.445 415.394 753.694 416.118 752.398 417.414L746.593 423.212C744.083 425.715 744.083 429.782 746.593 432.285L752.398 438.083C753.694 439.372 755.445 440.103 757.272 440.103H776.294C778.121 440.103 779.872 439.379 781.168 438.083L786.973 432.285C789.483 429.782 789.483 425.715 786.973 423.212L781.168 417.414C779.872 416.124 778.121 415.394 776.294 415.394Z" stroke="#FF6308" stroke-miterlimit="10"/>
<path d="M744.711 427.742V440.09" stroke="#FF6308" stroke-miterlimit="10"/>
<path d="M788.849 427.742V440.09" stroke="#FF6308" stroke-miterlimit="10"/>
<path d="M782.361 395.414H751.198" stroke="#FF6308" stroke-miterlimit="10"/>
<path d="M601.724 393.558L637.85 436.144" stroke="#FF6308" stroke-miterlimit="10"/>
<path d="M637.85 438.723C639.275 438.723 640.429 437.569 640.429 436.144C640.429 434.72 639.275 433.566 637.85 433.566C636.426 433.566 635.272 434.72 635.272 436.144C635.272 437.569 636.426 438.723 637.85 438.723Z" fill="#FF6308"/>
<path d="M597.752 383.085C598.159 382.94 598.607 382.94 599.021 383.085C599.917 383.395 601.441 384.112 601.592 385.395C601.813 387.235 601.592 437.199 601.592 437.199C601.592 437.199 601.737 439.019 598.945 439.702C598.566 439.799 598.159 439.764 597.793 439.619C596.897 439.261 595.243 438.454 595.243 437.317V385.622C595.243 385.622 594.898 384.105 597.752 383.085Z" stroke="#FF6308" stroke-miterlimit="10"/>
<path d="M601.42 429.836L637.85 386.946" stroke="#FF6308" stroke-miterlimit="10"/>
<path d="M637.85 389.524C639.275 389.524 640.429 388.37 640.429 386.946C640.429 385.522 639.275 384.367 637.85 384.367C636.426 384.367 635.272 385.522 635.272 386.946C635.272 388.37 636.426 389.524 637.85 389.524Z" fill="#FF6308"/>
<path d="M685.262 399.973V422.442C685.262 425.151 684.083 427.73 682.028 429.495L672.941 437.334C669.694 440.14 664.875 440.14 661.628 437.334L652.541 429.495C650.486 427.723 649.307 425.151 649.307 422.442V399.973C649.307 397.263 650.486 394.685 652.541 392.92L661.628 385.081C664.875 382.275 669.694 382.275 672.941 385.081L682.028 392.92C684.083 394.692 685.262 397.263 685.262 399.973Z" stroke="#FF6308" stroke-miterlimit="10"/>
<path d="M649.314 411.211H685.262" stroke="#FF6308" stroke-miterlimit="10"/>
<path d="M667.288 413.789C668.712 413.789 669.867 412.635 669.867 411.211C669.867 409.787 668.712 408.632 667.288 408.632C665.864 408.632 664.71 409.787 664.71 411.211C664.71 412.635 665.864 413.789 667.288 413.789Z" fill="#FF6308"/>
<path d="M1010.18 437.905H991.16C989.333 437.905 987.582 437.181 986.285 435.885L980.48 430.087C977.971 427.584 977.971 423.516 980.48 421.014L986.285 415.215C987.582 413.926 989.333 413.195 991.16 413.195H1010.18C1012.01 413.195 1013.76 413.919 1015.06 415.215L1020.86 421.014C1023.37 423.516 1023.37 427.584 1020.86 430.087L1015.06 435.885C1013.76 437.174 1012.01 437.905 1010.18 437.905Z" stroke="#FF6308" stroke-miterlimit="10"/>
<path d="M989.098 380.757V437.581" stroke="#FF6308" stroke-miterlimit="10"/>
<path d="M989.098 440.159C990.522 440.159 991.677 439.005 991.677 437.581C991.677 436.157 990.522 435.002 989.098 435.002C987.674 435.002 986.52 436.157 986.52 437.581C986.52 439.005 987.674 440.159 989.098 440.159Z" fill="#FF6308"/>
<path d="M1012.04 391.009H989.326C988.368 391.009 987.417 390.83 986.52 390.478L982.777 389.009C980.046 387.941 980.046 384.08 982.777 383.004L986.651 381.488C987.458 381.17 988.32 381.005 989.188 381.005H1012.04C1012.93 381.005 1013.79 381.17 1014.62 381.495L1018.61 383.06C1021.3 384.107 1021.3 387.906 1018.61 388.954L1014.62 390.519C1013.79 390.843 1012.93 391.009 1012.04 391.009H1012.04Z" stroke="#FF6308" stroke-miterlimit="10"/>
<path d="M966.582 396.109L931.214 437.413" stroke="#FF6308" stroke-miterlimit="10"/>
<path d="M967.14 398.067C968.564 398.067 969.719 396.912 969.719 395.488C969.719 394.064 968.564 392.91 967.14 392.91C965.716 392.91 964.562 394.064 964.562 395.488C964.562 396.912 965.716 398.067 967.14 398.067Z" fill="#FF6308"/>
<path d="M927.849 381.975C928.256 381.831 928.704 381.831 929.118 381.975C930.014 382.286 931.538 383.003 931.689 384.285C931.91 386.126 931.689 436.09 931.689 436.09C931.689 436.09 931.834 437.91 929.042 438.592C928.663 438.689 928.256 438.654 927.891 438.51C926.994 438.151 925.34 437.344 925.34 436.207V384.512C925.34 384.512 924.995 382.996 927.849 381.975Z" stroke="#FF6308" stroke-miterlimit="10"/>
<path d="M892.708 381.571C893.142 381.584 893.556 381.764 893.873 382.06C894.569 382.715 895.672 384.011 895.286 385.349C894.728 387.258 873.714 436.781 873.714 436.781C873.714 436.781 873.093 438.643 870.232 438.243C869.839 438.187 869.487 438.001 869.205 437.712C868.522 437.009 867.336 435.568 867.805 434.437C868.453 432.886 889.33 383.115 889.33 383.115C889.33 383.115 889.647 381.474 892.701 381.571H892.708Z" stroke="#FF6308" stroke-miterlimit="10"/>
<path d="M891.439 381.736C891.005 381.75 890.591 381.929 890.274 382.225C889.578 382.88 888.474 384.176 888.861 385.514C889.419 387.424 910.433 436.946 910.433 436.946C910.433 436.946 911.054 438.808 913.915 438.408C914.308 438.353 914.659 438.167 914.942 437.877C915.625 437.174 916.811 435.733 916.342 434.602C915.694 433.051 894.817 383.28 894.817 383.28C894.817 383.28 894.5 381.639 891.446 381.736H891.439Z" stroke="#FF6308" stroke-miterlimit="10"/>
<path d="M892.164 387.527C894.033 387.527 895.549 386.012 895.549 384.142C895.549 382.272 894.033 380.757 892.164 380.757C890.294 380.757 888.779 382.272 888.779 384.142C888.779 386.012 890.294 387.527 892.164 387.527Z" fill="#FF6308"/>
<path d="M1067.58 398.863V421.332C1067.58 424.042 1066.4 426.62 1064.34 428.385L1055.26 436.224C1052.01 439.03 1047.19 439.03 1043.94 436.224L1034.85 428.385C1032.8 426.613 1031.62 424.042 1031.62 421.332V398.863C1031.62 396.154 1032.8 393.575 1034.85 391.81L1043.94 383.971C1047.19 381.165 1052.01 381.165 1055.26 383.971L1064.34 391.81C1066.4 393.582 1067.58 396.154 1067.58 398.863Z" stroke="#FF6308" stroke-miterlimit="10"/>
<path d="M1031.63 410.101H1067.58" stroke="#FF6308" stroke-miterlimit="10"/>
<path d="M1049.6 412.68C1051.03 412.68 1052.18 411.525 1052.18 410.101C1052.18 408.677 1051.03 407.523 1049.6 407.523C1048.18 407.523 1047.02 408.677 1047.02 410.101C1047.02 411.525 1048.18 412.68 1049.6 412.68Z" fill="#FF6308"/>
<path d="M496.742 391.98H474.032C473.074 391.98 472.122 391.801 471.226 391.45L467.482 389.981C464.752 388.912 464.752 385.052 467.482 383.976L471.357 382.459C472.164 382.142 473.025 381.977 473.894 381.977H496.749C497.632 381.977 498.5 382.142 499.321 382.466L503.32 384.031C506.001 385.079 506.001 388.878 503.32 389.926L499.321 391.491C498.5 391.815 497.632 391.98 496.749 391.98H496.742Z" stroke="#FF6308" stroke-miterlimit="10"/>
<path d="M496.742 439.414H474.032C473.074 439.414 472.122 439.235 471.226 438.883L467.482 437.415C464.752 436.346 464.752 432.485 467.482 431.41L471.357 429.893C472.164 429.576 473.025 429.41 473.894 429.41H496.749C497.632 429.41 498.5 429.576 499.321 429.9L503.319 431.465C506.001 432.513 506.001 436.311 503.319 437.359L499.321 438.924C498.5 439.248 497.632 439.414 496.749 439.414H496.742Z" stroke="#FF6308" stroke-miterlimit="10"/>
<path d="M465.428 386.975V434.505" stroke="#FF6308" stroke-miterlimit="10"/>
<path d="M507.539 411.002H465.428" stroke="#FF6308" stroke-miterlimit="10"/>
<path d="M507.54 413.581C508.964 413.581 510.118 412.426 510.118 411.002C510.118 409.578 508.964 408.424 507.54 408.424C506.116 408.424 504.961 409.578 504.961 411.002C504.961 412.426 506.116 413.581 507.54 413.581Z" fill="#FF6308"/>
<path d="M521.519 382.182C521.926 382.037 522.374 382.037 522.788 382.182C523.684 382.492 525.208 383.209 525.359 384.491C525.58 386.332 525.359 436.296 525.359 436.296C525.359 436.296 525.504 438.116 522.712 438.799C522.333 438.895 521.926 438.861 521.561 438.716C520.664 438.357 519.01 437.551 519.01 436.413V384.719C519.01 384.719 518.665 383.202 521.519 382.182Z" stroke="#FF6308" stroke-miterlimit="10"/>
<path d="M524.732 383.368L540.617 402.086" stroke="#FF6308" stroke-miterlimit="10"/>
<path d="M560.707 382.085C560.3 381.94 559.852 381.94 559.438 382.085C558.542 382.396 557.018 383.113 556.867 384.395C556.646 386.236 556.867 436.2 556.867 436.2C556.867 436.2 556.722 438.02 559.514 438.702C559.893 438.799 560.3 438.764 560.665 438.62C561.562 438.261 563.216 437.454 563.216 436.317V384.622C563.216 384.622 563.561 383.106 560.707 382.085Z" stroke="#FF6308" stroke-miterlimit="10"/>
<path d="M557.494 383.271L541.609 401.99" stroke="#FF6308" stroke-miterlimit="10"/>
<path d="M540.927 404.34C542.351 404.34 543.505 403.186 543.505 401.762C543.505 400.338 542.351 399.183 540.927 399.183C539.502 399.183 538.348 400.338 538.348 401.762C538.348 403.186 539.502 404.34 540.927 404.34Z" fill="#FF6308"/>
<path d="M410.136 382.955L427.821 403.604" stroke="#FF6308" stroke-miterlimit="10"/>
<path d="M409.579 384.914C411.003 384.914 412.157 383.759 412.157 382.335C412.157 380.911 411.003 379.757 409.579 379.757C408.154 379.757 407 380.911 407 382.335C407 383.759 408.154 384.914 409.579 384.914Z" fill="#FF6308"/>
<path d="M453.971 442.179C455.395 442.179 456.55 441.025 456.55 439.6C456.55 438.176 455.395 437.022 453.971 437.022C452.547 437.022 451.393 438.176 451.393 439.6C451.393 441.025 452.547 442.179 453.971 442.179Z" fill="#FF6308"/>
<path d="M445.912 413.298H428.635C427.587 413.298 426.546 413.057 425.608 412.595L422.126 410.885C419.982 409.83 419.982 406.769 422.126 405.714L425.746 403.936C426.601 403.515 427.532 403.301 428.483 403.301H445.912C446.877 403.301 447.822 403.522 448.691 403.949L452.386 405.77C454.489 406.804 454.489 409.81 452.386 410.844L448.691 412.664C447.829 413.091 446.877 413.312 445.912 413.312V413.298Z" stroke="#FF6308" stroke-miterlimit="10"/>
<path d="M453.971 381.956V439.6" stroke="#FF6308" stroke-miterlimit="10"/>
<path d="M626.467 345.206H607.445C605.618 345.206 603.867 344.482 602.571 343.186L596.766 337.388C594.256 334.885 594.256 330.817 596.766 328.315L602.571 322.516C603.867 321.227 605.618 320.496 607.445 320.496H626.467C628.294 320.496 630.045 321.22 631.341 322.516L637.146 328.315C639.656 330.817 639.656 334.885 637.146 337.388L631.341 343.186C630.045 344.475 628.294 345.206 626.467 345.206Z" stroke="#FF6308" stroke-miterlimit="10"/>
<path d="M605.383 288.058V344.882" stroke="#FF6308" stroke-miterlimit="10"/>
<path d="M605.384 347.46C606.808 347.46 607.962 346.306 607.962 344.882C607.962 343.458 606.808 342.303 605.384 342.303C603.959 342.303 602.805 343.458 602.805 344.882C602.805 346.306 603.959 347.46 605.384 347.46Z" fill="#FF6308"/>
<path d="M628.322 298.31H605.612C604.653 298.31 603.702 298.131 602.806 297.779L599.062 296.31C596.332 295.242 596.332 291.381 599.062 290.305L602.937 288.789C603.743 288.471 604.605 288.306 605.474 288.306H628.329C629.211 288.306 630.08 288.471 630.9 288.796L634.899 290.361C637.581 291.409 637.581 295.207 634.899 296.255L630.9 297.82C630.08 298.144 629.211 298.31 628.329 298.31H628.322Z" stroke="#FF6308" stroke-miterlimit="10"/>
<path d="M845.923 299.172H823.212C822.254 299.172 821.303 298.993 820.406 298.641L816.663 297.172C813.933 296.104 813.933 292.243 816.663 291.167L820.537 289.651C821.344 289.333 822.206 289.168 823.075 289.168H845.93C846.812 289.168 847.681 289.333 848.501 289.657L852.5 291.223C855.182 292.27 855.182 296.069 852.5 297.117L848.501 298.682C847.681 299.006 846.812 299.172 845.93 299.172H845.923Z" stroke="#FF6308" stroke-miterlimit="10"/>
<path d="M845.923 346.605H823.212C822.254 346.605 821.303 346.426 820.406 346.075L816.663 344.606C813.932 343.537 813.932 339.677 816.663 338.601L820.537 337.084C821.344 336.767 822.206 336.602 823.074 336.602H845.929C846.812 336.602 847.681 336.767 848.501 337.091L852.5 338.656C855.182 339.704 855.182 343.503 852.5 344.551L848.501 346.116C847.681 346.44 846.812 346.605 845.929 346.605H845.923Z" stroke="#FF6308" stroke-miterlimit="10"/>
<path d="M814.608 294.167V341.697" stroke="#FF6308" stroke-miterlimit="10"/>
<path d="M856.72 318.194H814.608" stroke="#FF6308" stroke-miterlimit="10"/>
<path d="M856.72 320.772C858.144 320.772 859.299 319.618 859.299 318.194C859.299 316.77 858.144 315.615 856.72 315.615C855.296 315.615 854.142 316.77 854.142 318.194C854.142 319.618 855.296 320.772 856.72 320.772Z" fill="#FF6308"/>
<path d="M746.79 304.52L711.422 345.825" stroke="#FF6308" stroke-miterlimit="10"/>
<path d="M747.348 306.478C748.772 306.478 749.927 305.323 749.927 303.899C749.927 302.475 748.772 301.321 747.348 301.321C745.924 301.321 744.77 302.475 744.77 303.899C744.77 305.323 745.924 306.478 747.348 306.478Z" fill="#FF6308"/>
<path d="M708.058 290.386C708.464 290.242 708.912 290.242 709.326 290.386C710.222 290.697 711.746 291.414 711.898 292.696C712.118 294.537 711.898 344.501 711.898 344.501C711.898 344.501 712.043 346.321 709.25 347.003C708.871 347.1 708.464 347.065 708.099 346.921C707.203 346.562 705.548 345.755 705.548 344.618V292.923C705.548 292.923 705.203 291.407 708.058 290.386Z" stroke="#FF6308" stroke-miterlimit="10"/>
<path d="M672.916 289.982C673.35 289.996 673.764 290.175 674.081 290.471C674.778 291.126 675.881 292.423 675.495 293.76C674.936 295.67 653.922 345.192 653.922 345.192C653.922 345.192 653.301 347.054 650.44 346.654C650.047 346.599 649.696 346.413 649.413 346.123C648.73 345.42 647.545 343.979 648.013 342.848C648.662 341.297 669.538 291.526 669.538 291.526C669.538 291.526 669.855 289.885 672.909 289.982H672.916Z" stroke="#FF6308" stroke-miterlimit="10"/>
<path d="M671.647 290.147C671.213 290.161 670.799 290.34 670.482 290.637C669.786 291.292 668.683 292.588 669.069 293.925C669.627 295.835 690.641 345.358 690.641 345.358C690.641 345.358 691.262 347.219 694.123 346.819C694.516 346.764 694.868 346.578 695.15 346.288C695.833 345.585 697.019 344.144 696.55 343.014C695.902 341.462 675.026 291.692 675.026 291.692C675.026 291.692 674.708 290.051 671.654 290.147H671.647Z" stroke="#FF6308" stroke-miterlimit="10"/>
<path d="M672.372 295.939C674.242 295.939 675.757 294.423 675.757 292.553C675.757 290.684 674.242 289.168 672.372 289.168C670.502 289.168 668.987 290.684 668.987 292.553C668.987 294.423 670.502 295.939 672.372 295.939Z" fill="#FF6308"/>
<path d="M803.193 299.112L798.05 291.273C796.209 288.467 793.479 288.467 791.638 291.273L786.495 299.112C785.329 300.884 784.661 303.455 784.661 306.165V328.634C784.661 331.343 785.329 333.922 786.495 335.687L791.638 343.526C793.479 346.332 796.209 346.332 798.05 343.526L803.193 335.687" stroke="#FF6308" stroke-miterlimit="10"/>
<path d="M803.152 338.169C804.576 338.169 805.73 337.014 805.73 335.59C805.73 334.166 804.576 333.012 803.152 333.012C801.728 333.012 800.573 334.166 800.573 335.59C800.573 337.014 801.728 338.169 803.152 338.169Z" fill="#FF6308"/>
<path d="M761.344 335.694L766.487 343.533C768.328 346.339 771.058 346.339 772.899 343.533L778.042 335.694C779.207 333.922 779.876 331.35 779.876 328.641V306.172C779.876 303.462 779.207 300.884 778.042 299.119L772.899 291.28C771.058 288.474 768.328 288.474 766.487 291.28L761.344 299.119" stroke="#FF6308" stroke-miterlimit="10"/>
<path d="M761.385 301.794C762.809 301.794 763.963 300.639 763.963 299.215C763.963 297.791 762.809 296.637 761.385 296.637C759.961 296.637 758.806 297.791 758.806 299.215C758.806 300.639 759.961 301.794 761.385 301.794Z" fill="#FF6308"/>
<path d="M782.171 289.294V346.745" stroke="#FF6308" stroke-miterlimit="10"/>
<path d="M334.814 299.172H312.103C311.145 299.172 310.194 298.993 309.297 298.641L305.554 297.172C302.824 296.104 302.824 292.243 305.554 291.167L309.428 289.651C310.235 289.333 311.097 289.168 311.966 289.168H334.821C335.703 289.168 336.572 289.333 337.392 289.657L341.391 291.223C344.073 292.27 344.073 296.069 341.391 297.117L337.392 298.682C336.572 299.006 335.703 299.172 334.821 299.172H334.814Z" stroke="#FF6308" stroke-miterlimit="10"/>
<path d="M334.814 346.605H312.103C311.145 346.605 310.194 346.426 309.297 346.074L305.554 344.606C302.824 343.537 302.824 339.676 305.554 338.601L309.428 337.084C310.235 336.767 311.097 336.601 311.966 336.601H334.821C335.703 336.601 336.572 336.767 337.392 337.091L341.391 338.656C344.073 339.704 344.073 343.503 341.391 344.551L337.392 346.116C336.572 346.44 335.703 346.605 334.821 346.605H334.814Z" stroke="#FF6308" stroke-miterlimit="10"/>
<path d="M303.5 294.167V341.697" stroke="#FF6308" stroke-miterlimit="10"/>
<path d="M345.611 318.193H303.5" stroke="#FF6308" stroke-miterlimit="10"/>
<path d="M345.611 320.772C347.035 320.772 348.19 319.618 348.19 318.194C348.19 316.77 347.035 315.615 345.611 315.615C344.187 315.615 343.033 316.77 343.033 318.194C343.033 319.618 344.187 320.772 345.611 320.772Z" fill="#FF6308"/>
<path d="M443.46 299.172H420.75C419.792 299.172 418.84 298.993 417.944 298.641L414.2 297.172C411.47 296.104 411.47 292.243 414.2 291.167L418.075 289.651C418.882 289.333 419.744 289.168 420.612 289.168H443.467C444.35 289.168 445.218 289.333 446.039 289.657L450.038 291.223C452.72 292.27 452.72 296.069 450.038 297.117L446.039 298.682C445.218 299.006 444.35 299.172 443.467 299.172H443.46Z" stroke="#FF6308" stroke-miterlimit="10"/>
<path d="M443.46 346.605H420.75C419.792 346.605 418.84 346.426 417.944 346.074L414.2 344.606C411.47 343.537 411.47 339.676 414.2 338.601L418.075 337.084C418.882 336.767 419.744 336.601 420.612 336.601H443.467C444.35 336.601 445.218 336.767 446.039 337.091L450.038 338.656C452.72 339.704 452.72 343.503 450.038 344.551L446.039 346.116C445.218 346.44 444.35 346.605 443.467 346.605H443.46Z" stroke="#FF6308" stroke-miterlimit="10"/>
<path d="M412.146 294.167V341.697" stroke="#FF6308" stroke-miterlimit="10"/>
<path d="M454.257 318.193H412.146" stroke="#FF6308" stroke-miterlimit="10"/>
<path d="M454.258 320.772C455.682 320.772 456.836 319.618 456.836 318.194C456.836 316.77 455.682 315.615 454.258 315.615C452.834 315.615 451.679 316.77 451.679 318.194C451.679 319.618 452.834 320.772 454.258 320.772Z" fill="#FF6308"/>
<path d="M497.298 290.319H478.276C476.449 290.319 474.698 291.043 473.402 292.34L467.597 298.138C465.087 300.64 465.087 304.708 467.597 307.211L473.402 313.009C474.698 314.298 476.449 315.029 478.276 315.029H497.298C499.125 315.029 500.876 314.305 502.173 313.009L507.978 307.211C510.487 304.708 510.487 300.64 507.978 298.138L502.173 292.34C500.876 291.05 499.125 290.319 497.298 290.319Z" stroke="#FF6308" stroke-miterlimit="10"/>
<path d="M476.215 347.46V290.636" stroke="#FF6308" stroke-miterlimit="10"/>
<path d="M476.215 293.215C477.639 293.215 478.794 292.061 478.794 290.637C478.794 289.213 477.639 288.058 476.215 288.058C474.791 288.058 473.636 289.213 473.636 290.637C473.636 292.061 474.791 293.215 476.215 293.215Z" fill="#FF6308"/>
<path d="M394.498 298.062H368.402C367.492 298.062 366.582 297.91 365.72 297.607L361.942 296.29C358.881 295.221 358.881 290.892 361.942 289.823L365.845 288.465C366.624 288.196 367.444 288.058 368.265 288.058H394.498C395.332 288.058 396.166 288.196 396.959 288.472L401.013 289.885C404.019 290.933 404.019 295.187 401.013 296.235L396.959 297.648C396.166 297.924 395.339 298.062 394.498 298.062Z" stroke="#FF6308" stroke-miterlimit="10"/>
<path d="M359.646 293.064V345.179" stroke="#FF6308" stroke-miterlimit="10"/>
<path d="M359.647 347.757C361.071 347.757 362.225 346.602 362.225 345.178C362.225 343.754 361.071 342.6 359.647 342.6C358.223 342.6 357.068 343.754 357.068 345.178C357.068 346.602 358.223 347.757 359.647 347.757Z" fill="#FF6308"/>
<path d="M403.268 293.064V345.179" stroke="#FF6308" stroke-miterlimit="10"/>
<path d="M285.851 299.172H259.756C258.846 299.172 257.936 299.02 257.074 298.717L253.296 297.4C250.235 296.331 250.235 292.002 253.296 290.933L257.198 289.575C257.977 289.306 258.798 289.168 259.618 289.168H285.851C286.686 289.168 287.52 289.306 288.313 289.582L292.367 290.995C295.373 292.043 295.373 296.297 292.367 297.345L288.313 298.758C287.52 299.034 286.692 299.172 285.851 299.172Z" stroke="#FF6308" stroke-miterlimit="10"/>
<path d="M272.807 289.251V346.288" stroke="#FF6308" stroke-miterlimit="10"/>
<path d="M272.808 301.75C274.232 301.75 275.386 300.596 275.386 299.172C275.386 297.748 274.232 296.593 272.808 296.593C271.383 296.593 270.229 297.748 270.229 299.172C270.229 300.596 271.383 301.75 272.808 301.75Z" fill="#FF6308"/>
<path d="M550.321 345.199H531.3C529.473 345.199 527.721 344.475 526.425 343.179L520.62 337.381C518.111 334.878 518.111 330.81 520.62 328.308L526.425 322.51C527.721 321.22 529.473 320.49 531.3 320.49H550.321C552.148 320.49 553.899 321.213 555.196 322.51L561.001 328.308C563.51 330.81 563.51 334.878 561.001 337.381L555.196 343.179C553.899 344.468 552.148 345.199 550.321 345.199Z" stroke="#FF6308" stroke-miterlimit="10"/>
<path d="M529.238 288.058V344.882" stroke="#FF6308" stroke-miterlimit="10"/>
<path d="M529.238 347.46C530.662 347.46 531.816 346.306 531.816 344.882C531.816 343.458 530.662 342.303 529.238 342.303C527.814 342.303 526.659 343.458 526.659 344.882C526.659 346.306 527.814 347.46 529.238 347.46Z" fill="#FF6308"/>
<path d="M466.743 113.333H444.032C443.074 113.333 442.123 113.154 441.226 112.802L437.483 111.334C434.752 110.265 434.752 106.404 437.483 105.329L441.357 103.812C442.164 103.495 443.026 103.329 443.894 103.329H466.749C467.632 103.329 468.501 103.495 469.321 103.819L473.32 105.384C476.002 106.432 476.002 110.231 473.32 111.279L469.321 112.844C468.501 113.168 467.632 113.333 466.749 113.333H466.743Z" stroke="#FF6308" stroke-miterlimit="10"/>
<path d="M466.743 160.767H444.032C443.074 160.767 442.123 160.587 441.226 160.236L437.483 158.767C434.752 157.699 434.752 153.838 437.483 152.762L441.357 151.246C442.164 150.928 443.026 150.763 443.894 150.763H466.749C467.632 150.763 468.501 150.928 469.321 151.252L473.32 152.817C476.002 153.865 476.002 157.664 473.32 158.712L469.321 160.277C468.501 160.601 467.632 160.767 466.749 160.767H466.743Z" stroke="#FF6308" stroke-miterlimit="10"/>
<path d="M435.428 108.328V155.858" stroke="#FF6308" stroke-miterlimit="10"/>
<path d="M477.539 132.355H435.428" stroke="#FF6308" stroke-miterlimit="10"/>
<path d="M477.54 134.934C478.964 134.934 480.118 133.779 480.118 132.355C480.118 130.931 478.964 129.777 477.54 129.777C476.116 129.777 474.961 130.931 474.961 132.355C474.961 133.779 476.116 134.934 477.54 134.934Z" fill="#FF6308"/>
<path d="M491.52 103.534C491.926 103.39 492.374 103.39 492.788 103.534C493.684 103.845 495.208 104.562 495.36 105.844C495.58 107.685 495.36 157.649 495.36 157.649C495.36 157.649 495.505 159.469 492.712 160.151C492.333 160.248 491.926 160.214 491.561 160.069C490.665 159.71 489.01 158.904 489.01 157.766V106.072C489.01 106.072 488.665 104.555 491.52 103.534Z" stroke="#FF6308" stroke-miterlimit="10"/>
<path d="M494.732 104.721L510.617 123.439" stroke="#FF6308" stroke-miterlimit="10"/>
<path d="M530.707 103.438C530.3 103.293 529.852 103.293 529.438 103.438C528.542 103.748 527.019 104.465 526.867 105.748C526.646 107.588 526.867 157.552 526.867 157.552C526.867 157.552 526.722 159.372 529.514 160.055C529.893 160.152 530.3 160.117 530.666 159.972C531.562 159.614 533.217 158.807 533.217 157.67V105.975C533.217 105.975 533.561 104.458 530.707 103.438Z" stroke="#FF6308" stroke-miterlimit="10"/>
<path d="M527.494 104.624L511.61 123.342" stroke="#FF6308" stroke-miterlimit="10"/>
<path d="M510.927 125.693C512.351 125.693 513.505 124.539 513.505 123.115C513.505 121.69 512.351 120.536 510.927 120.536C509.503 120.536 508.348 121.69 508.348 123.115C508.348 124.539 509.503 125.693 510.927 125.693Z" fill="#FF6308"/>
<path d="M545.245 104.309L562.93 124.958" stroke="#FF6308" stroke-miterlimit="10"/>
<path d="M544.687 106.267C546.111 106.267 547.266 105.112 547.266 103.688C547.266 102.264 546.111 101.11 544.687 101.11C543.263 101.11 542.109 102.264 542.109 103.688C542.109 105.112 543.263 106.267 544.687 106.267Z" fill="#FF6308"/>
<path d="M380.137 104.309L397.821 124.958" stroke="#FF6308" stroke-miterlimit="10"/>
<path d="M379.579 106.267C381.003 106.267 382.157 105.112 382.157 103.688C382.157 102.264 381.003 101.11 379.579 101.11C378.154 101.11 377 102.264 377 103.688C377 105.112 378.154 106.267 379.579 106.267Z" fill="#FF6308"/>
<path d="M423.972 163.532C425.396 163.532 426.55 162.378 426.55 160.954C426.55 159.53 425.396 158.375 423.972 158.375C422.547 158.375 421.393 159.53 421.393 160.954C421.393 162.378 422.547 163.532 423.972 163.532Z" fill="#FF6308"/>
<path d="M415.912 134.652H398.635C397.587 134.652 396.546 134.41 395.608 133.948L392.127 132.239C389.983 131.184 389.983 128.123 392.127 127.068L395.746 125.289C396.601 124.868 397.532 124.655 398.483 124.655H415.912C416.878 124.655 417.822 124.875 418.691 125.303L422.386 127.123C424.489 128.157 424.489 131.163 422.386 132.197L418.691 134.017C417.829 134.445 416.878 134.665 415.912 134.665V134.652Z" stroke="#FF6308" stroke-miterlimit="10"/>
<path d="M423.971 103.309V160.953" stroke="#FF6308" stroke-miterlimit="10"/>
<path d="M762.876 141.959H783.263" stroke="#FF6308" stroke-miterlimit="10"/>
<path d="M784.076 144.538C785.5 144.538 786.655 143.383 786.655 141.959C786.655 140.535 785.5 139.381 784.076 139.381C782.652 139.381 781.498 140.535 781.498 141.959C781.498 143.383 782.652 144.538 784.076 144.538Z" fill="#FF6308"/>
<path d="M761.67 144.538C763.094 144.538 764.248 143.383 764.248 141.959C764.248 140.535 763.094 139.381 761.67 139.381C760.246 139.381 759.091 140.535 759.091 141.959C759.091 143.383 760.246 144.538 761.67 144.538Z" fill="#FF6308"/>
<path d="M773.7 103.026C774.135 103.04 774.548 103.219 774.865 103.516C775.562 104.171 776.665 105.467 776.279 106.804C775.72 108.714 754.706 158.237 754.706 158.237C754.706 158.237 754.086 160.098 751.224 159.698C750.831 159.643 750.48 159.457 750.197 159.168C749.515 158.464 748.329 157.023 748.798 155.893C749.446 154.341 770.322 104.571 770.322 104.571C770.322 104.571 770.639 102.93 773.693 103.026H773.7Z" stroke="#FF6308" stroke-miterlimit="10"/>
<path d="M773.163 108.99C775.032 108.99 776.548 107.474 776.548 105.605C776.548 103.735 775.032 102.22 773.163 102.22C771.293 102.22 769.777 103.735 769.777 105.605C769.777 107.474 771.293 108.99 773.163 108.99Z" fill="#FF6308"/>
<path d="M666.996 102.22H656.675C654.717 102.22 652.89 103.212 651.828 104.86L647.105 112.168C645.961 113.94 645.961 116.215 647.105 117.98L651.828 125.288C652.89 126.936 654.717 127.929 656.675 127.929H666.996C668.954 127.929 670.781 126.936 671.843 125.288L676.565 117.98C677.71 116.208 677.71 113.933 676.565 112.168L671.843 104.86C670.781 103.212 668.954 102.22 666.996 102.22Z" stroke="#FF6308" stroke-miterlimit="10"/>
<path d="M646.25 115.071V137.85" stroke="#FF6308" stroke-miterlimit="10"/>
<path d="M677.413 115.071V137.85" stroke="#FF6308" stroke-miterlimit="10"/>
<path d="M671.346 134.637H652.324C650.497 134.637 648.746 135.361 647.45 136.657L641.645 142.455C639.135 144.958 639.135 149.026 641.645 151.528L647.45 157.327C648.746 158.616 650.497 159.347 652.324 159.347H671.346C673.173 159.347 674.924 158.623 676.22 157.327L682.026 151.528C684.535 149.026 684.535 144.958 682.026 142.455L676.22 136.657C674.924 135.368 673.173 134.637 671.346 134.637Z" stroke="#FF6308" stroke-miterlimit="10"/>
<path d="M639.763 146.985V159.333" stroke="#FF6308" stroke-miterlimit="10"/>
<path d="M683.901 146.985V159.333" stroke="#FF6308" stroke-miterlimit="10"/>
<path d="M677.413 114.657H646.25" stroke="#FF6308" stroke-miterlimit="10"/>
<path d="M878.569 102.22H868.248C866.29 102.22 864.463 103.212 863.401 104.86L858.678 112.168C857.534 113.94 857.534 116.215 858.678 117.98L863.401 125.288C864.463 126.936 866.29 127.929 868.248 127.929H878.569C880.527 127.929 882.354 126.936 883.416 125.288L888.138 117.98C889.283 116.208 889.283 113.933 888.138 112.168L883.416 104.86C882.354 103.212 880.527 102.22 878.569 102.22Z" stroke="#FF6308" stroke-miterlimit="10"/>
<path d="M857.823 115.071V137.85" stroke="#FF6308" stroke-miterlimit="10"/>
<path d="M888.986 115.071V137.85" stroke="#FF6308" stroke-miterlimit="10"/>
<path d="M882.919 134.637H863.897C862.07 134.637 860.319 135.361 859.023 136.657L853.218 142.455C850.708 144.958 850.708 149.026 853.218 151.528L859.023 157.327C860.319 158.616 862.07 159.347 863.897 159.347H882.919C884.746 159.347 886.497 158.623 887.793 157.327L893.598 151.528C896.108 149.026 896.108 144.958 893.598 142.455L887.793 136.657C886.497 135.368 884.746 134.637 882.919 134.637Z" stroke="#FF6308" stroke-miterlimit="10"/>
<path d="M851.336 146.985V159.333" stroke="#FF6308" stroke-miterlimit="10"/>
<path d="M895.474 146.985V159.333" stroke="#FF6308" stroke-miterlimit="10"/>
<path d="M888.986 114.657H857.823" stroke="#FF6308" stroke-miterlimit="10"/>
<path d="M737.289 103.116C736.882 102.971 736.434 102.971 736.02 103.116C735.124 103.427 733.6 104.144 733.449 105.426C733.228 107.267 733.449 157.231 733.449 157.231C733.449 157.231 733.304 159.051 736.096 159.733C736.475 159.83 736.882 159.795 737.248 159.651C738.144 159.292 739.799 158.485 739.799 157.348V105.653C739.799 105.653 740.143 104.137 737.289 103.116Z" stroke="#FF6308" stroke-miterlimit="10"/>
<path d="M733.373 132.948H695.364" stroke="#FF6308" stroke-miterlimit="10"/>
<path d="M695.364 160.223V102.578" stroke="#FF6308" stroke-miterlimit="10"/>
<path d="M695.364 105.157C696.788 105.157 697.943 104.003 697.943 102.579C697.943 101.154 696.788 100 695.364 100C693.94 100 692.786 101.154 692.786 102.579C692.786 104.003 693.94 105.157 695.364 105.157Z" fill="#FF6308"/>
<path d="M839.92 112.163L834.776 104.324C832.936 101.518 830.205 101.518 828.365 104.324L823.221 112.163C822.056 113.935 821.387 116.507 821.387 119.216V141.685C821.387 144.394 822.056 146.973 823.221 148.738L828.365 156.577C830.205 159.383 832.936 159.383 834.776 156.577L839.92 148.738" stroke="#FF6308" stroke-miterlimit="10"/>
<path d="M839.878 151.22C841.303 151.22 842.457 150.066 842.457 148.641C842.457 147.217 841.303 146.063 839.878 146.063C838.454 146.063 837.3 147.217 837.3 148.641C837.3 150.066 838.454 151.22 839.878 151.22Z" fill="#FF6308"/>
<path d="M798.07 148.745L803.214 156.584C805.054 159.39 807.785 159.39 809.625 156.584L814.769 148.745C815.934 146.973 816.603 144.401 816.603 141.692V119.223C816.603 116.514 815.934 113.935 814.769 112.17L809.625 104.331C807.785 101.525 805.054 101.525 803.214 104.331L798.07 112.17" stroke="#FF6308" stroke-miterlimit="10"/>
<path d="M798.112 114.845C799.536 114.845 800.69 113.691 800.69 112.267C800.69 110.843 799.536 109.688 798.112 109.688C796.688 109.688 795.533 110.843 795.533 112.267C795.533 113.691 796.688 114.845 798.112 114.845Z" fill="#FF6308"/>
<path d="M818.898 102.345V159.797" stroke="#FF6308" stroke-miterlimit="10"/>
<path d="M630.884 119.216V141.685C630.884 144.395 629.705 146.973 627.651 148.738L618.564 156.577C615.316 159.383 610.497 159.383 607.25 156.577L598.163 148.738C596.109 146.966 594.93 144.395 594.93 141.685V119.216C594.93 116.507 596.109 113.928 598.163 112.163L607.25 104.324C610.497 101.518 615.316 101.518 618.564 104.324L627.651 112.163C629.705 113.935 630.884 116.507 630.884 119.216Z" stroke="#FF6308" stroke-miterlimit="10"/>
<path d="M594.936 130.454H630.884" stroke="#FF6308" stroke-miterlimit="10"/>
<path d="M612.91 133.033C614.334 133.033 615.489 131.878 615.489 130.454C615.489 129.03 614.334 127.876 612.91 127.876C611.486 127.876 610.332 129.03 610.332 130.454C610.332 131.878 611.486 133.033 612.91 133.033Z" fill="#FF6308"/>
<path d="M931.469 158.899H916.033C914.171 158.899 912.399 158.086 911.186 156.679L905.801 150.44C903.878 148.206 903.878 144.897 905.801 142.663L911.186 136.424C912.399 135.01 914.171 134.204 916.033 134.204H931.469C933.331 134.204 935.103 135.017 936.316 136.424L941.701 142.663C943.624 144.897 943.624 148.206 941.701 150.44L936.316 156.679C935.103 158.093 933.331 158.899 931.469 158.899Z" stroke="#FF6308" stroke-miterlimit="10"/>
<path d="M915.123 101.758V158.582" stroke="#FF6308" stroke-miterlimit="10"/>
<path d="M946.555 159.402V102.578" stroke="#FF6308" stroke-miterlimit="10"/>
<path d="M915.122 161.16C916.546 161.16 917.701 160.006 917.701 158.582C917.701 157.158 916.546 156.003 915.122 156.003C913.698 156.003 912.544 157.158 912.544 158.582C912.544 160.006 913.698 161.16 915.122 161.16Z" fill="#FF6308"/>
<path d="M946.555 105.157C947.979 105.157 949.133 104.003 949.133 102.579C949.133 101.155 947.979 100 946.555 100C945.131 100 943.976 101.155 943.976 102.579C943.976 104.003 945.131 105.157 946.555 105.157Z" fill="#FF6308"/>
<path d="M713.943 206.646H736.653C737.611 206.646 738.563 206.467 739.459 206.115L743.203 204.647C745.933 203.578 745.933 199.717 743.203 198.641L739.328 197.125C738.521 196.808 737.659 196.642 736.791 196.642H713.936C713.053 196.642 712.185 196.808 711.364 197.132L707.365 198.697C704.683 199.745 704.683 203.543 707.365 204.591L711.364 206.156C712.185 206.48 713.053 206.646 713.936 206.646H713.943Z" stroke="#FF6308" stroke-miterlimit="10"/>
<path d="M713.943 254.079H736.653C737.611 254.079 738.563 253.9 739.459 253.548L743.203 252.08C745.933 251.011 745.933 247.15 743.203 246.075L739.328 244.558C738.521 244.241 737.659 244.076 736.791 244.076H713.936C713.053 244.076 712.185 244.241 711.364 244.565L707.365 246.13C704.683 247.178 704.683 250.977 707.365 252.025L711.364 253.59C712.185 253.914 713.053 254.079 713.936 254.079H713.943Z" stroke="#FF6308" stroke-miterlimit="10"/>
<path d="M745.25 201.641V249.171" stroke="#FF6308" stroke-miterlimit="10"/>
<path d="M703.146 225.668H745.25" stroke="#FF6308" stroke-miterlimit="10"/>
<path d="M703.146 228.246C704.57 228.246 705.725 227.092 705.725 225.668C705.725 224.244 704.57 223.089 703.146 223.089C701.722 223.089 700.568 224.244 700.568 225.668C700.568 227.092 701.722 228.246 703.146 228.246Z" fill="#FF6308"/>
<path d="M688.552 210.884L653.184 252.189" stroke="#FF6308" stroke-miterlimit="10"/>
<path d="M689.11 212.842C690.534 212.842 691.688 211.688 691.688 210.264C691.688 208.839 690.534 207.685 689.11 207.685C687.686 207.685 686.531 208.839 686.531 210.264C686.531 211.688 687.686 212.842 689.11 212.842Z" fill="#FF6308"/>
<path d="M649.819 196.751C650.226 196.606 650.674 196.606 651.087 196.751C651.984 197.061 653.507 197.778 653.659 199.06C653.88 200.901 653.659 250.865 653.659 250.865C653.659 250.865 653.804 252.685 651.012 253.368C650.632 253.464 650.226 253.43 649.86 253.285C648.964 252.926 647.309 252.12 647.309 250.982V199.288C647.309 199.288 646.965 197.771 649.819 196.751Z" stroke="#FF6308" stroke-miterlimit="10"/>
<path d="M798.632 198.648C798.225 198.504 797.777 198.504 797.363 198.648C796.467 198.959 794.943 199.676 794.791 200.958C794.571 202.799 794.791 252.763 794.791 252.763C794.791 252.763 794.647 254.583 797.439 255.265C797.818 255.362 798.225 255.327 798.59 255.183C799.487 254.824 801.141 254.017 801.141 252.88V201.186C801.141 201.186 801.486 199.669 798.632 198.648Z" stroke="#FF6308" stroke-miterlimit="10"/>
<path d="M794.716 228.481H756.707" stroke="#FF6308" stroke-miterlimit="10"/>
<path d="M756.707 255.755V198.111" stroke="#FF6308" stroke-miterlimit="10"/>
<path d="M756.707 200.689C758.131 200.689 759.286 199.535 759.286 198.111C759.286 196.687 758.131 195.532 756.707 195.532C755.283 195.532 754.129 196.687 754.129 198.111C754.129 199.535 755.283 200.689 756.707 200.689Z" fill="#FF6308"/>
<path d="M635.881 206.586L630.738 198.747C628.897 195.941 626.167 195.941 624.326 198.747L619.183 206.586C618.017 208.357 617.349 210.929 617.349 213.639V236.107C617.349 238.817 618.017 241.395 619.183 243.16L624.326 250.999C626.167 253.805 628.897 253.805 630.738 250.999L635.881 243.16" stroke="#FF6308" stroke-miterlimit="10"/>
<path d="M635.84 245.642C637.264 245.642 638.418 244.488 638.418 243.064C638.418 241.64 637.264 240.485 635.84 240.485C634.416 240.485 633.261 241.64 633.261 243.064C633.261 244.488 634.416 245.642 635.84 245.642Z" fill="#FF6308"/>
<path d="M594.032 243.168L599.175 251.007C601.016 253.813 603.746 253.813 605.587 251.007L610.73 243.168C611.895 241.396 612.564 238.824 612.564 236.115V213.646C612.564 210.936 611.895 208.358 610.73 206.593L605.587 198.754C603.746 195.948 601.016 195.948 599.175 198.754L594.032 206.593" stroke="#FF6308" stroke-miterlimit="10"/>
<path d="M594.073 209.268C595.497 209.268 596.651 208.113 596.651 206.689C596.651 205.265 595.497 204.111 594.073 204.111C592.649 204.111 591.494 205.265 591.494 206.689C591.494 208.113 592.649 209.268 594.073 209.268Z" fill="#FF6308"/>
<path d="M614.859 196.768V254.219" stroke="#FF6308" stroke-miterlimit="10"/>
<path d="M841.617 252.673H822.596C820.769 252.673 819.017 251.949 817.721 250.653L811.916 244.855C809.407 242.352 809.407 238.285 811.916 235.782L817.721 229.984C819.017 228.694 820.769 227.964 822.596 227.964H841.617C843.444 227.964 845.195 228.688 846.492 229.984L852.297 235.782C854.806 238.285 854.806 242.352 852.297 244.855L846.492 250.653C845.195 251.942 843.444 252.673 841.617 252.673Z" stroke="#FF6308" stroke-miterlimit="10"/>
<path d="M820.534 195.532V252.356" stroke="#FF6308" stroke-miterlimit="10"/>
<path d="M820.534 254.934C821.958 254.934 823.113 253.78 823.113 252.356C823.113 250.932 821.958 249.777 820.534 249.777C819.11 249.777 817.956 250.932 817.956 252.356C817.956 253.78 819.11 254.934 820.534 254.934Z" fill="#FF6308"/>
<path d="M285.879 198.855H269.588C268.022 198.855 266.519 199.475 265.409 200.585L260.439 205.549C258.288 207.694 258.288 211.175 260.439 213.319L265.409 218.283C266.519 219.387 268.016 220.014 269.588 220.014H285.879C287.444 220.014 288.947 219.393 290.057 218.283L295.028 213.319C297.179 211.175 297.179 207.694 295.028 205.549L290.057 200.585C288.947 199.482 287.451 198.855 285.879 198.855Z" stroke="#FF6308" stroke-miterlimit="10"/>
<path d="M287.244 231.348H268.222C266.395 231.348 264.644 232.072 263.348 233.368L257.543 239.166C255.033 241.669 255.033 245.737 257.543 248.239L263.348 254.038C264.644 255.327 266.395 256.058 268.222 256.058H287.244C289.071 256.058 290.822 255.334 292.118 254.038L297.923 248.239C300.433 245.737 300.433 241.669 297.923 239.166L292.118 233.368C290.822 232.079 289.071 231.348 287.244 231.348Z" stroke="#FF6308" stroke-miterlimit="10"/>
<path d="M266.161 256.044V199.22" stroke="#FF6308" stroke-miterlimit="10"/>
<path d="M266.161 201.799C267.585 201.799 268.739 200.644 268.739 199.22C268.739 197.796 267.585 196.642 266.161 196.642C264.737 196.642 263.582 197.796 263.582 199.22C263.582 200.644 264.737 201.799 266.161 201.799Z" fill="#FF6308"/>
<path d="M433.768 236.381H454.155" stroke="#FF6308" stroke-miterlimit="10"/>
<path d="M454.969 238.96C456.393 238.96 457.547 237.806 457.547 236.381C457.547 234.957 456.393 233.803 454.969 233.803C453.545 233.803 452.39 234.957 452.39 236.381C452.39 237.806 453.545 238.96 454.969 238.96Z" fill="#FF6308"/>
<path d="M432.562 238.96C433.986 238.96 435.141 237.806 435.141 236.381C435.141 234.957 433.986 233.803 432.562 233.803C431.138 233.803 429.984 234.957 429.984 236.381C429.984 237.806 431.138 238.96 432.562 238.96Z" fill="#FF6308"/>
<path d="M444.593 197.449C445.027 197.462 445.441 197.642 445.758 197.938C446.454 198.593 447.557 199.889 447.171 201.227C446.613 203.136 425.599 252.659 425.599 252.659C425.599 252.659 424.978 254.521 422.117 254.121C421.724 254.066 421.372 253.879 421.09 253.59C420.407 252.887 419.221 251.446 419.69 250.315C420.338 248.764 441.215 198.993 441.215 198.993C441.215 198.993 441.532 197.352 444.586 197.449H444.593Z" stroke="#FF6308" stroke-miterlimit="10"/>
<path d="M444.055 203.412C445.925 203.412 447.44 201.897 447.44 200.027C447.44 198.157 445.925 196.642 444.055 196.642C442.186 196.642 440.67 198.157 440.67 200.027C440.67 201.897 442.186 203.412 444.055 203.412Z" fill="#FF6308"/>
<path d="M349.939 211.994L314.571 253.299" stroke="#FF6308" stroke-miterlimit="10"/>
<path d="M350.497 213.952C351.921 213.952 353.076 212.798 353.076 211.374C353.076 209.949 351.921 208.795 350.497 208.795C349.073 208.795 347.919 209.949 347.919 211.374C347.919 212.798 349.073 213.952 350.497 213.952Z" fill="#FF6308"/>
<path d="M311.206 197.86C311.613 197.716 312.061 197.716 312.475 197.86C313.371 198.171 314.895 198.888 315.047 200.17C315.267 202.011 315.047 251.975 315.047 251.975C315.047 251.975 315.191 253.795 312.399 254.477C312.02 254.574 311.613 254.539 311.248 254.395C310.352 254.036 308.697 253.23 308.697 252.092V200.398C308.697 200.398 308.352 198.881 311.206 197.86Z" stroke="#FF6308" stroke-miterlimit="10"/>
<path d="M386.965 197.456C387.399 197.469 387.813 197.649 388.13 197.945C388.826 198.6 389.929 199.896 389.543 201.234C388.985 203.143 367.971 252.666 367.971 252.666C367.971 252.666 367.35 254.528 364.489 254.128C364.096 254.072 363.744 253.886 363.462 253.597C362.779 252.894 361.593 251.453 362.062 250.322C362.71 248.771 383.586 199 383.586 199C383.586 199 383.904 197.359 386.958 197.456H386.965Z" stroke="#FF6308" stroke-miterlimit="10"/>
<path d="M385.696 197.621C385.261 197.635 384.848 197.814 384.531 198.11C383.834 198.765 382.731 200.061 383.117 201.399C383.676 203.309 404.69 252.831 404.69 252.831C404.69 252.831 405.31 254.693 408.172 254.293C408.565 254.238 408.916 254.052 409.199 253.762C409.881 253.059 411.067 251.618 410.598 250.487C409.95 248.936 389.074 199.165 389.074 199.165C389.074 199.165 388.757 197.524 385.703 197.621H385.696Z" stroke="#FF6308" stroke-miterlimit="10"/>
<path d="M386.42 203.412C388.29 203.412 389.806 201.897 389.806 200.027C389.806 198.157 388.29 196.642 386.42 196.642C384.551 196.642 383.035 198.157 383.035 200.027C383.035 201.897 384.551 203.412 386.42 203.412Z" fill="#FF6308"/>
<path d="M139.43 205.536H113.334C112.424 205.536 111.514 205.384 110.652 205.081L106.874 203.764C103.813 202.695 103.813 198.366 106.874 197.297L110.777 195.939C111.556 195.67 112.376 195.532 113.197 195.532H139.43C140.264 195.532 141.098 195.67 141.891 195.946L145.945 197.359C148.951 198.407 148.951 202.661 145.945 203.709L141.891 205.122C141.098 205.398 140.271 205.536 139.43 205.536Z" stroke="#FF6308" stroke-miterlimit="10"/>
<path d="M104.578 200.538V252.653" stroke="#FF6308" stroke-miterlimit="10"/>
<path d="M104.579 255.231C106.003 255.231 107.157 254.076 107.157 252.652C107.157 251.228 106.003 250.074 104.579 250.074C103.155 250.074 102 251.228 102 252.652C102 254.076 103.155 255.231 104.579 255.231Z" fill="#FF6308"/>
<path d="M148.2 200.538V252.653" stroke="#FF6308" stroke-miterlimit="10"/>
<path d="M503.892 206.659C501.665 201.268 496.405 197.752 490.572 197.752H486.539C480.706 197.752 475.446 201.268 473.219 206.659L467.517 220.469C466.062 223.992 466.062 227.949 467.517 231.472L473.219 245.282C475.446 250.673 480.706 254.19 486.539 254.19H490.572C496.405 254.19 501.665 250.673 503.892 245.282" stroke="#FF6308" stroke-miterlimit="10"/>
<path d="M503.892 209.459C505.316 209.459 506.471 208.304 506.471 206.88C506.471 205.456 505.316 204.302 503.892 204.302C502.468 204.302 501.314 205.456 501.314 206.88C501.314 208.304 502.468 209.459 503.892 209.459Z" fill="#FF6308"/>
<path d="M193.033 214.748V237.217C193.033 239.927 191.854 242.505 189.799 244.27L180.712 252.109C177.465 254.915 172.646 254.915 169.398 252.109L160.312 244.27C158.257 242.498 157.078 239.927 157.078 237.217V214.748C157.078 212.039 158.257 209.46 160.312 207.695L169.398 199.856C172.646 197.05 177.465 197.05 180.712 199.856L189.799 207.695C191.854 209.467 193.033 212.039 193.033 214.748Z" stroke="#FF6308" stroke-miterlimit="10"/>
<path d="M157.085 225.986H193.032" stroke="#FF6308" stroke-miterlimit="10"/>
<path d="M175.059 228.565C176.483 228.565 177.637 227.411 177.637 225.986C177.637 224.562 176.483 223.408 175.059 223.408C173.635 223.408 172.48 224.562 172.48 225.986C172.48 227.411 173.635 228.565 175.059 228.565Z" fill="#FF6308"/>
<path d="M546.933 253.783H527.911C526.084 253.783 524.333 253.059 523.037 251.763L517.231 245.965C514.722 243.462 514.722 239.394 517.231 236.892L523.037 231.093C524.333 229.804 526.084 229.073 527.911 229.073H546.933C548.76 229.073 550.511 229.797 551.807 231.093L557.612 236.892C560.122 239.394 560.122 243.462 557.612 245.965L551.807 251.763C550.511 253.052 548.76 253.783 546.933 253.783Z" stroke="#FF6308" stroke-miterlimit="10"/>
<path d="M525.849 196.642V253.466" stroke="#FF6308" stroke-miterlimit="10"/>
<path d="M525.849 256.044C527.273 256.044 528.428 254.89 528.428 253.466C528.428 252.042 527.273 250.887 525.849 250.887C524.425 250.887 523.271 252.042 523.271 253.466C523.271 254.89 524.425 256.044 525.849 256.044Z" fill="#FF6308"/>
<path d="M242.843 197.861C243.25 197.716 243.698 197.716 244.112 197.861C245.008 198.171 246.532 198.888 246.683 200.17C246.904 202.011 246.683 251.975 246.683 251.975C246.683 251.975 246.828 253.795 244.036 254.478C243.657 254.574 243.25 254.54 242.884 254.395C241.988 254.036 240.333 253.23 240.333 252.092V200.398C240.333 200.398 239.989 198.881 242.843 197.861Z" stroke="#FF6308" stroke-miterlimit="10"/>
<path d="M205.048 252.01L240.416 210.705" stroke="#FF6308" stroke-miterlimit="10"/>
<path d="M204.49 255.208C205.914 255.208 207.068 254.054 207.068 252.63C207.068 251.206 205.914 250.051 204.49 250.051C203.066 250.051 201.911 251.206 201.911 252.63C201.911 254.054 203.066 255.208 204.49 255.208Z" fill="#FF6308"/>
<path d="M229.261 198.708H212.969C211.404 198.708 209.901 199.329 208.791 200.439L203.82 205.403C201.669 207.547 201.669 211.029 203.82 213.173L208.791 218.137C209.901 219.24 211.397 219.867 212.969 219.867H229.261C230.826 219.867 232.329 219.247 233.439 218.137L238.41 213.173C240.561 211.029 240.561 207.547 238.41 205.403L233.439 200.439C232.329 199.336 230.833 198.708 229.261 198.708Z" stroke="#FF6308" stroke-miterlimit="10"/>
<path d="M35.8513 13.0038H9.75593C8.84587 13.0038 7.9358 12.8521 7.07399 12.5488L3.29584 11.2319C0.234719 10.1633 0.234719 5.83361 3.29584 4.76497L7.19809 3.40677C7.97716 3.13789 8.7976 3 9.61804 3H35.8513C36.6855 3 37.5198 3.13789 38.3126 3.41367L42.3665 4.82702C45.3725 5.87497 45.3725 10.1288 42.3665 11.1768L38.3126 12.5901C37.5198 12.8659 36.6924 13.0038 35.8513 13.0038Z" stroke="#FF6308" stroke-miterlimit="10"/>
<path d="M22.8073 3.08301V60.1206" stroke="#FF6308" stroke-miterlimit="10"/>
<path d="M22.8074 15.5823C24.2315 15.5823 25.3859 14.4279 25.3859 13.0038C25.3859 11.5797 24.2315 10.4253 22.8074 10.4253C21.3833 10.4253 20.2289 11.5797 20.2289 13.0038C20.2289 14.4279 21.3833 15.5823 22.8074 15.5823Z" fill="#FF6308"/>
<path d="M89.4542 19.9965V42.4654C89.4542 45.1749 88.2752 47.7534 86.2207 49.5184L77.1338 57.3573C73.8866 60.1634 69.0674 60.1634 65.8201 57.3573L56.7332 49.5184C54.6787 47.7465 53.4998 45.1749 53.4998 42.4654V19.9965C53.4998 17.287 54.6787 14.7084 56.7332 12.9435L65.8201 5.10452C69.0674 2.29849 73.8866 2.29849 77.1338 5.10452L86.2207 12.9435C88.2752 14.7153 89.4542 17.287 89.4542 19.9965Z" stroke="#FF6308" stroke-miterlimit="10"/>
<path d="M53.5065 31.2345H89.454" stroke="#FF6308" stroke-miterlimit="10"/>
<path d="M71.4805 33.8131C72.9046 33.8131 74.059 32.6587 74.059 31.2346C74.059 29.8106 72.9046 28.6561 71.4805 28.6561C70.0564 28.6561 68.902 29.8106 68.902 31.2346C68.902 32.6587 70.0564 33.8131 71.4805 33.8131Z" fill="#FF6308"/>
<path d="M286.712 1.19275V58.6853" stroke="#FF6308" stroke-miterlimit="10"/>
<path d="M286.713 61.2635C288.137 61.2635 289.291 60.109 289.291 58.685C289.291 57.2609 288.137 56.1064 286.713 56.1064C285.288 56.1064 284.134 57.2609 284.134 58.685C284.134 60.109 285.288 61.2635 286.713 61.2635Z" fill="#FF6308"/>
<path d="M311.953 10.99H287.63C286.692 10.99 285.761 10.8246 284.886 10.5005L281.115 9.10784C278.226 8.0392 278.226 3.95081 281.115 2.88218L285.017 1.44124C285.81 1.14478 286.651 1 287.499 1H311.96C312.822 1 313.67 1.15168 314.477 1.44814L318.51 2.94423C321.35 3.99218 321.35 8.01163 318.51 9.05958L314.477 10.5557C313.67 10.8521 312.822 11.0038 311.96 11.0038L311.953 10.99Z" stroke="#FF6308" stroke-miterlimit="10"/>
<path d="M246.29 41.8496H266.677" stroke="#FF6308" stroke-miterlimit="10"/>
<path d="M267.491 44.4283C268.915 44.4283 270.07 43.2738 270.07 41.8498C270.07 40.4257 268.915 39.2712 267.491 39.2712C266.067 39.2712 264.912 40.4257 264.912 41.8498C264.912 43.2738 266.067 44.4283 267.491 44.4283Z" fill="#FF6308"/>
<path d="M245.084 44.4283C246.508 44.4283 247.663 43.2738 247.663 41.8498C247.663 40.4257 246.508 39.2712 245.084 39.2712C243.66 39.2712 242.506 40.4257 242.506 41.8498C242.506 43.2738 243.66 44.4283 245.084 44.4283Z" fill="#FF6308"/>
<path d="M257.115 2.91682C257.549 2.93061 257.963 3.10986 258.28 3.40632C258.977 4.06129 260.08 5.35744 259.694 6.69496C259.135 8.60472 238.121 58.1273 238.121 58.1273C238.121 58.1273 237.5 59.9888 234.639 59.589C234.246 59.5338 233.895 59.3477 233.612 59.0581C232.929 58.3549 231.744 56.9139 232.212 55.7832C232.86 54.232 253.737 4.46117 253.737 4.46117C253.737 4.46117 254.054 2.8203 257.108 2.91682H257.115Z" stroke="#FF6308" stroke-miterlimit="10"/>
<path d="M256.577 8.88043C258.447 8.88043 259.962 7.36484 259.962 5.49527C259.962 3.6257 258.447 2.11011 256.577 2.11011C254.708 2.11011 253.192 3.6257 253.192 5.49527C253.192 7.36484 254.708 8.88043 256.577 8.88043Z" fill="#FF6308"/>
<path d="M441.56 41.8496H461.946" stroke="#FF6308" stroke-miterlimit="10"/>
<path d="M462.76 44.4283C464.184 44.4283 465.339 43.2738 465.339 41.8498C465.339 40.4257 464.184 39.2712 462.76 39.2712C461.336 39.2712 460.182 40.4257 460.182 41.8498C460.182 43.2738 461.336 44.4283 462.76 44.4283Z" fill="#FF6308"/>
<path d="M440.354 44.4283C441.778 44.4283 442.932 43.2738 442.932 41.8498C442.932 40.4257 441.778 39.2712 440.354 39.2712C438.929 39.2712 437.775 40.4257 437.775 41.8498C437.775 43.2738 438.929 44.4283 440.354 44.4283Z" fill="#FF6308"/>
<path d="M452.384 2.91682C452.819 2.93061 453.232 3.10986 453.549 3.40632C454.246 4.06129 455.349 5.35744 454.963 6.69496C454.404 8.60472 433.39 58.1273 433.39 58.1273C433.39 58.1273 432.77 59.9888 429.908 59.589C429.515 59.5338 429.164 59.3477 428.881 59.0581C428.199 58.3549 427.013 56.9139 427.482 55.7832C428.13 54.232 449.006 4.46117 449.006 4.46117C449.006 4.46117 449.323 2.8203 452.377 2.91682H452.384Z" stroke="#FF6308" stroke-miterlimit="10"/>
<path d="M451.847 8.88043C453.716 8.88043 455.232 7.36484 455.232 5.49527C455.232 3.6257 453.716 2.11011 451.847 2.11011C449.977 2.11011 448.461 3.6257 448.461 5.49527C448.461 7.36484 449.977 8.88043 451.847 8.88043Z" fill="#FF6308"/>
<path d="M153.037 58.1478H134.016C132.189 58.1478 130.438 57.4239 129.141 56.1278L123.336 50.3296C120.827 47.8269 120.827 43.7592 123.336 41.2565L129.141 35.4583C130.438 34.169 132.189 33.4382 134.016 33.4382H153.037C154.864 33.4382 156.616 34.1621 157.912 35.4583L163.717 41.2565C166.226 43.7592 166.226 47.8269 163.717 50.3296L157.912 56.1278C156.616 57.417 154.864 58.1478 153.037 58.1478Z" stroke="#FF6308" stroke-miterlimit="10"/>
<path d="M131.954 0.999756V57.8236" stroke="#FF6308" stroke-miterlimit="10"/>
<path d="M131.954 60.4021C133.378 60.4021 134.533 59.2477 134.533 57.8236C134.533 56.3996 133.378 55.2451 131.954 55.2451C130.53 55.2451 129.376 56.3996 129.376 57.8236C129.376 59.2477 130.53 60.4021 131.954 60.4021Z" fill="#FF6308"/>
<path d="M154.892 11.2517H132.182C131.224 11.2517 130.272 11.0725 129.376 10.7209L125.632 9.25235C122.902 8.18371 122.902 4.32284 125.632 3.24731L129.507 1.73053C130.314 1.41339 131.176 1.24792 132.044 1.24792H154.899C155.782 1.24792 156.65 1.41339 157.471 1.73743L161.47 3.30246C164.152 4.35041 164.152 8.14924 161.47 9.19719L157.471 10.7622C156.65 11.0863 155.782 11.2517 154.899 11.2517H154.892Z" stroke="#FF6308" stroke-miterlimit="10"/>
<path d="M401.585 2.11011H391.264C389.306 2.11011 387.479 3.1029 386.417 4.75067L381.694 12.0588C380.55 13.8306 380.55 16.1058 381.694 17.8708L386.417 25.1788C387.479 26.8266 389.306 27.8194 391.264 27.8194H401.585C403.543 27.8194 405.37 26.8266 406.432 25.1788L411.154 17.8708C412.299 16.0989 412.299 13.8237 411.154 12.0588L406.432 4.75067C405.37 3.1029 403.543 2.11011 401.585 2.11011Z" stroke="#FF6308" stroke-miterlimit="10"/>
<path d="M380.839 14.9614V37.7406" stroke="#FF6308" stroke-miterlimit="10"/>
<path d="M412.002 14.9614V37.7406" stroke="#FF6308" stroke-miterlimit="10"/>
<path d="M405.935 34.5275H386.913C385.086 34.5275 383.335 35.2514 382.039 36.5475L376.234 42.3457C373.724 44.8484 373.724 48.9161 376.234 51.4188L382.039 57.217C383.335 58.5063 385.086 59.2371 386.913 59.2371H405.935C407.762 59.2371 409.513 58.5132 410.809 57.217L416.614 51.4188C419.124 48.9161 419.124 44.8484 416.614 42.3457L410.809 36.5475C409.513 35.2583 407.762 34.5275 405.935 34.5275Z" stroke="#FF6308" stroke-miterlimit="10"/>
<path d="M374.352 46.8759V59.2238" stroke="#FF6308" stroke-miterlimit="10"/>
<path d="M418.49 46.8759V59.2238" stroke="#FF6308" stroke-miterlimit="10"/>
<path d="M412.002 14.5474H380.839" stroke="#FF6308" stroke-miterlimit="10"/>
<path d="M199.487 2.92377C199.921 2.93756 200.335 3.11682 200.652 3.41328C201.348 4.06825 202.451 5.3644 202.065 6.70192C201.507 8.61167 180.493 58.1343 180.493 58.1343C180.493 58.1343 179.872 59.9958 177.011 59.5959C176.618 59.5408 176.266 59.3546 175.984 59.0651C175.301 58.3618 174.115 56.9209 174.584 55.7902C175.232 54.239 196.108 4.46813 196.108 4.46813C196.108 4.46813 196.426 2.82725 199.48 2.92377H199.487Z" stroke="#FF6308" stroke-miterlimit="10"/>
<path d="M198.218 3.08906C197.784 3.10285 197.37 3.2821 197.053 3.57856C196.356 4.23353 195.253 5.52968 195.639 6.8672C196.198 8.77695 217.212 58.2996 217.212 58.2996C217.212 58.2996 217.833 60.1611 220.694 59.7612C221.087 59.706 221.438 59.5199 221.721 59.2303C222.404 58.5271 223.589 57.0862 223.121 55.9555C222.472 54.4042 201.596 4.63341 201.596 4.63341C201.596 4.63341 201.279 2.99254 198.225 3.08906H198.218Z" stroke="#FF6308" stroke-miterlimit="10"/>
<path d="M198.943 8.88043C200.812 8.88043 202.328 7.36484 202.328 5.49527C202.328 3.6257 200.812 2.11011 198.943 2.11011C197.073 2.11011 195.557 3.6257 195.557 5.49527C195.557 7.36484 197.073 8.88043 198.943 8.88043Z" fill="#FF6308"/>
<path d="M505.8 3.26111H486.779C484.952 3.26111 483.2 3.98503 481.904 5.28118L476.099 11.0794C473.59 13.5821 473.59 17.6498 476.099 20.1524L481.904 25.9507C483.2 27.2399 484.952 27.9707 486.779 27.9707H505.8C507.627 27.9707 509.379 27.2468 510.675 25.9507L516.48 20.1524C518.989 17.6498 518.989 13.5821 516.48 11.0794L510.675 5.28118C509.379 3.99192 507.627 3.26111 505.8 3.26111Z" stroke="#FF6308" stroke-miterlimit="10"/>
<path d="M484.717 60.402V3.57812" stroke="#FF6308" stroke-miterlimit="10"/>
<path d="M484.717 6.15679C486.141 6.15679 487.296 5.00235 487.296 3.57827C487.296 2.1542 486.141 0.999756 484.717 0.999756C483.293 0.999756 482.139 2.1542 482.139 3.57827C482.139 5.00235 483.293 6.15679 484.717 6.15679Z" fill="#FF6308"/>
<path d="M365.473 20.2161V42.685C365.473 45.3945 364.294 47.973 362.24 49.738L353.153 57.5769C349.905 60.383 345.086 60.383 341.839 57.5769L332.752 49.738C330.698 47.9661 329.519 45.3945 329.519 42.685V20.2161C329.519 17.5066 330.698 14.9281 332.752 13.1631L341.839 5.32413C345.086 2.5181 349.905 2.5181 353.153 5.32413L362.24 13.1631C364.294 14.9349 365.473 17.5066 365.473 20.2161Z" stroke="#FF6308" stroke-miterlimit="10"/>
<path d="M329.525 31.4541H365.473" stroke="#FF6308" stroke-miterlimit="10"/>
<path d="M347.499 34.0327C348.923 34.0327 350.078 32.8783 350.078 31.4542C350.078 30.0302 348.923 28.8757 347.499 28.8757C346.075 28.8757 344.921 30.0302 344.921 31.4542C344.921 32.8783 346.075 34.0327 347.499 34.0327Z" fill="#FF6308"/>
<path d="M568.173 2.21869C568.579 2.07391 569.027 2.07391 569.441 2.21869C570.337 2.52894 571.861 3.24597 572.013 4.52833C572.233 6.36914 572.013 56.333 572.013 56.333C572.013 56.333 572.157 58.1532 569.365 58.8357C568.986 58.9322 568.579 58.8977 568.214 58.753C567.318 58.3944 565.663 57.5878 565.663 56.4502V4.75586C565.663 4.75586 565.318 3.23907 568.173 2.21869Z" stroke="#FF6308" stroke-miterlimit="10"/>
<path d="M530.377 56.3677L565.746 15.0632" stroke="#FF6308" stroke-miterlimit="10"/>
<path d="M529.819 59.5665C531.243 59.5665 532.398 58.412 532.398 56.9879C532.398 55.5639 531.243 54.4094 529.819 54.4094C528.395 54.4094 527.241 55.5639 527.241 56.9879C527.241 58.412 528.395 59.5665 529.819 59.5665Z" fill="#FF6308"/>
<path d="M554.59 3.06653H538.299C536.734 3.06653 535.231 3.68703 534.121 4.79703L529.15 9.76101C526.999 11.9052 526.999 15.3869 529.15 17.531L534.121 22.495C535.231 23.5981 536.727 24.2255 538.299 24.2255H554.59C556.155 24.2255 557.658 23.605 558.768 22.495L563.739 17.531C565.89 15.3869 565.89 11.9052 563.739 9.76101L558.768 4.79703C557.658 3.69393 556.162 3.06653 554.59 3.06653Z" stroke="#FF6308" stroke-miterlimit="10"/>
</svg>
